<svg width="129" height="35" viewBox="0 0 129 35" fill="none" xmlns="http://www.w3.org/2000/svg">
<g filter="url(#filter0_d_11020_41237)">
<path d="M6.99951 5H96.3623C108.82 5 119.549 13.7892 122 26.0039V26.0039L6.99951 26L20.2456 15.5039L6.99951 5Z" fill="#03AE4A"/>
</g>
<path d="M39.5471 18L38.9451 18L38.9452 11.6587L39.5473 11.6586L39.5471 18ZM41.1072 17.9999L41.1073 13.267L41.6566 13.267L41.6566 14.1195L41.7137 14.1195C41.9642 13.5351 42.4872 13.1879 43.243 13.1879C44.2977 13.1879 44.8998 13.8207 44.8997 14.9237L44.8996 17.9999L44.324 17.9999L44.324 15.0687C44.3241 14.1678 43.911 13.7064 43.0892 13.7064C42.2543 13.7064 41.683 14.2953 41.6829 15.1874L41.6828 17.9999L41.1072 17.9999ZM49.8964 13.2668L48.1296 17.9998L47.5144 17.9998L45.7479 13.2669L46.3632 13.2669L47.7957 17.3714L47.8484 17.3714L49.2767 13.2669L49.8964 13.2668ZM50.9597 17.9997L50.9598 13.2668L51.5355 13.2668L51.5354 17.9997L50.9597 17.9997ZM51.2455 12.2121C51.0126 12.2121 50.8193 12.0188 50.8193 11.7815C50.8193 11.5486 51.0126 11.3552 51.2455 11.3552C51.4829 11.3552 51.6762 11.5486 51.6762 11.7815C51.6762 12.0188 51.4828 12.2121 51.2455 12.2121ZM53.3417 12.0363L53.9174 12.0363L53.9174 13.2668L55.0116 13.2668L55.0116 13.7545L53.9173 13.7546L53.9173 16.6901C53.9172 17.2702 54.137 17.5163 54.6687 17.5163C54.761 17.5163 54.9148 17.5119 55.0115 17.5031L55.0115 17.9953C54.9104 18.0128 54.7082 18.026 54.6072 18.026C53.7019 18.0261 53.3415 17.6833 53.3416 16.822L53.3417 13.7546L52.5682 13.7546L52.5682 13.2668L53.3417 13.2668L53.3417 12.0363ZM58.0087 13.6974C57.1473 13.6974 56.5497 14.3346 56.4969 15.3102L59.4456 15.3101C59.4325 14.3345 58.8656 13.6973 58.0087 13.6974ZM59.3884 16.8306L59.9729 16.8306C59.74 17.5997 59.0105 18.0787 58.0173 18.0787C56.7165 18.0787 55.8992 17.1295 55.8992 15.6354C55.8993 14.15 56.7255 13.1876 58.0131 13.1876C59.2743 13.1876 60.0477 14.084 60.0477 15.5298L60.0477 15.7847L56.4925 15.7848L56.4925 15.8112C56.5232 16.879 57.1165 17.5646 58.0305 17.5645C58.7029 17.5645 59.1863 17.2965 59.3884 16.8306ZM68.0193 17.9994L67.3162 16.057L64.6531 16.0571L63.9499 17.9995L63.3127 17.9995L65.686 11.6582L66.2836 11.6581L68.6521 17.9994L68.0193 17.9994ZM65.954 12.4448L64.8333 15.5385L67.136 15.5385L66.0111 12.4448L65.954 12.4448ZM73.306 14.6595L72.7215 14.6595C72.5765 14.1146 72.0887 13.7059 71.3636 13.7059C70.4232 13.7059 69.8255 14.4486 69.8255 15.6175C69.8255 16.7997 70.4275 17.5555 71.3635 17.5555C72.0623 17.5555 72.572 17.2171 72.7171 16.637L73.3015 16.637C73.1565 17.4852 72.449 18.0784 71.3679 18.0785C70.0627 18.0785 69.2322 17.1205 69.2322 15.6176C69.2323 14.1366 70.0585 13.1874 71.3637 13.1873C72.4491 13.1873 73.1654 13.8333 73.306 14.6595ZM78.3421 14.6594L77.7577 14.6594C77.6126 14.1145 77.1249 13.7058 76.3998 13.7058C75.4593 13.7058 74.8617 14.4485 74.8616 15.6175C74.8616 16.7996 75.4636 17.5554 76.3997 17.5554C77.0984 17.5554 77.6082 17.217 77.7532 16.6369L78.3377 16.6369C78.1926 17.4851 77.4851 18.0783 76.404 18.0784C75.0989 18.0784 74.2683 17.1204 74.2684 15.6175C74.2684 14.1365 75.0946 13.1873 76.3998 13.1872C77.4852 13.1872 78.2015 13.8332 78.3421 14.6594ZM81.4139 13.6969C80.5526 13.6969 79.9549 14.3342 79.9022 15.3097L82.8509 15.3097C82.8377 14.3341 82.2709 13.6969 81.4139 13.6969ZM82.7937 16.8302L83.3782 16.8302C83.1453 17.5992 82.4158 18.0782 81.4226 18.0783C80.1218 18.0783 79.3045 17.1291 79.3045 15.6349C79.3045 14.1496 80.1307 13.1872 81.4183 13.1872C82.6796 13.1871 83.453 14.0836 83.4529 15.5294L83.4529 15.7843L79.8978 15.7844L79.8978 15.8107C79.9285 16.8786 80.5217 17.5641 81.4358 17.5641C82.1082 17.5641 82.5916 17.296 82.7937 16.8302ZM86.9247 13.1871C88.1244 13.187 88.9154 14.1582 88.9153 15.6304C88.9153 17.1025 88.1199 18.0781 86.9245 18.0782C86.1907 18.0782 85.593 17.709 85.3294 17.0982L85.2766 17.0982L85.2765 19.5679L84.7009 19.568L84.7011 13.2662L85.2504 13.2662L85.2503 14.233L85.3031 14.233C85.5931 13.587 86.204 13.1871 86.9247 13.1871ZM86.7971 17.5552C87.7332 17.5552 88.322 16.8125 88.3221 15.6348C88.3221 14.4526 87.7333 13.7056 86.8016 13.7056C85.8744 13.7056 85.2591 14.4703 85.2591 15.6304C85.2591 16.7906 85.8743 17.5552 86.7971 17.5552ZM90.4579 12.0356L91.0336 12.0356L91.0336 13.2661L92.1278 13.2661L92.1278 13.7538L91.0336 13.7539L91.0335 16.6894C91.0335 17.2695 91.2532 17.5156 91.7849 17.5156C91.8772 17.5156 92.031 17.5112 92.1277 17.5024L92.1277 17.9946C92.0266 18.0122 91.8244 18.0253 91.7234 18.0253C90.8181 18.0254 90.4578 17.6826 90.4578 16.8213L90.4579 13.7539L89.6844 13.7539L89.6845 13.2661L90.4579 13.2661L90.4579 12.0356ZM95.1249 13.6967C94.2635 13.6967 93.6659 14.3339 93.6131 15.3095L96.5618 15.3094C96.5487 14.3338 95.9818 13.6966 95.1249 13.6967ZM96.5047 16.8299L97.0891 16.8299C96.8562 17.599 96.1267 18.078 95.1335 18.078C93.8327 18.078 93.0154 17.1288 93.0154 15.6347C93.0155 14.1493 93.8417 13.1869 95.1293 13.1869C96.3905 13.1869 97.1639 14.0833 97.1639 15.5291L97.1639 15.784L93.6087 15.7841L93.6087 15.8105C93.6394 16.8783 94.2327 17.5639 95.1467 17.5638C95.8191 17.5638 96.3025 17.2958 96.5047 16.8299ZM100.178 18.0779C98.97 18.0779 98.1746 17.1024 98.1746 15.6346C98.1747 14.1668 98.9789 13.1868 100.179 13.1868C100.899 13.1868 101.506 13.5691 101.774 14.1887L101.827 14.1887L101.827 11.3806L102.402 11.3806L102.402 17.9988L101.848 17.9988L101.848 17.054L101.796 17.054C101.514 17.6868 100.904 18.0779 100.178 18.0779ZM100.302 13.7054C99.3656 13.7054 98.7679 14.4568 98.7679 15.6302C98.7678 16.8079 99.3655 17.555 100.302 17.555C101.233 17.5549 101.835 16.7991 101.835 15.6301C101.835 14.47 101.229 13.7053 100.302 13.7054Z" fill="white"/>
<g clip-path="url(#clip0_11020_41237)">
<path d="M30.0007 10.832C27.709 10.832 25.834 12.707 25.834 14.9987C25.834 17.2904 27.709 19.1654 30.0007 19.1654C32.2923 19.1654 34.1673 17.2904 34.1673 14.9987C34.1673 12.707 32.2923 10.832 30.0007 10.832ZM30.0007 18.332C28.1632 18.332 26.6673 16.8362 26.6673 14.9987C26.6673 13.1612 28.1632 11.6654 30.0007 11.6654C31.8382 11.6654 33.334 13.1612 33.334 14.9987C33.334 16.8362 31.8382 18.332 30.0007 18.332ZM31.9132 13.157L29.1673 15.9029L28.0882 14.8279L27.5007 15.4154L29.1673 17.082L32.5007 13.7487L31.9132 13.157Z" fill="white"/>
</g>
<defs>
<filter id="filter0_d_11020_41237" x="-0.000488281" y="0" width="129" height="35.0039" filterUnits="userSpaceOnUse" color-interpolation-filters="sRGB">
<feFlood flood-opacity="0" result="BackgroundImageFix"/>
<feColorMatrix in="SourceAlpha" type="matrix" values="0 0 0 0 0 0 0 0 0 0 0 0 0 0 0 0 0 0 127 0" result="hardAlpha"/>
<feOffset dy="2"/>
<feGaussianBlur stdDeviation="3.5"/>
<feComposite in2="hardAlpha" operator="out"/>
<feColorMatrix type="matrix" values="0 0 0 0 0 0 0 0 0 0 0 0 0 0 0 0 0 0 0.1 0"/>
<feBlend mode="normal" in2="BackgroundImageFix" result="effect1_dropShadow_11020_41237"/>
<feBlend mode="normal" in="SourceGraphic" in2="effect1_dropShadow_11020_41237" result="shape"/>
</filter>
<clipPath id="clip0_11020_41237">
<rect width="10" height="10" fill="white" transform="translate(25.0005 10)"/>
</clipPath>
</defs>
</svg>
