<svg width="48" height="32" viewBox="0 0 48 32" fill="none" xmlns="http://www.w3.org/2000/svg">
<path d="M44.1699 31.0111H3.77729C2.95323 31.0111 2.16292 30.6845 1.58022 30.1031C0.997523 29.5218 0.670166 28.7333 0.670166 27.9111L0.670166 14.8704H2.90859L3.4135 13.6511H4.54372L5.04733 14.8653H9.45168V13.9417L9.84525 14.8717H12.1316L12.5251 13.9262V14.8691H23.4687V12.8748H23.6758C23.8234 12.88 23.8662 12.8929 23.8662 13.1383V14.8717H29.5276V14.408C30.1063 14.7012 30.7886 14.873 31.5123 14.873L31.6353 14.8717H31.6288H34.0109L34.521 13.6575H35.6512L36.1497 14.8717H40.7404V13.717L41.4344 14.8717H45.106V7.24571H41.4719V8.14601L40.9631 7.24571H37.2268V8.14601L36.7594 7.24571H31.7142C30.9498 7.20717 30.1882 7.36412 29.5017 7.70167L29.5289 7.69005V7.24571H26.0489V7.69005C25.6277 7.3588 25.0957 7.20035 24.5614 7.24701H24.5691H11.8519L10.9988 9.2168L10.1223 7.24701H6.1167V8.1473L5.67523 7.24701H2.25739L0.67405 10.8637V3.11367C0.67405 2.2915 1.00141 1.503 1.58411 0.921641C2.16681 0.340278 2.95712 0.0136719 3.78118 0.0136719H44.1738C44.9979 0.0136719 45.7882 0.340278 46.3709 0.921641C46.9536 1.503 47.2809 2.2915 47.2809 3.11367V16.6503H44.8561C44.8173 16.6478 44.7706 16.6478 44.7253 16.6478C44.1635 16.6478 43.6417 16.8157 43.2067 17.1037L43.2171 17.0973V16.6503H39.6309C39.0707 16.6195 38.5164 16.7783 38.058 17.1011L38.0657 17.096V16.649H31.6625V17.096C31.1383 16.801 30.5463 16.647 29.9445 16.649H29.894H29.8966H25.6722V17.096C25.1203 16.7432 24.4654 16.5863 23.8131 16.6503L23.8247 16.649H19.098L18.0157 17.8167L17.0033 16.649H9.94235V24.2802H16.8712L17.9859 23.0945L19.0359 24.2802H23.3069V22.4938H23.9024C24.475 22.5162 25.0462 22.4208 25.5803 22.2135L25.5518 22.2239V24.2828H29.0732V22.2949H29.2428C29.4577 22.2949 29.4797 22.3027 29.4797 22.5197V24.2841H40.1812L40.3119 24.2867C40.9256 24.2867 41.4978 24.1033 41.9742 23.7894L41.9626 23.7958V24.2841H45.3571L45.5189 24.2867C46.1546 24.2867 46.7592 24.1562 47.3081 23.9198L47.2784 23.9315V27.9124C47.2784 28.7346 46.951 29.523 46.3683 30.1044C45.7856 30.6858 44.9953 31.0124 44.1712 31.0124L44.1699 31.0111ZM27.9935 23.2107H26.6755V17.7405H29.6998C30.246 17.69 30.796 17.7817 31.2961 18.0066L31.2754 17.9988C31.6806 18.221 31.9512 18.6447 31.9512 19.1303L31.9486 19.2169V19.213L31.9499 19.2621C31.9499 19.8898 31.5705 20.4298 31.0268 20.6648L31.0164 20.6687C31.2767 20.7617 31.4942 20.9206 31.656 21.126L31.6586 21.1285C31.8414 21.4304 31.9179 21.7845 31.8761 22.1348L31.8774 22.127V23.2094H30.562V22.5248C30.6243 22.1521 30.5493 21.7695 30.351 21.4476L30.3549 21.454C30.2182 21.3506 30.0619 21.2758 29.8955 21.2343C29.729 21.1928 29.5559 21.1853 29.3865 21.2125L29.3943 21.2112H27.9935V23.2094V23.2107ZM27.9935 18.8707V20.0991H29.5859C29.8107 20.1198 30.037 20.0797 30.2409 19.9828L30.2332 19.9867C30.3165 19.933 30.385 19.8594 30.4325 19.7726C30.48 19.6857 30.5049 19.5884 30.5051 19.4894L30.5038 19.4597V19.461C30.5102 19.3623 30.4884 19.2638 30.441 19.1769C30.3935 19.09 30.3224 19.0183 30.2358 18.9702L30.2332 18.9689C30.0367 18.8812 29.8209 18.8456 29.6066 18.8655H29.6118L27.9935 18.8707ZM16.3094 23.2094H11.1218V17.7405H16.3909L18.0028 19.5333L19.6689 17.7405H23.8545C25.3408 17.7405 26.0632 18.3308 26.0632 19.5424C26.0632 20.7759 25.3162 21.3753 23.7846 21.3753H22.1469V23.2081H19.6003L17.9872 21.4011L16.3107 23.2094H16.3094ZM20.8419 18.3269L18.83 20.484L20.8419 22.7108V18.3269ZM12.4281 20.9813V22.0689H15.6491L17.1379 20.4646L15.7061 18.8707H12.4268V19.8653H15.3034V20.98L12.4281 20.9813ZM22.1469 18.872V20.2644H23.839C24.3568 20.2644 24.6546 20.0009 24.6546 19.5411C24.6546 19.1019 24.3775 18.8707 23.8532 18.8707L22.1469 18.872ZM45.4995 23.212H42.9698V22.0366H45.4892C45.6777 22.0625 45.8688 22.0133 46.0213 21.8997L46.02 21.901C46.0686 21.8559 46.1074 21.8014 46.1339 21.7407C46.1604 21.68 46.1741 21.6145 46.174 21.5483V21.5277C46.1741 21.4623 46.1599 21.3977 46.1324 21.3383C46.1049 21.279 46.0648 21.2264 46.0148 21.1841C45.8808 21.0875 45.7156 21.0442 45.5513 21.0627H45.5539L45.3118 21.0549C44.1285 21.0239 42.7886 20.9878 42.7886 19.3693C42.7886 18.5814 43.2831 17.7405 44.6671 17.7405H47.2784V18.9056H44.8898C44.7053 18.885 44.5189 18.922 44.3564 19.0115L44.3615 19.0089C44.2976 19.0509 44.2462 19.1093 44.2127 19.1779C44.1792 19.2466 44.1649 19.3229 44.1712 19.399V19.3977V19.4119C44.1712 19.499 44.1988 19.5838 44.2499 19.6543C44.301 19.7248 44.3732 19.7774 44.4561 19.8046L44.4586 19.8059C44.6228 19.8564 44.7946 19.8774 44.9661 19.8679H44.9623L45.673 19.886C46.2088 19.8326 46.744 19.9918 47.1631 20.329L47.1593 20.3264C47.1981 20.3574 47.2318 20.391 47.2615 20.4285L47.2628 20.4298L47.2784 22.5119C47.0606 22.7658 46.7837 22.9623 46.4719 23.0841C46.1601 23.206 45.8231 23.2495 45.4905 23.2107L45.4995 23.212ZM40.387 23.212H37.834V22.0366H40.3741C40.5641 22.0614 40.7565 22.0124 40.9113 21.8997L40.9087 21.901C40.9571 21.8558 40.9956 21.8012 41.0219 21.7405C41.0482 21.6798 41.0617 21.6144 41.0615 21.5483V21.5354C41.0615 21.4689 41.0472 21.4032 41.0198 21.3427C40.9923 21.2821 40.9523 21.228 40.9023 21.1841C40.7659 21.0874 40.5986 21.0442 40.4323 21.0627H40.4349L40.1941 21.0549C39.0147 21.0239 37.676 20.9878 37.676 19.3693C37.676 18.5814 38.168 17.7405 39.5494 17.7405H42.1749V18.9056H39.7721C39.5888 18.8852 39.4038 18.9222 39.2426 19.0115L39.2477 19.0089C39.1797 19.0556 39.1256 19.1198 39.0911 19.1946C39.0567 19.2694 39.0431 19.3522 39.0518 19.4341C39.0606 19.516 39.0913 19.594 39.1409 19.6599C39.1904 19.7258 39.2568 19.7771 39.3332 19.8085L39.3358 19.8098C39.5021 19.8606 39.6761 19.8816 39.8497 19.8718H39.8459L40.5514 19.8898C41.09 19.8381 41.6277 19.9974 42.0506 20.3342L42.0467 20.3303C42.189 20.4868 42.2972 20.671 42.3645 20.8713C42.4318 21.0716 42.4567 21.2837 42.4377 21.4941V21.4876C42.4416 22.6282 41.749 23.2094 40.3831 23.2094L40.387 23.212ZM37.0494 23.212H32.6736V17.7392H37.0456V18.8694H33.9812V19.864H36.9743V20.9787H33.9812V22.0663L37.0494 22.0715V23.2081V23.212ZM39.5999 13.8009H36.9316L36.4215 12.5816H33.7002L33.2057 13.8009H31.6728C30.9844 13.8371 30.3066 13.6207 29.7671 13.1925L29.7736 13.1964C29.5173 12.9142 29.3228 12.5818 29.2024 12.2204C29.082 11.859 29.0385 11.4766 29.0745 11.0975L29.0732 11.1078C29.0398 10.7217 29.0855 10.3329 29.2075 9.96493C29.3295 9.59699 29.5251 9.25764 29.7826 8.96751L29.7801 8.97009C30.0519 8.73292 30.3698 8.5541 30.7139 8.44478C31.058 8.33545 31.421 8.29794 31.7803 8.33459L31.7699 8.3333H33.0387V9.49967H31.7958C31.6139 9.4763 31.4292 9.49324 31.2546 9.54928C31.0801 9.60532 30.9201 9.69908 30.786 9.82388L30.7873 9.82259C30.5105 10.1763 30.3761 10.6204 30.4105 11.0678V11.0613C30.3693 11.521 30.4988 11.9797 30.7743 12.3504L30.7705 12.3452C31.0278 12.5551 31.3573 12.6561 31.6884 12.6268H31.6832H32.2709L34.1236 8.32555H36.0914L38.3091 13.4922V8.32555H40.3042L42.606 12.1334V8.32555H43.9524V13.7919H42.083L39.5973 9.68696V13.7919L39.5999 13.8009ZM35.0699 9.25684L34.1676 11.4372H35.9762L35.0699 9.25684ZM22.3838 13.7983H21.0736V8.32942H24.0875C24.6377 8.27246 25.1931 8.36578 25.6942 8.59938L25.6748 8.59163C25.8763 8.7028 26.0442 8.86577 26.1613 9.06361C26.2783 9.26146 26.3401 9.48695 26.3402 9.71667L26.3376 9.80709V9.80321V9.84326C26.3377 10.1416 26.2515 10.4336 26.0894 10.6842C25.9273 10.9349 25.6961 11.1335 25.4236 11.2563L25.4132 11.2602C25.6735 11.3584 25.8923 11.516 26.0593 11.7175L26.0619 11.72C26.2466 12.023 26.3228 12.3796 26.2781 12.7314L26.2794 12.7237V13.797H24.9575L24.9524 13.1073V13.004C24.9994 12.6667 24.9246 12.3238 24.7413 12.0365L24.7452 12.043C24.6081 11.9425 24.4524 11.8701 24.2871 11.8299C24.1217 11.7898 23.9501 11.7827 23.782 11.8092L23.7898 11.8079H22.3851V13.797L22.3838 13.7983ZM22.3838 9.46738V10.6815H23.9736C24.1982 10.7059 24.4251 10.6655 24.6274 10.5653L24.6209 10.5679C24.7039 10.5176 24.7724 10.4468 24.82 10.3625C24.8677 10.2781 24.8927 10.1829 24.8928 10.0861L24.8915 10.0499V10.0512C24.8981 9.95307 24.8757 9.85515 24.8272 9.76953C24.7787 9.68391 24.706 9.61435 24.6183 9.56942L24.6158 9.56813C24.4187 9.4838 24.2042 9.44834 23.9904 9.4648H23.9943L22.3838 9.46738ZM8.51048 13.7983H5.84871L5.3451 12.579H2.616L2.10851 13.7983H0.684407L3.03158 8.32942H4.97742L7.20549 13.5051V8.32942H9.34293L11.057 12.0378L12.6326 8.32942H14.8141V13.7958H13.4676L13.4651 9.51776L11.5658 13.797H10.4162L8.51178 9.5113V13.797L8.51048 13.7983ZM3.97408 9.25684L3.08207 11.4372H4.87126L3.97408 9.25684ZM28.4272 13.797H27.0911V8.32942H28.4285V13.7958L28.4272 13.797ZM20.1596 13.797H15.7915V8.32942H20.1674V9.46609H17.1017V10.4516H20.0936V11.5741H17.0991V12.6668H20.1648V13.7958L20.1596 13.797Z" fill="#2659D5"/>
</svg>
