<svg width="27" height="33" viewBox="0 0 27 33" fill="none" xmlns="http://www.w3.org/2000/svg">
<path d="M24.4037 28.6875C23.055 30.7025 21.625 32.6688 19.4475 32.7013C17.27 32.75 16.5712 31.4175 14.1012 31.4175C11.615 31.4175 10.8512 32.6688 8.7875 32.75C6.65875 32.8313 5.05 30.605 3.685 28.6388C0.906247 24.625 -1.2225 17.2313 1.6375 12.2588C3.05125 9.78875 5.58625 8.22875 8.33249 8.18C10.4125 8.1475 12.395 9.59375 13.6787 9.59375C14.9462 9.59375 17.3512 7.855 19.87 8.115C20.9262 8.16375 23.8837 8.5375 25.785 11.3325C25.6387 11.43 22.2587 13.4125 22.2912 17.5238C22.34 22.4313 26.5975 24.0725 26.6462 24.0888C26.5975 24.2025 25.9637 26.4288 24.4037 28.6875ZM15.125 2.6875C16.3112 1.33875 18.2775 0.315 19.9025 0.25C20.1137 2.15125 19.35 4.06875 18.2125 5.43375C17.0912 6.815 15.2387 7.8875 13.4187 7.74125C13.175 5.8725 14.085 3.9225 15.125 2.6875Z" fill="black"/>
</svg>
