<svg width="40" height="41" viewBox="0 0 40 41" fill="none" xmlns="http://www.w3.org/2000/svg">
<g clip-path="url(#clip0_2765_29461)">
<path d="M36.1382 15.8579C36.1382 15.3091 35.7557 15.0179 35.0544 15.0179H34.7144V16.7466H35.0407C35.7557 16.7466 36.1382 16.4416 36.1382 15.8579ZM36.6657 4.46289H3.33192C2.44785 4.46322 1.6001 4.81456 0.974968 5.43969C0.34984 6.06482 -0.00149976 6.91258 -0.00183105 7.79664V32.2416C-0.00149976 33.1257 0.34984 33.9735 0.974968 34.5986C1.6001 35.2237 2.44785 35.5751 3.33192 35.5754H36.6657C37.5497 35.5751 38.3975 35.2237 39.0226 34.5986C39.6477 33.9735 39.9991 33.1257 39.9994 32.2416V7.79664C39.9991 6.91258 39.6477 6.06482 39.0226 5.43969C38.3975 4.81456 37.5497 4.46322 36.6657 4.46289ZM33.6032 14.1079C35.1732 14.1079 37.2769 13.8229 37.2769 15.8029C37.2769 16.6779 36.8182 17.2404 35.9782 17.4141L37.7694 19.8029H36.4082L34.8669 17.5254H34.7144V19.8029H33.6032V14.1079ZM29.7219 14.1154H32.8682V15.0879H30.8332V16.3516H32.7982V17.3104H30.8332V18.8516H32.8682V19.8104H29.7219V14.1154ZM24.9507 14.1154L26.4719 17.9491L28.0132 14.1154H29.2282L26.7632 19.9629H26.1657L23.7357 14.1154H24.9507ZM21.0682 13.9066C21.475 13.9065 21.8778 13.9865 22.2537 14.1421C22.6296 14.2977 22.9711 14.5258 23.2588 14.8135C23.5465 15.1012 23.7746 15.4427 23.9302 15.8186C24.0858 16.1945 24.1658 16.5973 24.1657 17.0041C24.1658 17.411 24.0858 17.8138 23.9302 18.1897C23.7746 18.5656 23.5465 18.9071 23.2588 19.1948C22.9711 19.4824 22.6296 19.7106 22.2537 19.8662C21.8778 20.0218 21.475 20.1018 21.0682 20.1016C20.6614 20.1018 20.2585 20.0218 19.8826 19.8662C19.5067 19.7106 19.1652 19.4824 18.8775 19.1948C18.5899 18.9071 18.3617 18.5656 18.2061 18.1897C18.0505 17.8138 17.9705 17.411 17.9707 17.0041C17.9705 16.5973 18.0505 16.1945 18.2061 15.8186C18.3617 15.4427 18.5899 15.1012 18.8775 14.8135C19.1652 14.5258 19.5067 14.2977 19.8826 14.1421C20.2585 13.9865 20.6614 13.9065 21.0682 13.9066ZM17.6457 14.3304V15.6504C16.2494 14.2541 14.3957 15.3241 14.3957 16.9704C14.3957 18.7066 16.3057 19.6441 17.6457 18.3041V19.6241C15.5832 20.6179 13.2494 19.2279 13.2494 16.9716C13.2494 14.8054 15.5482 13.2916 17.6457 14.3329V14.3304ZM10.8957 18.9341C11.6869 18.9341 12.4519 17.8716 10.6669 17.2404C9.62567 16.8579 9.26442 16.4491 9.26442 15.6641C9.26442 14.0529 11.3894 13.4829 12.7157 14.6716L12.1319 15.4216C11.4094 14.6154 10.4032 14.9916 10.4032 15.5954C10.4032 15.9004 10.5907 16.0741 11.2569 16.3104C12.5207 16.7691 12.8957 17.1779 12.8957 18.0879C12.8957 20.1366 10.2007 20.6854 8.96567 18.8729L9.68067 18.1854C9.93817 18.6779 10.3682 18.9354 10.8957 18.9354V18.9341ZM3.84692 19.8091H2.22192V14.1141H3.84692C5.65942 14.1141 6.90942 15.2941 6.90942 16.9679C6.90942 18.2529 5.99317 19.8079 3.84692 19.8079V19.8091ZM8.53442 19.8091H7.42317V14.1141H8.53442V19.8091ZM37.7769 32.3091C37.775 32.5847 37.6646 32.8484 37.4698 33.0432C37.2749 33.2381 37.0112 33.3484 36.7357 33.3504H8.88817C22.0544 30.8779 35.4644 23.6841 37.7769 22.2391V32.3091ZM5.14567 15.5454C4.78442 15.2054 4.33942 15.0866 3.62442 15.0866H3.33317V18.8504H3.62442C4.33942 18.8504 4.80442 18.7116 5.14567 18.4066C5.54192 18.0454 5.76317 17.5179 5.76317 16.9691C5.76317 16.4204 5.54067 15.8929 5.14567 15.5454Z" fill="#4D4D4D"/>
</g>
<defs>
<clipPath id="clip0_2765_29461">
<rect width="40" height="40" fill="white" transform="translate(-0.000610352 0.0175781)"/>
</clipPath>
</defs>
</svg>
