<svg width="9" height="17" viewBox="0 0 9 17" fill="none" xmlns="http://www.w3.org/2000/svg">
<path d="M4.16569 16.6667C3.01291 16.6667 2.03014 16.2603 1.21736 15.4475C0.404579 14.6347 -0.00153155 13.6522 -0.000975993 12.5V4.16667C-0.000975993 3.01389 0.405413 2.03111 1.21819 1.21833C2.03097 0.405556 3.01347 -0.000554986 4.16569 5.69217e-07C5.31847 5.69217e-07 6.30125 0.406389 7.11402 1.21917C7.9268 2.03195 8.33291 3.01445 8.33236 4.16667V12.5C8.33236 13.6528 7.92597 14.6356 7.11319 15.4483C6.30041 16.2611 5.31791 16.6672 4.16569 16.6667ZM4.16569 15C4.86014 15 5.45041 14.7569 5.93652 14.2708C6.42264 13.7847 6.66569 13.1944 6.66569 12.5V4.16667C6.66569 3.47222 6.42264 2.88195 5.93652 2.39583C5.45041 1.90972 4.86014 1.66667 4.16569 1.66667C3.47125 1.66667 2.88097 1.90972 2.39486 2.39583C1.90875 2.88195 1.66569 3.47222 1.66569 4.16667V12.5C1.66569 13.1944 1.90875 13.7847 2.39486 14.2708C2.88097 14.7569 3.47125 15 4.16569 15ZM4.16569 13.3333C4.62402 13.3333 5.01652 13.17 5.34319 12.8433C5.66986 12.5167 5.83291 12.1244 5.83236 11.6667C5.83236 11.2083 5.66902 10.8158 5.34236 10.4892C5.01569 10.1625 4.62347 9.99945 4.16569 10C3.70736 10 3.31486 10.1633 2.98819 10.49C2.66152 10.8167 2.49847 11.2089 2.49902 11.6667C2.49902 12.125 2.66236 12.5175 2.98902 12.8442C3.31569 13.1708 3.70791 13.3339 4.16569 13.3333ZM4.16569 12.5C3.92958 12.5 3.73152 12.42 3.57152 12.26C3.41152 12.1 3.3318 11.9022 3.33236 11.6667C3.33236 11.4306 3.41236 11.2325 3.57236 11.0725C3.73236 10.9125 3.93014 10.8328 4.16569 10.8333C4.4018 10.8333 4.59986 10.9133 4.75986 11.0733C4.91986 11.2333 4.99958 11.4311 4.99902 11.6667C4.99902 11.9028 4.91902 12.1008 4.75902 12.2608C4.59902 12.4208 4.40125 12.5006 4.16569 12.5ZM4.16569 6.66667C4.62402 6.66667 5.01652 6.50333 5.34319 6.17667C5.66986 5.85 5.83291 5.45778 5.83236 5C5.83236 4.54167 5.66902 4.14917 5.34236 3.8225C5.01569 3.49583 4.62347 3.33278 4.16569 3.33333C3.70736 3.33333 3.31486 3.49667 2.98819 3.82333C2.66152 4.15 2.49847 4.54222 2.49902 5C2.49902 5.45833 2.66236 5.85083 2.98902 6.1775C3.31569 6.50417 3.70791 6.66722 4.16569 6.66667Z" fill="#2D3E52"/>
</svg>
