<svg width="16" height="17" viewBox="0 0 16 17" fill="none" xmlns="http://www.w3.org/2000/svg">
<path d="M12.944 16.6406H0.264021C0.194991 16.6415 0.128412 16.6151 0.0789085 16.5672C0.0294048 16.5193 0.00102406 16.4538 0 16.3851V4.12268C0.000506834 4.08863 0.00774843 4.055 0.0213113 4.02373C0.0348742 3.99246 0.054493 3.96415 0.0790465 3.94043C0.1036 3.91671 0.132608 3.89803 0.164413 3.88547C0.196218 3.87291 0.230197 3.8667 0.26441 3.86722H12.944C12.9782 3.8667 13.0122 3.87291 13.044 3.88547C13.0758 3.89803 13.1048 3.91671 13.1294 3.94043C13.1539 3.96415 13.1736 3.99246 13.1871 4.02373C13.2007 4.055 13.2079 4.08863 13.2084 4.12268V16.3851C13.2079 16.4191 13.2007 16.4528 13.1871 16.484C13.1736 16.5153 13.1539 16.5436 13.1294 16.5673C13.1048 16.5911 13.0758 16.6097 13.044 16.6223C13.0122 16.6349 12.9782 16.6411 12.944 16.6406Z" fill="#D9D9D9"/>
<path d="M4.18354 8.00602C3.46419 6.99576 1.78053 7.96344 2.50376 8.98144C3.74416 10.7271 4.78624 12.5618 5.57947 14.5475C5.9061 15.3565 7.22426 15.5733 7.45756 14.5475C8.55797 9.67042 10.6499 4.0308 15.4987 1.77418C16.6302 1.24776 15.6465 -0.420516 14.5189 0.10203C10.0744 2.17286 7.6442 6.82158 6.26383 11.4239C5.65483 10.2357 4.95956 9.09341 4.18354 8.00602Z" fill="#7E8699"/>
</svg>
