<svg width="43" height="33" viewBox="0 0 43 33" fill="none" xmlns="http://www.w3.org/2000/svg">
<g clip-path="url(#clip0_2765_29472)">
<path d="M42.6667 26.2363C42.6667 29.8875 39.6935 32.8607 36.0423 32.8607H0V6.62433C0 2.97317 2.97317 0 6.62433 0H42.6667V26.2363Z" fill="white"/>
<path d="M30.9307 19.5076H33.669C33.7473 19.5076 33.9298 19.4816 34.0082 19.4816C34.5298 19.3772 34.9732 18.9077 34.9732 18.2557C34.9732 17.6299 34.5298 17.1604 34.0082 17.0301C33.9298 17.0039 33.7735 17.0039 33.6692 17.0039H30.9308V19.5076H30.9307Z" fill="url(#paint0_linear_2765_29472)"/>
<path d="M33.3562 2.2168C30.7482 2.2168 28.6095 4.32946 28.6095 6.96346V11.8926H35.3122C35.4687 11.8926 35.6512 11.8926 35.7815 11.9186C37.2942 11.997 38.4157 12.7793 38.4157 14.1353C38.4157 15.2046 37.6593 16.1175 36.251 16.3001V16.3521C37.7897 16.4565 38.9633 17.3171 38.9633 18.6471C38.9633 20.0816 37.6593 21.0205 35.938 21.0205H28.5835V30.6701H35.5468C38.1548 30.6701 40.2935 28.5576 40.2935 25.9235V2.2168H33.3562Z" fill="url(#paint1_linear_2765_29472)"/>
<path d="M34.634 14.4484C34.634 13.8224 34.1907 13.4051 33.669 13.3268C33.617 13.3268 33.4865 13.3008 33.4083 13.3008H30.9307V15.5958H33.4083C33.4867 15.5958 33.643 15.5958 33.6692 15.5698C34.1908 15.4914 34.6342 15.0743 34.6342 14.4483L34.634 14.4484Z" fill="url(#paint2_linear_2765_29472)"/>
<path d="M7.11983 2.2168C4.51184 2.2168 2.37317 4.32946 2.37317 6.96346V18.6735C3.70333 19.3253 5.0855 19.7426 6.46783 19.7426C8.11083 19.7426 8.9975 18.7516 8.9975 17.3955V11.8665H13.066V17.3693C13.066 19.5078 11.736 21.2553 7.22417 21.2553C4.48583 21.2553 2.34717 20.6553 2.34717 20.6553V30.644H9.3105C11.9185 30.644 14.0572 28.5315 14.0572 25.8973V2.21713H7.11967L7.11983 2.2168Z" fill="url(#paint3_linear_2765_29472)"/>
<path d="M20.238 2.2168C17.63 2.2168 15.4913 4.32946 15.4913 6.96346V13.1705C16.6912 12.1533 18.7775 11.5013 22.1418 11.6578C23.9413 11.7361 25.8712 12.2316 25.8712 12.2316V14.2398C24.9062 13.7443 23.7588 13.3008 22.2722 13.1965C19.7163 13.014 18.1777 14.2658 18.1777 16.4565C18.1777 18.6733 19.7163 19.9251 22.2722 19.7165C23.7588 19.6121 24.9063 19.1428 25.8712 18.6733V20.6815C25.8712 20.6815 23.9673 21.177 22.1418 21.2553C18.7775 21.4116 16.6912 20.7596 15.4915 19.7426V30.6961H22.4548C25.0628 30.6961 27.2013 28.5836 27.2013 25.9495V2.21713H20.238V2.2168Z" fill="url(#paint4_linear_2765_29472)"/>
</g>
<defs>
<linearGradient id="paint0_linear_2765_29472" x1="28.6051" y1="18.2588" x2="40.3251" y2="18.2588" gradientUnits="userSpaceOnUse">
<stop stop-color="#007940"/>
<stop offset="0.2285" stop-color="#00873F"/>
<stop offset="0.7433" stop-color="#40A737"/>
<stop offset="1" stop-color="#5CB531"/>
</linearGradient>
<linearGradient id="paint1_linear_2765_29472" x1="28.6049" y1="16.4321" x2="40.3255" y2="16.4321" gradientUnits="userSpaceOnUse">
<stop stop-color="#007940"/>
<stop offset="0.2285" stop-color="#00873F"/>
<stop offset="0.7433" stop-color="#40A737"/>
<stop offset="1" stop-color="#5CB531"/>
</linearGradient>
<linearGradient id="paint2_linear_2765_29472" x1="28.6048" y1="14.445" x2="40.3254" y2="14.445" gradientUnits="userSpaceOnUse">
<stop stop-color="#007940"/>
<stop offset="0.2285" stop-color="#00873F"/>
<stop offset="0.7433" stop-color="#40A737"/>
<stop offset="1" stop-color="#5CB531"/>
</linearGradient>
<linearGradient id="paint3_linear_2765_29472" x1="2.36778" y1="16.4321" x2="14.2689" y2="16.4321" gradientUnits="userSpaceOnUse">
<stop stop-color="#1F286F"/>
<stop offset="0.4751" stop-color="#004E94"/>
<stop offset="0.8261" stop-color="#0066B1"/>
<stop offset="1" stop-color="#006FBC"/>
</linearGradient>
<linearGradient id="paint4_linear_2765_29472" x1="15.4239" y1="16.432" x2="26.9827" y2="16.432" gradientUnits="userSpaceOnUse">
<stop stop-color="#6C2C2F"/>
<stop offset="0.1735" stop-color="#882730"/>
<stop offset="0.5731" stop-color="#BE1833"/>
<stop offset="0.8585" stop-color="#DC0436"/>
<stop offset="1" stop-color="#E60039"/>
</linearGradient>
<clipPath id="clip0_2765_29472">
<rect width="42.6667" height="33" fill="white"/>
</clipPath>
</defs>
</svg>
