<svg width="41" height="32" viewBox="0 0 41 32" fill="none" xmlns="http://www.w3.org/2000/svg">
<g clip-path="url(#clip0_2765_29488)">
<path d="M14.9333 2.71875H26.0016V22.6988H14.9333V2.71875Z" fill="#FF5F00"/>
<path d="M15.6362 12.7082C15.6362 8.64868 17.5336 5.04796 20.4499 2.71807C18.3067 1.02368 15.6011 0 12.6496 0C5.65704 0 0 5.6833 0 12.7082C0 19.7329 5.65704 25.4164 12.6495 25.4164C15.601 25.4164 18.3065 24.3927 20.4499 22.6981C17.5336 20.4036 15.6362 16.7677 15.6362 12.7082Z" fill="#EB001B"/>
<path d="M40.935 12.7082C40.935 19.7329 35.2779 25.4164 28.2855 25.4164C25.334 25.4164 22.6285 24.3927 20.4851 22.6981C23.4366 20.3684 25.2989 16.7677 25.2989 12.7082C25.2989 8.64868 23.4014 5.04796 20.4851 2.71807C22.6283 1.02368 25.334 0 28.2855 0C35.2779 0 40.9351 5.71867 40.9351 12.7082H40.935Z" fill="#F79E1B"/>
</g>
<defs>
<clipPath id="clip0_2765_29488">
<rect width="40.9756" height="32" fill="white"/>
</clipPath>
</defs>
</svg>
