<svg width="65" height="64" viewBox="0 0 65 64" fill="none" xmlns="http://www.w3.org/2000/svg">
<path d="M47.3278 18.5728L43.1045 18.573L43.1046 19.8617L47.3278 19.8615L47.3278 18.5728Z" fill="#0082B0"/>
<path d="M47.736 17.3877C47.3558 17.3877 47.0488 17.6947 47.0489 18.0749L47.049 20.4935C47.049 20.8737 47.356 21.1807 47.7362 21.1807C48.1164 21.1807 48.4234 20.8719 48.4234 20.4935L48.4233 18.0766C48.4233 17.6964 48.1145 17.3876 47.736 17.3877Z" fill="#0082B0"/>
<path d="M35.6334 40.6391L29.2557 40.6395C23.4045 40.6398 18.6438 35.8795 18.6435 30.0284L18.6426 12.5929C18.6426 12.3055 18.8746 12.0735 19.162 12.0735C19.4494 12.0734 19.6814 12.3055 19.6815 12.5929L19.6823 30.0284C19.6826 35.3083 23.9775 39.6027 29.2574 39.6024L35.6352 39.6021C40.9151 39.6018 45.2096 35.307 45.2093 30.0271L45.2084 12.5916C45.2084 12.3042 45.4405 12.0722 45.7278 12.0721C46.0152 12.0721 46.2473 12.3042 46.2473 12.5915L46.2482 30.027C46.2449 35.8781 41.4846 40.6389 35.6334 40.6391Z" fill="#0082B0"/>
<path d="M46.6845 16.1415L44.6104 16.1416L44.6107 22.3622L46.6848 22.3621L46.6845 16.1415Z" fill="#0082B0"/>
<path d="M17.518 19.8625L21.7412 19.8623L21.7411 18.5736L17.5179 18.5738L17.518 19.8625Z" fill="#0082B0"/>
<path d="M17.112 17.3894C17.4922 17.3894 17.7993 17.6963 17.7993 18.0765L17.7994 20.4952C17.7994 20.8754 17.4924 21.1824 17.1122 21.1824C16.732 21.1824 16.425 20.8754 16.425 20.4952L16.4248 18.0784C16.4248 17.6982 16.7318 17.3894 17.112 17.3894Z" fill="#0082B0"/>
<path d="M18.1651 22.3624L20.2393 22.3623L20.2389 16.1417L18.1648 16.1418L18.1651 22.3624Z" fill="#0082B0"/>
<path d="M42.7647 9.20185L22.084 9.20288L22.085 29.2016L42.7657 29.2005L42.7647 9.20185Z" fill="#0082B0"/>
<path d="M22.4184 9.50191L21.6455 9.50195L21.6465 29.124L22.4194 29.124L22.4184 9.50191Z" fill="#0082B0"/>
<path d="M43.1264 9.50069L42.3535 9.50073L42.3545 29.1228L43.1274 29.1228L43.1264 9.50069Z" fill="#0082B0"/>
<path d="M30.8575 37.1925L33.958 37.1923C38.9667 37.1921 43.0648 33.2989 43.3966 28.3741L21.4199 28.3752C21.7522 33.2999 25.8489 37.1927 30.8575 37.1925Z" fill="white"/>
<path d="M43.4174 14.9391L21.3926 14.9402L21.3927 16.8376L43.4175 16.8365L43.4174 14.9391Z" fill="white"/>
<path d="M43.4174 25.0153L21.3926 25.0164L21.3927 26.9138L43.4175 26.9127L43.4174 25.0153Z" fill="white"/>
<path d="M43.4174 11.5819L21.3926 11.583L21.3927 13.4804L43.4175 13.4793L43.4174 11.5819Z" fill="white"/>
<path d="M33.9551 0.991806L30.8546 0.991961C25.7406 0.992215 21.5783 5.04964 21.4018 10.1207L43.4088 10.1196C43.2336 5.04856 39.0691 0.991551 33.9551 0.991806Z" fill="white"/>
<path d="M43.4174 18.298L21.3926 18.2991L21.3927 20.1965L43.4175 20.1954L43.4174 18.298Z" fill="white"/>
<path d="M43.4174 21.6574L21.3926 21.6584L21.3927 23.5559L43.4175 23.5548L43.4174 21.6574Z" fill="white"/>
<path d="M27.3835 30.9316C26.9176 30.9316 26.541 31.3083 26.5411 31.7741L26.5413 36.1544C27.075 36.4293 27.6408 36.6524 28.2281 36.8219L28.2279 31.7741C28.2261 31.3082 27.8494 30.9316 27.3835 30.9316Z" fill="#0082B0"/>
<path d="M30.7468 30.9314C30.2809 30.9314 29.9043 31.308 29.9043 31.7739L29.9046 37.1448C30.217 37.1752 30.5347 37.193 30.856 37.193L31.5914 37.193L31.5911 31.7738C31.5893 31.3079 31.2127 30.9313 30.7468 30.9314Z" fill="#0082B0"/>
<path d="M34.1081 30.9311C33.6423 30.9311 33.2656 31.3078 33.2657 31.7737L33.2659 37.1928L33.9532 37.1928C34.2905 37.1927 34.6243 37.1731 34.9527 37.1392L34.9525 31.7736C34.9524 31.3077 34.574 30.9311 34.1081 30.9311Z" fill="#0082B0"/>
<path d="M37.4714 30.9311C37.0055 30.9311 36.6289 31.3078 36.6289 31.7737L36.6292 36.809C37.2164 36.6359 37.7805 36.4074 38.316 36.1289L38.3158 31.7736C38.3157 31.3077 37.9373 30.9311 37.4714 30.9311Z" fill="#0082B0"/>
<path d="M27.3817 7.77684C27.8476 7.77682 28.2242 7.40018 28.2242 6.9343L28.2239 1.36344C27.6367 1.53304 27.0726 1.75797 26.5371 2.03289L26.5374 6.93439C26.5374 7.40026 26.9158 7.77687 27.3817 7.77684Z" fill="#0082B0"/>
<path d="M30.745 7.77654C31.2109 7.77651 31.5875 7.39987 31.5875 6.93399L31.5872 0.991859L30.8518 0.991896C30.5305 0.991912 30.2128 1.00799 29.9004 1.04014L29.9007 6.93408C29.9025 7.39995 30.2791 7.77656 30.745 7.77654Z" fill="#0082B0"/>
<path d="M34.1083 7.77654C34.5742 7.77651 34.9508 7.39987 34.9508 6.93399L34.9505 1.04541C34.622 1.01151 34.2883 0.991892 33.9509 0.991909L33.2637 0.991943L33.264 6.93408C33.2658 7.39995 33.6424 7.77656 34.1083 7.77654Z" fill="#0082B0"/>
<path d="M37.4716 7.77648C37.9374 7.77646 38.3141 7.39981 38.314 6.93394L38.3138 2.05743C37.7801 1.779 37.216 1.55055 36.627 1.37744L36.6272 6.93402C36.629 7.3999 37.0057 7.77651 37.4716 7.77648Z" fill="#0082B0"/>
<path d="M33.7977 48.09L31.0596 48.0901L31.0599 55.6191L33.7981 55.6189L33.7977 48.09Z" fill="#0082B0"/>
<path d="M45.5935 59.2114L19.2669 59.2128C17.7336 59.2128 16.4913 60.4552 16.4913 61.9885L16.4914 62.4972L48.3711 62.4956L48.3711 61.9869C48.3692 60.4554 47.1268 59.2114 45.5935 59.2114Z" fill="#0082B0"/>
<path d="M38.1944 59.2703L26.758 59.2709L27.5825 55.8937C27.7467 55.2208 28.3482 54.7477 29.0408 54.7477L35.913 54.7473C36.6055 54.7473 37.2071 55.2203 37.3714 55.8932L38.1944 59.2703Z" fill="#0082B0"/>
<path d="M29.4463 41.1252L29.4466 46.4355C29.4466 47.5797 30.3748 48.5078 31.5208 48.5077L33.2397 48.5077C34.3839 48.5076 35.3138 47.5794 35.3138 46.4352L35.3135 41.125L29.4463 41.1252Z" fill="#0082B0"/>
<path d="M36.08 38.2813L28.8205 38.2817C28.3403 38.2817 27.9512 38.6709 27.9512 39.151L27.9513 40.9003C27.9513 41.3804 28.3405 41.7695 28.8206 41.7695L36.0784 41.7691C36.5585 41.7691 36.9476 41.38 36.9476 40.8998L36.9475 39.1506C36.9493 38.6704 36.5601 38.2813 36.08 38.2813Z" fill="#0082B0"/>
<path opacity="0.22" d="M47.7372 21.1809C48.1174 21.1808 48.4244 20.872 48.4244 20.4936L48.4243 18.0768C48.4242 17.6966 48.1172 17.3896 47.737 17.3896C47.3568 17.3896 47.0498 17.6967 47.0498 18.0769L47.0498 18.5749L46.6839 18.5749L46.6838 16.142L46.2447 16.142L46.2445 12.5917C46.2445 12.3043 46.0124 12.0723 45.7251 12.0723C45.4377 12.0723 45.2056 12.3044 45.2057 12.5918L45.2058 16.1403L44.6097 16.1403L44.6098 18.5732L43.4156 18.5733L43.4156 18.2984L43.1264 18.2984L43.1264 16.8383L43.4155 16.8383L43.4154 14.9391L43.1263 14.9391L43.1262 13.479L43.4154 13.479L43.4153 11.5816L43.1261 11.5816L43.126 10.1197L43.4063 10.1197C43.2794 6.44981 41.0623 3.31196 37.9081 1.85738C37.9063 1.85738 37.9063 1.85559 37.9046 1.85559C37.7689 1.79312 37.6297 1.73244 37.4904 1.67712C37.2102 1.56289 36.921 1.46295 36.6283 1.37729C35.9357 1.17383 35.211 1.04535 34.4631 1.00612C34.4595 1.00612 34.4577 1.00612 34.4542 1.00612C34.2882 0.997205 34.1204 0.991859 33.9526 0.991867L33.2654 0.991901L32.4246 0.991943L32.4264 37.1927L33.2672 37.1927L33.9544 37.1926C34.1222 37.1926 34.29 37.1873 34.456 37.1783C34.4595 37.1783 34.4649 37.1783 34.4685 37.1766C34.6309 37.1676 34.7933 37.1551 34.954 37.1373C35.5305 37.0765 36.091 36.9658 36.63 36.807C40.3535 35.7108 43.1218 32.3853 43.3911 28.3727L43.1269 28.3727L43.1269 26.9108L43.416 26.9108L43.4159 25.0134L43.1268 25.0134L43.1267 23.5515L43.4159 23.5515L43.4158 21.6541L43.1266 21.6541L43.1265 20.1922L43.4157 20.1922L43.4157 19.8584L44.6098 19.8584L44.61 22.3591L45.2061 22.3591L45.2065 30.0237C45.2068 34.8556 41.6085 38.8612 36.9497 39.5058L36.9497 39.147C36.9496 38.6669 36.5605 38.2778 36.0803 38.2778L32.4247 38.278L32.4259 62.4927L48.3693 62.4919C48.3693 60.6784 46.8984 59.2095 45.0866 59.2096L38.1805 59.2099L37.37 55.8899C37.2057 55.217 36.6042 54.744 35.9116 54.7441L33.8017 54.7442L33.8014 48.4254C34.6743 48.1808 35.3133 47.3811 35.3132 46.4315L35.313 41.7674L36.0805 41.7674C36.5607 41.7674 36.9498 41.3782 36.9498 40.8981L36.9497 40.5518C42.1815 39.9 46.2439 35.4285 46.2436 30.0236L46.2432 22.359L46.6823 22.359L46.6822 19.8583L47.0481 19.8582L47.0482 20.4901C47.0482 20.8739 47.357 21.1809 47.7372 21.1809Z" fill="#0082B0"/>
</svg>
