<svg width="124" height="36" viewBox="0 0 124 36" fill="none" xmlns="http://www.w3.org/2000/svg">
<g filter="url(#filter0_d_10939_41311)">
<path d="M7.00098 5.00781H91.5823C103.996 5.00781 114.661 13.8209 117.001 26.0117L7.00098 26.0078L19.6711 15.5117L7.00098 5.00781Z" fill="#FF0000"/>
</g>
<path d="M40.4197 19L39.8176 19L39.8178 12.6587L40.4199 12.6587L40.4197 19ZM41.9798 18.9999L41.9799 14.267L42.5292 14.267L42.5292 15.1196L42.5863 15.1196C42.8368 14.5351 43.3598 14.1879 44.1156 14.1879C45.1703 14.1879 45.7724 14.8207 45.7723 15.9237L45.7722 18.9999L45.1965 18.9999L45.1966 16.0687C45.1967 15.1679 44.7836 14.7064 43.9618 14.7065C43.1268 14.7065 42.5555 15.2953 42.5555 16.1874L42.5554 18.9999L41.9798 18.9999ZM50.7689 14.2669L49.0022 18.9998L48.387 18.9998L46.6205 14.267L47.2357 14.2669L48.6682 18.3714L48.721 18.3714L50.1493 14.2669L50.7689 14.2669ZM51.8323 18.9998L51.8324 14.2669L52.4081 14.2668L52.408 18.9998L51.8323 18.9998ZM52.1181 13.2122C51.8852 13.2122 51.6918 13.0188 51.6918 12.7815C51.6919 12.5486 51.8852 12.3552 52.1181 12.3552C52.3554 12.3552 52.5488 12.5486 52.5488 12.7815C52.5488 13.0188 52.3554 13.2122 52.1181 13.2122ZM54.2143 13.0363L54.79 13.0363L54.7899 14.2668L55.8842 14.2668L55.8842 14.7546L54.7899 14.7546L54.7898 17.6901C54.7898 18.2702 55.0096 18.5163 55.5413 18.5163C55.6336 18.5163 55.7874 18.5119 55.8841 18.5031L55.884 18.9953C55.783 19.0129 55.5808 19.0261 55.4798 19.0261C54.5745 19.0261 54.2141 18.6833 54.2142 17.822L54.2142 14.7546L53.4408 14.7546L53.4408 14.2668L54.2143 14.2668L54.2143 13.0363ZM58.8812 14.6974C58.0199 14.6974 57.4222 15.3346 57.3695 16.3102L60.3182 16.3102C60.3051 15.3346 59.7382 14.6974 58.8812 14.6974ZM60.261 17.8307L60.8455 17.8307C60.6126 18.5997 59.8831 19.0787 58.8899 19.0787C57.5891 19.0788 56.7718 18.1296 56.7718 16.6354C56.7719 15.1501 57.5981 14.1877 58.8857 14.1876C60.1469 14.1876 60.9203 15.0841 60.9203 16.5299L60.9202 16.7848L57.3651 16.7848L57.3651 16.8112C57.3958 17.8791 57.989 18.5646 58.9031 18.5646C59.5755 18.5646 60.0589 18.2965 60.261 17.8307ZM64.6733 12.6582L66.9277 12.6582C68.1406 12.6582 68.9579 13.4623 68.9579 14.6445C68.9579 15.809 68.1273 16.6088 66.9188 16.6089L65.2752 16.6089L65.2752 18.9995L64.6731 18.9995L64.6733 12.6582ZM65.2753 13.1943L65.2752 16.0728L66.7826 16.0727C67.7582 16.0727 68.347 15.5366 68.3471 14.6445C68.3471 13.7304 67.7714 13.1943 66.7827 13.1943L65.2753 13.1943ZM71.8891 14.6972C71.0277 14.6972 70.4301 15.3344 70.3773 16.31L73.326 16.3099C73.3129 15.3343 72.746 14.6971 71.8891 14.6972ZM73.2688 17.8304L73.8533 17.8304C73.6204 18.5995 72.8909 19.0785 71.8977 19.0785C70.5969 19.0785 69.7796 18.1293 69.7796 16.6352C69.7797 15.1498 70.6059 14.1874 71.8935 14.1874C73.1547 14.1874 73.9281 15.0838 73.9281 16.5296L73.9281 16.7845L70.3729 16.7846L70.3729 16.811C70.4036 17.8788 70.9969 18.5644 71.9109 18.5643C72.5833 18.5643 73.0667 18.2963 73.2688 17.8304ZM75.176 18.9993L75.1762 14.2664L75.7255 14.2664L75.7255 15.119L75.7826 15.119C76.0331 14.5345 76.5561 14.1873 77.3119 14.1873C78.3666 14.1873 78.9686 14.8201 78.9686 15.9231L78.9685 18.9993L78.3928 18.9993L78.3929 16.0681C78.3929 15.1673 77.9799 14.7058 77.1581 14.7059C76.3231 14.7059 75.7518 15.2947 75.7518 16.1868L75.7517 18.9993L75.176 18.9993ZM82.1809 19.0783C80.9724 19.0783 80.177 18.1028 80.1771 16.635C80.1771 15.1672 80.9814 14.1872 82.1811 14.1872C82.9018 14.1872 83.5082 14.5695 83.7762 15.1891L83.829 15.1891L83.8291 12.381L84.4047 12.381L84.4046 18.9992L83.8508 18.9992L83.8509 18.0544L83.7981 18.0544C83.5169 18.6872 82.906 19.0783 82.1809 19.0783ZM82.3041 14.7058C81.3681 14.7058 80.7704 15.4572 80.7703 16.6306C80.7703 17.8083 81.3679 18.5554 82.304 18.5554C83.2356 18.5553 83.8377 17.7995 83.8377 16.6305C83.8378 15.4704 83.2313 14.7057 82.3041 14.7058ZM85.9602 18.9991L85.9604 14.2662L86.536 14.2662L86.5359 18.9991L85.9602 18.9991ZM86.246 13.2115C86.0131 13.2115 85.8198 13.0182 85.8198 12.7809C85.8198 12.548 86.0131 12.3546 86.2461 12.3546C86.4834 12.3546 86.6767 12.548 86.6767 12.7809C86.6767 13.0182 86.4833 13.2115 86.246 13.2115ZM88.0432 18.9991L88.0434 14.2662L88.5927 14.2662L88.5927 15.1187L88.6498 15.1187C88.9003 14.5343 89.4232 14.1871 90.1791 14.1871C91.2338 14.187 91.8358 14.8198 91.8358 15.9229L91.8357 18.999L91.26 18.9991L91.2601 16.0679C91.2601 15.167 90.8471 14.7056 90.0253 14.7056C89.1903 14.7056 88.619 15.2945 88.619 16.1866L88.6189 18.9991L88.0432 18.9991ZM95.1536 18.4365C96.1028 18.4365 96.6917 17.7026 96.6917 16.582C96.6918 15.457 96.0897 14.7055 95.1537 14.7055C94.2089 14.7055 93.6376 15.4482 93.6375 16.5732C93.6375 17.6938 94.2088 18.4365 95.1536 18.4365ZM95.2019 20.7744C94.1164 20.7744 93.3957 20.291 93.2727 19.5527L93.8835 19.5527C93.989 19.9878 94.4812 20.269 95.2019 20.269C96.1159 20.269 96.6829 19.79 96.6829 19.0253L96.6829 17.9618L96.6258 17.9618C96.3445 18.5859 95.7644 18.9506 95.0393 18.9506C93.822 18.9507 93.0442 17.9927 93.0443 16.5732C93.0443 15.1538 93.8266 14.187 95.0395 14.187C95.7646 14.187 96.393 14.5868 96.6522 15.2021L96.705 15.2021L96.705 14.266L97.2587 14.266L97.2586 19.0693C97.2585 20.0976 96.4455 20.7743 95.2019 20.7744Z" fill="white"/>
<path d="M31.5005 19.5C30.4396 19.5 29.4222 19.0786 28.6721 18.3284C27.9219 17.5783 27.5005 16.5609 27.5005 15.5C27.5005 14.4391 27.9219 13.4217 28.6721 12.6716C29.4222 11.9214 30.4396 11.5 31.5005 11.5" stroke="white"/>
<mask id="path-4-inside-1_10939_41311" fill="white">
<path d="M31.5005 11C32.694 11 33.8386 11.4741 34.6825 12.318C35.5264 13.1619 36.0005 14.3065 36.0005 15.5C36.0005 16.6935 35.5264 17.8381 34.6825 18.682C33.8386 19.5259 32.694 20 31.5005 20L31.5005 19.0068C32.4306 19.0068 33.3225 18.6374 33.9802 17.9797C34.6379 17.3221 35.0073 16.4301 35.0073 15.5C35.0073 14.5699 34.6379 13.6779 33.9802 13.0203C33.3225 12.3626 32.4306 11.9932 31.5005 11.9932L31.5005 11Z"/>
</mask>
<path d="M31.5005 11C32.694 11 33.8386 11.4741 34.6825 12.318C35.5264 13.1619 36.0005 14.3065 36.0005 15.5C36.0005 16.6935 35.5264 17.8381 34.6825 18.682C33.8386 19.5259 32.694 20 31.5005 20L31.5005 19.0068C32.4306 19.0068 33.3225 18.6374 33.9802 17.9797C34.6379 17.3221 35.0073 16.4301 35.0073 15.5C35.0073 14.5699 34.6379 13.6779 33.9802 13.0203C33.3225 12.3626 32.4306 11.9932 31.5005 11.9932L31.5005 11Z" stroke="white" stroke-width="2" stroke-dasharray="3 3" mask="url(#path-4-inside-1_10939_41311)"/>
<path d="M31.5005 13.5V16H34.0005" stroke="white"/>
<defs>
<filter id="filter0_d_10939_41311" x="0.000976562" y="0.0078125" width="124" height="35.0039" filterUnits="userSpaceOnUse" color-interpolation-filters="sRGB">
<feFlood flood-opacity="0" result="BackgroundImageFix"/>
<feColorMatrix in="SourceAlpha" type="matrix" values="0 0 0 0 0 0 0 0 0 0 0 0 0 0 0 0 0 0 127 0" result="hardAlpha"/>
<feOffset dy="2"/>
<feGaussianBlur stdDeviation="3.5"/>
<feComposite in2="hardAlpha" operator="out"/>
<feColorMatrix type="matrix" values="0 0 0 0 0 0 0 0 0 0 0 0 0 0 0 0 0 0 0.1 0"/>
<feBlend mode="normal" in2="BackgroundImageFix" result="effect1_dropShadow_10939_41311"/>
<feBlend mode="normal" in="SourceGraphic" in2="effect1_dropShadow_10939_41311" result="shape"/>
</filter>
</defs>
</svg>
