<svg width="63" height="56" viewBox="0 0 63 56" fill="none" xmlns="http://www.w3.org/2000/svg">
<path d="M58.1573 55.6036C60.8338 55.6035 63.0034 53.4336 63.0033 50.7571C63.0032 48.0806 60.8333 45.9109 58.1568 45.9111C55.4803 45.9112 53.3107 48.081 53.3108 50.7576C53.3109 53.4341 55.4808 55.6037 58.1573 55.6036Z" fill="#0082B0"/>
<path d="M36.3451 4.71875C36.3452 7.39632 34.1765 7.14199 31.499 7.14213C28.8214 7.14226 26.6527 7.3968 26.6526 4.71924C26.6525 2.04167 28.821 -0.127138 31.4986 -0.127272C34.1762 -0.127405 36.345 2.04119 36.3451 4.71875Z" fill="#0082B0"/>
<path d="M4.84869 55.6063C7.5252 55.6061 9.69484 53.4363 9.69471 50.7598C9.69457 48.0832 7.52472 45.9136 4.84821 45.9137C2.1717 45.9139 0.00206122 48.0837 0.00219455 50.7603C0.00232789 53.4368 2.17218 55.6064 4.84869 55.6063Z" fill="#0082B0"/>
<path d="M35.9492 2.80408L31.5003 2.29545L27.0514 2.80453L0.72885 48.2105L5.19747 55.6057L31.5029 55.6044L57.8084 55.6031L62.2763 48.2074L35.9492 2.80408ZM34.438 20.1296L33.9542 35.8145L29.0498 35.8148L28.5643 20.1299L34.438 20.1296ZM31.5098 46.3698C29.5034 46.3699 28.3039 45.3014 28.3038 43.5058C28.3037 41.6764 29.5007 40.6077 31.5095 40.6076C33.5013 40.6075 34.6984 41.676 34.6984 43.5055C34.6985 45.3011 33.5016 46.3697 31.5098 46.3698Z" fill="#0082B0"/>
</svg>
