<svg width="41" height="41" viewBox="0 0 41 41" fill="none" xmlns="http://www.w3.org/2000/svg">
<g clip-path="url(#clip0_2795_30141)">
<path d="M32.6739 18.2963C32.6739 18.2963 33.2014 20.8801 33.3201 21.4213H31.0014L32.1126 18.4001C32.0989 18.4213 32.3414 17.7676 32.4801 17.3651L32.6739 18.2963ZM40.0276 7.78883V32.2338C40.0273 33.1179 39.6759 33.9657 39.0508 34.5908C38.4257 35.2159 37.5779 35.5672 36.6939 35.5676H3.36012C2.47605 35.5672 1.62829 35.2159 1.00317 34.5908C0.378038 33.9657 0.0266985 33.1179 0.0263672 32.2338V7.78883C0.0266985 6.90476 0.378038 6.057 1.00317 5.43188C1.62829 4.80675 2.47605 4.45541 3.36012 4.45508H36.6939C37.5779 4.45541 38.4257 4.80675 39.0508 5.43188C39.6759 6.057 40.0273 6.90476 40.0276 7.78883ZM10.6176 25.2338L15.0064 14.4563H12.0551L9.32637 21.8176L9.02762 20.3251L8.05512 15.3663C7.89512 14.6788 7.40262 14.4838 6.79137 14.4563H2.29887L2.25012 14.6713C3.27896 14.9237 4.26586 15.3237 5.18012 15.8588L7.66637 25.2338H10.6176ZM17.1739 25.2476L18.9239 14.4563H16.1326L14.3901 25.2476H17.1739ZM26.8889 21.7201C26.9026 20.4913 26.1526 19.5538 24.5489 18.7826C23.5701 18.2888 22.9726 17.9563 22.9726 17.4488C22.9864 16.9901 23.4801 16.5176 24.5764 16.5176C25.2904 16.4974 25.9998 16.6375 26.6526 16.9276L26.9026 17.0451L27.2851 14.7113C26.4871 14.4058 25.6396 14.2503 24.7851 14.2526C22.0276 14.2526 20.0901 15.7251 20.0764 17.8213C20.0551 19.3701 21.4651 20.2313 22.5214 20.7513C23.5976 21.2788 23.9664 21.6263 23.9664 22.0913C23.9526 22.8138 23.0914 23.1463 22.2926 23.1463C21.1814 23.1463 20.5839 22.9726 19.6739 22.5701L19.3064 22.3963L18.9176 24.8201C19.5701 25.1188 20.7789 25.3826 22.0289 25.3963C24.9589 25.4026 26.8689 23.9513 26.8901 21.7163L26.8889 21.7201ZM36.6939 25.2476L34.4439 14.4563H32.2839C31.6176 14.4563 31.1101 14.6513 30.8251 15.3526L26.6789 25.2488H29.6089C29.6089 25.2488 30.0876 23.9151 30.1926 23.6313H33.7764C33.8601 24.0138 34.1101 25.2488 34.1101 25.2488L36.6939 25.2476Z" fill="#104595"/>
</g>
<defs>
<clipPath id="clip0_2795_30141">
<rect width="40" height="40" fill="white" transform="translate(0.0275879 0.0117188)"/>
</clipPath>
</defs>
</svg>
