<svg width="61" height="60" viewBox="0 0 61 60" fill="none" xmlns="http://www.w3.org/2000/svg">
<circle cx="30.9836" cy="29.997" r="27.9985" stroke="#77A865" stroke-width="4"/>
<circle cx="30.9827" cy="29.9965" r="21.8827" />
<path d="M38.8003 36.199L38.8003 42.1987" stroke="#77A865" stroke-width="1.5" stroke-linecap="round"/>
<path d="M35.8005 39.1985H41.8002" stroke="#77A865" stroke-width="1.5" stroke-linecap="round"/>
<path d="M37.6501 34.0992L36.2502 32.6992C36.6835 32.2659 37.0168 31.7616 37.2501 31.1863C37.4834 30.611 37.6001 30.0154 37.6001 29.3994C37.6001 28.7828 37.4834 28.1868 37.2501 27.6115C37.0168 27.0362 36.6835 26.5322 36.2502 26.0996L37.6501 24.6996C38.2834 25.3329 38.7667 26.0496 39.1 26.8495C39.4333 27.6495 39.6 28.4995 39.6 29.3994C39.6 30.2994 39.4333 31.1493 39.1 31.9493C38.7667 32.7492 38.2834 33.4659 37.6501 34.0992ZM34.9752 32.0993L33.5503 30.6993C33.7336 30.516 33.8713 30.316 33.9633 30.0994C34.0553 29.8827 34.1009 29.6494 34.1003 29.3994C34.1003 29.1494 34.0543 28.9161 33.9623 28.6994C33.8703 28.4828 33.7329 28.2828 33.5503 28.0995L34.9752 26.6995C35.3419 27.0662 35.6212 27.4788 35.8132 27.9375C36.0052 28.3961 36.1008 28.8834 36.1002 29.3994C36.1002 29.916 36.0042 30.4037 35.8122 30.8623C35.6202 31.321 35.3412 31.7333 34.9752 32.0993ZM27.6006 39.3989C26.2173 39.3989 25.038 38.9113 24.0628 37.936C23.0875 36.9607 22.6002 35.7818 22.6008 34.3992V24.3997C22.6008 23.0164 23.0885 21.8371 24.0638 20.8618C25.039 19.8865 26.218 19.3992 27.6006 19.3999C28.9838 19.3999 30.1631 19.8875 31.1384 20.8628C32.1137 21.8381 32.601 23.0171 32.6003 24.3997V34.3992C32.6003 35.7824 32.1127 36.9617 31.1374 37.937C30.1621 38.9123 28.9832 39.3996 27.6006 39.3989ZM27.6006 37.399C28.4339 37.399 29.1422 37.1074 29.7255 36.524C30.3088 35.9407 30.6004 35.2324 30.6004 34.3992V24.3997C30.6004 23.5664 30.3088 22.8581 29.7255 22.2748C29.1422 21.6915 28.4339 21.3998 27.6006 21.3998C26.7673 21.3998 26.059 21.6915 25.4757 22.2748C24.8924 22.8581 24.6007 23.5664 24.6007 24.3997V34.3992C24.6007 35.2324 24.8924 35.9407 25.4757 36.524C26.059 37.1074 26.7673 37.399 27.6006 37.399ZM27.6006 35.3991C28.1506 35.3991 28.6215 35.2031 29.0135 34.8111C29.4055 34.4192 29.6011 33.9485 29.6005 33.3992C29.6005 32.8492 29.4045 32.3783 29.0125 31.9863C28.6205 31.5943 28.1499 31.3986 27.6006 31.3993C27.0506 31.3993 26.5796 31.5953 26.1877 31.9873C25.7957 32.3793 25.6 32.8499 25.6007 33.3992C25.6007 33.9492 25.7967 34.4202 26.1887 34.8121C26.5806 35.2041 27.0513 35.3998 27.6006 35.3991ZM27.6006 34.3992C27.3173 34.3992 27.0796 34.3032 26.8876 34.1112C26.6956 33.9192 26.6 33.6819 26.6006 33.3992C26.6006 33.1159 26.6966 32.8782 26.8886 32.6862C27.0806 32.4943 27.3179 32.3986 27.6006 32.3993C27.8839 32.3993 28.1216 32.4953 28.3135 32.6872C28.5055 32.8792 28.6012 33.1166 28.6005 33.3992C28.6005 33.6825 28.5045 33.9202 28.3125 34.1122C28.1206 34.3042 27.8832 34.3998 27.6006 34.3992ZM27.6006 27.3995C28.1506 27.3995 28.6215 27.2035 29.0135 26.8115C29.4055 26.4196 29.6011 25.9489 29.6005 25.3996C29.6005 24.8496 29.4045 24.3787 29.0125 23.9867C28.6205 23.5947 28.1499 23.399 27.6006 23.3997C27.0506 23.3997 26.5796 23.5957 26.1877 23.9877C25.7957 24.3797 25.6 24.8503 25.6007 25.3996C25.6007 25.9496 25.7967 26.4206 26.1887 26.8125C26.5806 27.2045 27.0513 27.4002 27.6006 27.3995Z" fill="#77A865"/>
</svg>
