<svg width="40" height="40" viewBox="0 0 40 40" fill="none" xmlns="http://www.w3.org/2000/svg">
<path d="M34.904 22.7977H30.0029C29.6179 22.7977 29.3056 22.4855 29.3056 22.1004C29.3056 21.7154 29.6179 21.4031 30.0029 21.4031H34.904C35.6777 21.4031 36.3071 20.7737 36.3071 20V8.7977C36.3071 8.02398 35.6777 7.3946 34.904 7.3946H4.7977C4.02398 7.3946 3.3946 8.02398 3.3946 8.7977V20C3.3946 20.7737 4.02398 21.4031 4.7977 21.4031H9.69873C10.0838 21.4031 10.396 21.7154 10.396 22.1004C10.396 22.4855 10.0838 22.7977 9.69873 22.7977H4.7977C3.25507 22.7977 2 21.5426 2 20V8.7977C2 7.25507 3.25507 6 4.7977 6H34.904C36.4466 6 37.7017 7.25507 37.7017 8.7977V20C37.7017 21.5426 36.4466 22.7977 34.904 22.7977Z" fill="#FF5D16"/>
<path d="M29.3056 10.1952H10.396C9.62705 10.1952 9.00143 9.56954 9.00143 8.80056V6.6973C9.00143 6.31225 9.31368 6 9.69873 6C10.0838 6 10.396 6.31225 10.396 6.6973V8.80056H29.3056V6.6973C29.3056 6.31225 29.6179 6 30.0029 6C30.388 6 30.7002 6.31225 30.7002 6.6973V8.80056C30.7002 9.56954 30.0746 10.1952 29.3056 10.1952ZM32.8035 15.7963C31.6469 15.7963 30.7059 14.8553 30.7059 13.6987C30.7059 12.5421 31.6469 11.6011 32.8035 11.6011C33.9601 11.6011 34.9011 12.5421 34.9011 13.6987C34.9011 14.8553 33.9601 15.7963 32.8035 15.7963ZM32.8035 12.9957C32.4159 12.9957 32.1005 13.311 32.1005 13.6987C32.1005 14.0864 32.4159 14.4017 32.8035 14.4017C33.1912 14.4017 33.5065 14.0864 33.5065 13.6987C33.5065 13.311 33.1911 12.9957 32.8035 12.9957ZM27.2024 15.7963C26.0458 15.7963 25.1048 14.8553 25.1048 13.6987C25.1048 12.5421 26.0458 11.6011 27.2024 11.6011C28.359 11.6011 29.2999 12.5421 29.2999 13.6987C29.2999 14.8553 28.359 15.7963 27.2024 15.7963ZM27.2024 12.9957C26.8147 12.9957 26.4994 13.311 26.4994 13.6987C26.4994 14.0864 26.8147 14.4017 27.2024 14.4017C27.59 14.4017 27.9053 14.0864 27.9053 13.6987C27.9053 13.311 27.5899 12.9957 27.2024 12.9957ZM37.0044 18.5969H2.6973C2.31225 18.5969 2 18.2846 2 17.8996C2 17.5146 2.31225 17.2023 2.6973 17.2023H37.0044C37.3894 17.2023 37.7017 17.5146 37.7017 17.8996C37.7017 18.2846 37.3894 18.5969 37.0044 18.5969ZM29.3056 24.198H10.396C9.62705 24.198 9.00143 23.5724 9.00143 22.8034V21.3975C9.00143 20.6285 9.62705 20.0029 10.396 20.0029H29.3056C30.0746 20.0029 30.7002 20.6285 30.7002 21.3975V22.8034C30.7002 23.5724 30.0746 24.198 29.3056 24.198ZM10.396 21.3975V22.8034L29.3065 22.8033L29.3056 21.3975H10.396ZM12.8494 34C11.6928 34 10.7518 33.0591 10.7518 31.9025C10.7518 31.5174 11.064 31.2052 11.4491 31.2052C11.8341 31.2052 12.1464 31.5174 12.1464 31.9025C12.1464 32.2901 12.4617 32.6054 12.8494 32.6054C13.2371 32.6054 13.5524 32.2901 13.5524 31.9025V26.3013C13.5524 25.9162 13.8647 25.604 14.2497 25.604C14.6348 25.604 14.947 25.9162 14.947 26.3013V31.9025C14.947 33.0591 14.006 34 12.8494 34ZM26.8523 34C25.6956 34 24.7546 33.0591 24.7546 31.9025V26.3013C24.7546 25.9162 25.0669 25.604 25.4519 25.604C25.837 25.604 26.1492 25.9162 26.1492 26.3013V31.9025C26.1492 32.2901 26.4646 32.6054 26.8523 32.6054C27.24 32.6054 27.5553 32.2901 27.5553 31.9025C27.5553 31.5174 27.8675 31.2052 28.2526 31.2052C28.6376 31.2052 28.9499 31.5174 28.9499 31.9025C28.9499 33.0591 28.0089 34 26.8523 34ZM17.0503 29.7991C16.6652 29.7991 16.353 29.4869 16.353 29.1018V26.3013C16.353 25.9162 16.6652 25.604 17.0503 25.604C17.4353 25.604 17.7476 25.9162 17.7476 26.3013V29.1018C17.7476 29.4869 17.4353 29.7991 17.0503 29.7991ZM22.6514 29.7991C22.2663 29.7991 21.9541 29.4869 21.9541 29.1018V26.3013C21.9541 25.9162 22.2663 25.604 22.6514 25.604C23.0364 25.604 23.3487 25.9162 23.3487 26.3013V29.1018C23.3487 29.4869 23.0365 29.7991 22.6514 29.7991ZM19.8508 31.8996C19.4658 31.8996 19.1535 31.5873 19.1535 31.2023V26.3013C19.1535 25.9162 19.4658 25.604 19.8508 25.604C20.2359 25.604 20.5481 25.9162 20.5481 26.3013V31.2023C20.5481 31.5874 20.2359 31.8996 19.8508 31.8996Z" fill="#FF5D16"/>
</svg>
