<svg width="40" height="40" viewBox="0 0 40 40" fill="none" xmlns="http://www.w3.org/2000/svg">
<circle cx="20" cy="20" r="18.5" stroke="#CB2020" stroke-width="3"/>
<path d="M21.7115 18.0628C22.0101 18.0628 22.2966 18.1814 22.5078 18.3926C22.719 18.6038 22.8376 18.8902 22.8376 19.1889C22.8376 19.4876 22.719 19.774 22.5078 19.9852C22.2966 20.1964 22.0101 20.315 21.7115 20.315C21.4128 20.315 21.1264 20.1964 20.9152 19.9852C20.704 19.774 20.5854 19.4876 20.5854 19.1889C20.5854 18.8902 20.704 18.6038 20.9152 18.3926C21.1264 18.1814 21.4128 18.0628 21.7115 18.0628ZM17.207 18.0628C17.5056 18.0628 17.7921 18.1814 18.0033 18.3926C18.2145 18.6038 18.3331 18.8902 18.3331 19.1889C18.3331 19.4876 18.2145 19.774 18.0033 19.9852C17.7921 20.1964 17.5056 20.315 17.207 20.315C16.9083 20.315 16.6219 20.1964 16.4107 19.9852C16.1995 19.774 16.0808 19.4876 16.0808 19.1889C16.0808 18.8902 16.1995 18.6038 16.4107 18.3926C16.6219 18.1814 16.9083 18.0628 17.207 18.0628ZM15.4052 22.342H23.5133C22.8286 23.9366 21.261 25.0447 19.4592 25.0447C17.6574 25.0447 16.0899 23.9366 15.4052 22.342ZM9.54932 20.5402C9.54932 18.9096 10.6304 17.5312 12.1259 17.0898C13.4142 14.333 16.216 12.4321 19.4592 12.4321C22.7025 12.4321 25.5043 14.333 26.8016 17.0898C28.2881 17.5312 29.3691 18.9096 29.3691 20.5402C29.3691 22.1709 28.2881 23.5492 26.8016 23.9907C25.5043 26.7474 22.7025 28.6483 19.4592 28.6483C16.216 28.6483 13.4142 26.7474 12.1259 23.9907C10.6304 23.5492 9.54932 22.1709 9.54932 20.5402ZM19.4592 14.2339C16.5944 14.2339 14.1799 16.1438 13.4052 18.7384H13.1529C12.6751 18.7384 12.2168 18.9283 11.8789 19.2662C11.541 19.6041 11.3511 20.0624 11.3511 20.5402C11.3511 21.0181 11.541 21.4764 11.8789 21.8143C12.2168 22.1522 12.6751 22.342 13.1529 22.342H13.4052C14.1799 24.9366 16.5944 26.8465 19.4592 26.8465C22.3241 26.8465 24.7385 24.9366 25.5133 22.342H25.7655C26.2434 22.342 26.7017 22.1522 27.0396 21.8143C27.3775 21.4764 27.5673 21.0181 27.5673 20.5402C27.5673 20.0624 27.3775 19.6041 27.0396 19.2662C26.7017 18.9283 26.2434 18.7384 25.7655 18.7384H25.5133C24.7385 16.1438 22.3241 14.2339 19.4592 14.2339Z" fill="#2D3E52"/>
</svg>
