<svg width="40" height="40" viewBox="0 0 40 40" fill="none" xmlns="http://www.w3.org/2000/svg">
<circle cx="20" cy="20" r="18.5" stroke="#CB2020" stroke-width="3"/>
<g clip-path="url(#clip0_5440_22914)">
<path d="M16.2158 21.261H22.7023V24.8646H16.2158V21.261ZM15.4951 16.9366H19.8194V20.5402H15.4951V16.9366ZM20.5402 16.9366H24.8645V20.5402H20.5402V16.9366ZM25.5852 16.9366H29.9095V20.5402H25.5852V16.9366ZM23.423 21.261H29.1888V24.8646H23.423V21.261ZM16.2158 12.6123H21.9816V16.2159H16.2158V12.6123ZM22.7023 12.6123H29.1888V16.2159H22.7023V12.6123Z" fill="#2D3E52"/>
<g clip-path="url(#clip1_5440_22914)">
<path d="M13.4829 23.3329H15.9009V22.441H14.1072L13.1162 20.791C12.9676 20.5433 12.7 20.3748 12.3928 20.3748C12.3036 20.3748 12.2243 20.3897 12.1451 20.4144L9.45947 21.2518V23.8284H10.3514V22.0099L11.3969 21.6829L9.45947 29.2789H10.3514L11.7734 25.2604L12.9279 26.8014V29.2789H13.8198V26.1027L12.586 23.8532L12.9478 22.4311L13.4829 23.3329ZM13.4234 20.2608C13.9189 20.2608 14.3153 19.8644 14.3153 19.3689C14.3153 18.8734 13.9189 18.4771 13.4234 18.4771C12.9279 18.4771 12.5315 18.8734 12.5315 19.3689C12.5315 19.8644 12.9279 20.2608 13.4234 20.2608Z" fill="#2D3E52"/>
</g>
</g>
<defs>
<clipPath id="clip0_5440_22914">
<rect width="25.9459" height="25.9459" fill="white" transform="translate(6.48633 7.56738)"/>
</clipPath>
<clipPath id="clip1_5440_22914">
<rect width="11.8919" height="11.8919" fill="white" transform="translate(6.48633 18.3779)"/>
</clipPath>
</defs>
</svg>
