<svg width="40" height="40" viewBox="0 0 40 40" fill="none" xmlns="http://www.w3.org/2000/svg">
<circle cx="20" cy="20" r="18.5" stroke="#0047B0" stroke-width="3"/>
<path d="M13.5112 19.5926L15.1778 22.4843L13.0695 25.1343L10.1528 20.0843L13.5112 19.5926ZM22.6528 24.5676V22.3093C23.3862 21.9843 23.9028 21.2593 23.9028 20.401C23.9028 19.926 23.7362 19.4843 23.4612 19.151L25.1028 18.1926C25.9445 17.701 26.2362 16.626 25.7445 15.7843L24.5945 13.7843C24.1028 12.9426 23.0278 12.651 22.1862 13.1343L15.4112 17.0676C14.6195 17.5093 14.3445 18.526 14.8028 19.326L16.0528 21.4926C16.5112 22.2843 17.5362 22.5593 18.3278 22.101L19.8945 21.201C20.1028 21.6926 20.4945 22.0926 20.9862 22.3093V24.5676C20.9862 25.4843 21.7362 26.2343 22.6528 26.2343H26.8195V24.5676H22.6528Z" fill="#2D3E52"/>
</svg>
