<svg width="17" height="17" viewBox="0 0 17 17" fill="none" xmlns="http://www.w3.org/2000/svg">
    <path
        d="M13.6374 16.6376H0.957381C0.888351 16.6386 0.821772 16.6122 0.772268 16.5643C0.722764 16.5164 0.694383 16.4509 0.693359 16.3822V4.11975C0.693866 4.0857 0.701108 4.05207 0.714671 4.0208C0.728234 3.98953 0.747852 3.96122 0.772406 3.9375C0.796959 3.91378 0.825967 3.8951 0.857772 3.88254C0.889577 3.86998 0.923556 3.86378 0.957769 3.86429H13.6374C13.6716 3.86378 13.7056 3.86998 13.7374 3.88254C13.7692 3.8951 13.7982 3.91378 13.8227 3.9375C13.8473 3.96122 13.8669 3.98953 13.8805 4.0208C13.894 4.05207 13.9013 4.0857 13.9018 4.11975V16.3822C13.9013 16.4162 13.894 16.4498 13.8805 16.4811C13.8669 16.5124 13.8473 16.5407 13.8227 16.5644C13.7982 16.5881 13.7692 16.6068 13.7374 16.6194C13.7056 16.6319 13.6716 16.6381 13.6374 16.6376Z"
        fill="#5ECE05" fill-opacity="0.16" />
    <path
        d="M4.87702 8.00407C4.15767 6.99381 2.47401 7.96149 3.19725 8.97948C4.43764 10.7252 5.47972 12.5599 6.27295 14.5456C6.59958 15.3545 7.91774 15.5713 8.15104 14.5456C9.25145 9.66847 11.3434 4.02885 16.1922 1.77222C17.3237 1.24581 16.34 -0.422469 15.2123 0.100077C10.7679 2.17091 8.33768 6.81963 6.95731 11.4219C6.34832 10.2338 5.65304 9.09146 4.87702 8.00407Z"
        fill="#5ECE05" />
</svg>
