<svg width="40" height="40" viewBox="0 0 40 40" fill="none" xmlns="http://www.w3.org/2000/svg">
<circle cx="20" cy="20" r="18.5" stroke="#00B042" stroke-width="3"/>
<path d="M25.9865 17.0674V14.5674H14.3198V17.0674H25.9865ZM25.9865 12.0674C26.4285 12.0674 26.8524 12.243 27.165 12.5555C27.4776 12.8681 27.6532 13.292 27.6532 13.734V22.0674C27.6532 22.5094 27.4776 22.9333 27.165 23.2459C26.8524 23.5585 26.4285 23.734 25.9865 23.734H14.3198C13.8778 23.734 13.4539 23.5585 13.1413 23.2459C12.8288 22.9333 12.6532 22.5094 12.6532 22.0674V13.734C12.6532 13.292 12.8288 12.8681 13.1413 12.5555C13.4539 12.243 13.8778 12.0674 14.3198 12.0674H25.9865ZM10.9865 25.4007H23.4865V27.0674H10.9865C10.5445 27.0674 10.1205 26.8918 9.80798 26.5792C9.49542 26.2667 9.31982 25.8427 9.31982 25.4007V16.234H10.9865V25.4007Z" fill="#2D3E52"/>
</svg>
