<svg width="32" height="32" viewBox="0 0 32 32" fill="none" xmlns="http://www.w3.org/2000/svg">
<path d="M30.301 1.0014C22.6827 1.00032 7.70461 0.998974 1.69524 1.00121C1.30838 1.00135 1.00012 1.31502 1.00012 1.70188C1.00012 2.08887 1.31384 2.40259 1.70084 2.40259H30.2995C30.6865 2.40259 31.0001 2.08892 31.0001 1.70199C31.0001 1.31511 30.6879 1.00145 30.301 1.0014Z" stroke="#5162B8" stroke-width="2"/>
<path d="M30.0626 30.0625V5.6875H17.8751C18.9593 13.1143 19.2803 17.3744 26.3126 23.0313C22.0939 23.8873 21.6251 26.7813 21.6251 30.0625H30.0626Z" stroke="#5162B8" stroke-width="2"/>
<path d="M1.93762 30.0625V5.6875H14.1251C13.0409 13.1143 12.7199 17.3744 5.68763 23.0313C9.90639 23.8873 10.3751 26.7813 10.3751 30.0625H1.93762Z" stroke="#5162B8" stroke-width="2"/>
</svg>
