<svg width="55" height="55" viewBox="0 0 55 55" fill="none" xmlns="http://www.w3.org/2000/svg">
<circle cx="27.1418" cy="27.7642" r="25.2268" stroke="#462ED6" stroke-width="3.60403"/>
<path d="M32.4042 26.7363C32.4042 29.7363 29.8642 31.8363 27.1042 31.8363C24.3442 31.8363 21.8042 29.7363 21.8042 26.7363H20.1042C20.1042 30.1463 22.8242 32.9663 26.1042 33.4563V36.7363H28.1042V33.4563C31.3842 32.9663 34.1042 30.1463 34.1042 26.7363H32.4042ZM25.9042 20.6363C25.9042 19.9763 26.4442 19.4363 27.1042 19.4363C27.7642 19.4363 28.3042 19.9763 28.3042 20.6363L28.2942 26.8363C28.2942 27.4963 27.7642 28.0363 27.1042 28.0363C26.4442 28.0363 25.9042 27.4963 25.9042 26.8363V20.6363ZM27.1042 29.7363C27.8999 29.7363 28.663 29.4203 29.2256 28.8576C29.7882 28.295 30.1042 27.532 30.1042 26.7363V20.7363C30.1042 19.9407 29.7882 19.1776 29.2256 18.615C28.663 18.0524 27.8999 17.7363 27.1042 17.7363C26.3086 17.7363 25.5455 18.0524 24.9829 18.615C24.4203 19.1776 24.1042 19.9407 24.1042 20.7363V26.7363C24.1042 27.532 24.4203 28.295 24.9829 28.8576C25.5455 29.4203 26.3086 29.7363 27.1042 29.7363Z" fill="#462ED6"/>
</svg>
