<svg width="55" height="55" viewBox="0 0 55 55" fill="none" xmlns="http://www.w3.org/2000/svg">
<circle cx="27.0376" cy="27.7637" r="25.2268" stroke="#A5BB39" stroke-width="3.60403"/>
<path d="M19 19.7358H26V17.7358H19C18.4696 17.7358 17.9609 17.9466 17.5858 18.3216C17.2107 18.6967 17 19.2054 17 19.7358V26.7358H19V19.7358ZM25 28.7358L21 33.7358H33L30 29.7358L27.97 32.4458L25 28.7358ZM32 24.2358C32 23.838 31.842 23.4565 31.5607 23.1752C31.2794 22.8939 30.8978 22.7358 30.5 22.7358C30.1022 22.7358 29.7206 22.8939 29.4393 23.1752C29.158 23.4565 29 23.838 29 24.2358C29 24.6337 29.158 25.0152 29.4393 25.2965C29.7206 25.5778 30.1022 25.7358 30.5 25.7358C30.8978 25.7358 31.2794 25.5778 31.5607 25.2965C31.842 25.0152 32 24.6337 32 24.2358ZM35 17.7358H28V19.7358H35V26.7358H37V19.7358C37 19.2054 36.7893 18.6967 36.4142 18.3216C36.0391 17.9466 35.5304 17.7358 35 17.7358ZM35 35.7358H28V37.7358H35C35.5304 37.7358 36.0391 37.5251 36.4142 37.1501C36.7893 36.775 37 36.2663 37 35.7358V28.7358H35V35.7358ZM19 28.7358H17V35.7358C17 36.2663 17.2107 36.775 17.5858 37.1501C17.9609 37.5251 18.4696 37.7358 19 37.7358H26V35.7358H19V28.7358Z" fill="#A5BB39"/>
</svg>
