<svg width="22" height="21" viewBox="0 0 22 21" fill="none" xmlns="http://www.w3.org/2000/svg">
<path d="M6.41371 17.5211C5.9103 17.5211 5.47918 17.3578 5.12037 17.0312C4.76155 16.7045 4.58244 16.3123 4.58302 15.8545L4.58243 5.0212L3.66713 5.02124L3.66704 3.35457L8.24354 3.35437L8.24349 2.52103L13.7353 2.52078L13.7353 3.35412L18.3118 3.35391L18.3119 5.02058L17.3966 5.02062L17.3972 15.854C17.3973 16.3123 17.2179 16.7048 16.8591 17.0315C16.5003 17.3582 16.0695 17.5212 15.5667 17.5207L6.41371 17.5211ZM15.566 5.0207L6.41303 5.02112L6.41362 15.8544L15.5666 15.854L15.566 5.0207ZM8.24413 14.1877L10.0747 14.1876L10.0743 6.68762L8.24372 6.6877L8.24413 14.1877ZM11.9053 14.1875L13.7359 14.1875L13.7355 6.68745L11.9049 6.68753L11.9053 14.1875Z" fill="#FF0000"/>
</svg>
