<svg width="33" height="33" viewBox="0 0 33 33" fill="none" xmlns="http://www.w3.org/2000/svg">
<g clip-path="url(#clip0_5894_29903)">
<path d="M32.3369 16.0156C32.3369 18.8242 31.5976 21.5833 30.1933 24.0156L16.3369 16.0156H32.3369Z" fill="#F45542" fill-opacity="0.2"/>
<path d="M30.1924 24.0172C28.7878 26.4494 26.7678 28.4689 24.3353 29.8729L16.3369 16.0156L30.1924 24.0172Z" fill="#DD3242" fill-opacity="0.2"/>
<path d="M24.3352 29.8729C21.9027 31.2769 19.1435 32.0159 16.335 32.0156L16.3366 16.0156L24.3352 29.8729Z" fill="#AF2F79" fill-opacity="0.2"/>
<path d="M0.336914 16.0156C0.336903 18.8242 1.07621 21.5833 2.48051 24.0156L16.3369 16.0156H0.336914Z" fill="#2656AB" fill-opacity="0.2"/>
<path d="M2.48145 24.0172C3.88601 26.4494 5.90605 28.4689 8.33853 29.8729L16.3369 16.0156L2.48145 24.0172Z" fill="#7943A3" fill-opacity="0.2"/>
<path d="M8.33789 29.8729C10.7703 31.2769 13.5295 32.0159 16.3381 32.0156L16.3364 16.0156L8.33789 29.8729Z" fill="#A23CA2" fill-opacity="0.2"/>
<path d="M0.336914 16.0156C0.336903 13.207 1.07621 10.4479 2.48051 8.01562L16.3369 16.0156H0.336914Z" fill="#019A85" fill-opacity="0.2"/>
<path d="M2.48145 8.01588C3.88601 5.58372 5.90605 3.56415 8.33853 2.16016L16.3369 16.0175L2.48145 8.01588Z" fill="#01AE5C" fill-opacity="0.2"/>
<path d="M8.33789 2.15839C10.7703 0.754353 13.5295 0.0153403 16.3381 0.0156251L16.3364 16.0156L8.33789 2.15839Z" fill="#A1CF49" fill-opacity="0.2"/>
<path d="M32.3369 16.0156C32.3369 13.207 31.5976 10.4479 30.1933 8.01562L16.3369 16.0156H32.3369Z" fill="#F97827" fill-opacity="0.2"/>
<path d="M30.1924 8.01588C28.7878 5.58372 26.7678 3.56415 24.3353 2.16016L16.3369 16.0175L30.1924 8.01588Z" fill="#FCA313" fill-opacity="0.2"/>
<path d="M24.3352 2.15839C21.9027 0.754353 19.1435 0.0153403 16.335 0.0156251L16.3366 16.0156L24.3352 2.15839Z" fill="#FFE503" fill-opacity="0.2"/>
</g>
<defs>
<clipPath id="clip0_5894_29903">
<rect width="32" height="32" fill="white" transform="translate(0.336914 0.015625)"/>
</clipPath>
</defs>
</svg>
