<svg width="32" height="33" viewBox="0 0 32 33" fill="none" xmlns="http://www.w3.org/2000/svg">
<g clip-path="url(#clip0_5894_29920)">
<path d="M32.0029 16.0195C32.0029 18.8281 31.2636 21.5872 29.8593 24.0195L16.0029 16.0195H32.0029Z" fill="url(#paint0_linear_5894_29920)" fill-opacity="0.2"/>
<path d="M29.8584 24.0211C28.4539 26.4533 26.4338 28.4729 24.0013 29.8769L16.0029 16.0195L29.8584 24.0211Z" fill="url(#paint1_linear_5894_29920)" fill-opacity="0.2"/>
<path d="M24.0012 29.8768C21.5687 31.2808 18.8096 32.0198 16.001 32.0195L16.0027 16.0195L24.0012 29.8768Z" fill="url(#paint2_linear_5894_29920)" fill-opacity="0.2"/>
<path d="M0.00292969 16.0195C0.00291848 18.8281 0.742222 21.5872 2.14653 24.0195L16.0029 16.0195H0.00292969Z" fill="url(#paint3_linear_5894_29920)" fill-opacity="0.2"/>
<path d="M2.14746 24.0211C3.55202 26.4533 5.57206 28.4729 8.00454 29.8769L16.0029 16.0195L2.14746 24.0211Z" fill="url(#paint4_linear_5894_29920)" fill-opacity="0.2"/>
<path d="M8.00391 29.8768C10.4364 31.2808 13.1955 32.0198 16.0041 32.0195L16.0024 16.0195L8.00391 29.8768Z" fill="url(#paint5_linear_5894_29920)" fill-opacity="0.2"/>
<path d="M0.00292969 16.0195C0.00291848 13.2109 0.742222 10.4518 2.14653 8.01953L16.0029 16.0195H0.00292969Z" fill="url(#paint6_linear_5894_29920)" fill-opacity="0.2"/>
<path d="M2.14746 8.01978C3.55202 5.58763 5.57206 3.56806 8.00454 2.16406L16.0029 16.0214L2.14746 8.01978Z" fill="url(#paint7_linear_5894_29920)" fill-opacity="0.2"/>
<path d="M8.00391 2.16229C10.4364 0.758259 13.1955 0.0192466 16.0041 0.0195313L16.0024 16.0195L8.00391 2.16229Z" fill="url(#paint8_linear_5894_29920)" fill-opacity="0.2"/>
<path d="M32.0029 16.0195C32.0029 13.2109 31.2636 10.4518 29.8593 8.01953L16.0029 16.0195H32.0029Z" fill="url(#paint9_linear_5894_29920)" fill-opacity="0.2"/>
<path d="M29.8584 8.01978C28.4539 5.58763 26.4338 3.56806 24.0013 2.16406L16.0029 16.0214L29.8584 8.01978Z" fill="url(#paint10_linear_5894_29920)" fill-opacity="0.2"/>
<path d="M24.0012 2.16229C21.5687 0.758259 18.8096 0.0192466 16.001 0.0195313L16.0027 16.0195L24.0012 2.16229Z" fill="url(#paint11_linear_5894_29920)" fill-opacity="0.2"/>
</g>
<defs>
<linearGradient id="paint0_linear_5894_29920" x1="24.0029" y1="16.0195" x2="24.0029" y2="24.0195" gradientUnits="userSpaceOnUse">
<stop stop-color="#FFF3E5"/>
<stop offset="0.45" stop-color="#FEE1BD"/>
<stop offset="0.96" stop-color="#FFEFDD"/>
</linearGradient>
<linearGradient id="paint1_linear_5894_29920" x1="22.9307" y1="16.0195" x2="22.9307" y2="29.8769" gradientUnits="userSpaceOnUse">
<stop stop-color="#FFF3E5"/>
<stop offset="0.45" stop-color="#FEE1BD"/>
<stop offset="0.96" stop-color="#FFEFDD"/>
</linearGradient>
<linearGradient id="paint2_linear_5894_29920" x1="20.0011" y1="16.0195" x2="20.0011" y2="32.0195" gradientUnits="userSpaceOnUse">
<stop stop-color="#FFF3E5"/>
<stop offset="0.45" stop-color="#FEE1BD"/>
<stop offset="0.96" stop-color="#FFEFDD"/>
</linearGradient>
<linearGradient id="paint3_linear_5894_29920" x1="8.00293" y1="16.0195" x2="8.00293" y2="24.0195" gradientUnits="userSpaceOnUse">
<stop stop-color="#FFF3E5"/>
<stop offset="0.45" stop-color="#FEE1BD"/>
<stop offset="0.96" stop-color="#FFEFDD"/>
</linearGradient>
<linearGradient id="paint4_linear_5894_29920" x1="9.0752" y1="16.0195" x2="9.0752" y2="29.8769" gradientUnits="userSpaceOnUse">
<stop stop-color="#FFF3E5"/>
<stop offset="0.45" stop-color="#FEE1BD"/>
<stop offset="0.96" stop-color="#FFEFDD"/>
</linearGradient>
<linearGradient id="paint5_linear_5894_29920" x1="12.004" y1="16.0195" x2="12.004" y2="32.0195" gradientUnits="userSpaceOnUse">
<stop stop-color="#FFF3E5"/>
<stop offset="0.45" stop-color="#FEE1BD"/>
<stop offset="0.96" stop-color="#FFEFDD"/>
</linearGradient>
<linearGradient id="paint6_linear_5894_29920" x1="8.00293" y1="8.01953" x2="8.00293" y2="16.0195" gradientUnits="userSpaceOnUse">
<stop stop-color="#FFF3E5"/>
<stop offset="0.45" stop-color="#FEE1BD"/>
<stop offset="0.96" stop-color="#FFEFDD"/>
</linearGradient>
<linearGradient id="paint7_linear_5894_29920" x1="9.0752" y1="2.16406" x2="9.0752" y2="16.0214" gradientUnits="userSpaceOnUse">
<stop stop-color="#FFF3E5"/>
<stop offset="0.45" stop-color="#FEE1BD"/>
<stop offset="0.96" stop-color="#FFEFDD"/>
</linearGradient>
<linearGradient id="paint8_linear_5894_29920" x1="12.004" y1="0.0195312" x2="12.004" y2="16.0195" gradientUnits="userSpaceOnUse">
<stop stop-color="#FFF3E5"/>
<stop offset="0.45" stop-color="#FEE1BD"/>
<stop offset="0.96" stop-color="#FFEFDD"/>
</linearGradient>
<linearGradient id="paint9_linear_5894_29920" x1="24.0029" y1="8.01953" x2="24.0029" y2="16.0195" gradientUnits="userSpaceOnUse">
<stop stop-color="#FFF3E5"/>
<stop offset="0.45" stop-color="#FEE1BD"/>
<stop offset="0.96" stop-color="#FFEFDD"/>
</linearGradient>
<linearGradient id="paint10_linear_5894_29920" x1="22.9307" y1="2.16406" x2="22.9307" y2="16.0214" gradientUnits="userSpaceOnUse">
<stop stop-color="#FFF3E5"/>
<stop offset="0.45" stop-color="#FEE1BD"/>
<stop offset="0.96" stop-color="#FFEFDD"/>
</linearGradient>
<linearGradient id="paint11_linear_5894_29920" x1="20.0011" y1="0.0195312" x2="20.0011" y2="16.0195" gradientUnits="userSpaceOnUse">
<stop stop-color="#FFF3E5"/>
<stop offset="0.45" stop-color="#FEE1BD"/>
<stop offset="0.96" stop-color="#FFEFDD"/>
</linearGradient>
<clipPath id="clip0_5894_29920">
<rect width="32" height="32" fill="white" transform="translate(0.00292969 0.0195312)"/>
</clipPath>
</defs>
</svg>
