<svg width="40" height="40" viewBox="0 0 40 40" fill="none" xmlns="http://www.w3.org/2000/svg">
<circle cx="20" cy="20" r="18.5" stroke="#CB2020" stroke-width="3"/>
<path d="M15.5306 27.1818L15.5119 27.1701C15.3943 27.0966 15.3037 27.0662 15.255 27.0549L14.7478 26.9379L14.8852 26.4358C14.9114 26.3401 14.9041 26.2681 14.8839 26.2066C14.8619 26.1398 14.8182 26.0676 14.749 25.991C14.6449 25.881 14.5445 25.8225 14.4773 25.7921C14.443 25.7767 14.4172 25.7685 14.404 25.7648C14.4014 25.7641 14.3994 25.7635 14.3978 25.7632L13.7176 25.6598L14.0401 25.0398C14.0959 24.9324 14.1123 24.8123 14.0868 24.7067L14.085 24.6993L14.0851 24.6993C14.0536 24.5594 13.9894 24.4872 13.8896 24.4284L13.8871 24.427L13.8871 24.427C13.7606 24.3515 13.5805 24.3024 13.3159 24.2543L13.3132 24.2538L13.3132 24.2538C13.3076 24.2527 13.3 24.2514 13.2905 24.2498C13.2167 24.2368 13.0293 24.204 12.8334 24.1374C12.625 24.0666 12.3127 23.9281 12.1086 23.6464C12.0024 23.4999 11.9394 23.3316 11.8998 23.1853C11.8611 23.2259 11.8202 23.2714 11.7784 23.3215C11.6306 23.4987 11.5055 23.6931 11.441 23.8649L11.4406 23.8661C11.3371 24.14 11.3406 24.3721 11.3751 24.5221L11.4925 25.0339L10.9756 25.1262C10.8086 25.156 10.6861 25.2094 10.6309 25.2336L10.6309 25.2336L10.63 25.2339L10.6277 25.235L10.6277 25.235C10.6281 25.2348 10.628 25.2348 10.6272 25.2353C10.6229 25.2376 10.5983 25.2511 10.5595 25.2831C10.5173 25.318 10.4686 25.3665 10.4222 25.4273C10.3295 25.5489 10.2559 25.7056 10.2434 25.8918L10.2433 25.8923C10.236 26.0005 10.2525 26.1284 10.2871 26.2973L10.2972 26.3469V26.3975V26.4988V26.8686L9.94369 26.9769C9.84225 27.008 9.76478 27.0401 9.71347 27.0637C9.68788 27.0754 9.66814 27.0854 9.65386 27.0927L9.63233 27.1039C9.62917 27.1055 9.62255 27.109 9.61526 27.1125C9.61156 27.1143 9.60505 27.1175 9.59702 27.1211C9.59135 27.1236 9.57342 27.1315 9.5499 27.1394L9.39179 26.665M15.5306 27.1818L15.7988 27.4579C15.8012 27.4644 15.8111 27.4909 15.8241 27.5399C15.8392 27.5968 15.8553 27.6723 15.8672 27.7607C15.8909 27.9378 15.8953 28.1502 15.8522 28.3611C15.8233 28.4784 15.5556 29.2353 14.3739 29.7259C13.8507 29.9408 13.2763 30.0407 12.6877 30.0407C12.379 30.0407 12.0666 30.0147 11.7624 29.9627L11.7624 29.9627L11.7588 29.9621C11.371 29.8988 10.9547 29.8151 10.5722 29.6815C10.1867 29.5469 9.86967 29.373 9.65285 29.1502L9.65297 29.15L9.64396 29.1412C9.51753 29.0177 9.3843 28.8209 9.28038 28.6203L9.2804 28.6202L9.27817 28.616C9.12812 28.3329 9.09325 27.9613 9.18174 27.6287L9.18246 27.626C9.21813 27.4888 9.27824 27.3705 9.36267 27.274L9.37508 27.2599L9.37513 27.2598C9.37689 27.2582 9.37909 27.2563 9.38176 27.254C9.39741 27.2406 9.42028 27.2229 9.44799 27.2038C9.47542 27.1847 9.50325 27.1673 9.52776 27.1535C9.55315 27.1392 9.56639 27.1336 9.5673 27.1332L9.56735 27.1332L9.39179 26.665M15.5306 27.1818L15.5503 27.1918C15.6662 27.2507 15.7436 27.3438 15.7982 27.4564L15.5306 27.1818ZM9.39179 26.665C9.26206 26.7137 9.04719 26.8637 8.98638 26.9448L12.317 22.7128C12.304 22.6263 12.2932 22.5548 12.2783 22.5137C12.258 22.461 12.2296 22.4326 12.1729 22.4326C12.0877 22.4326 11.9742 22.4813 11.8526 22.5623C11.6215 22.7164 11.1553 23.2029 10.9729 23.6894C10.8569 23.9963 10.8356 24.2803 10.8656 24.51L10.8877 24.634L10.7064 24.6756C10.5735 24.7129 10.4768 24.7552 10.4305 24.7755L10.4296 24.7759C10.2229 24.865 9.78503 25.2542 9.74449 25.8583C9.73233 26.0367 9.76071 26.2191 9.79719 26.3975V26.4988C9.58874 26.5627 9.45557 26.6322 9.40925 26.6563C9.39972 26.6613 9.39386 26.6644 9.39179 26.665ZM14.4837 25.2705C14.5588 24.7761 14.559 24.7762 14.5592 24.7762L14.5596 24.7763L14.5605 24.7764L14.5624 24.7767L14.5665 24.7774L14.5762 24.779C14.5826 24.7802 14.5899 24.7816 14.5983 24.7833C14.6026 24.9547 14.5602 25.1233 14.4837 25.2705ZM14.4837 25.2705C14.4086 25.7648 14.4084 25.7648 14.4082 25.7647L14.4086 25.7648L14.4837 25.2705ZM14.4837 25.2705L14.9273 25.5011C14.9297 25.4965 14.9321 25.4919 14.9344 25.4872C14.6909 25.3019 14.4837 25.2705 14.4837 25.2705Z" fill="#2D3E52" stroke="#2D3E52"/>
<path d="M27.297 12.1621L24.0537 15.4054L26.4862 17.8378L27.297 17.027L28.1078 17.8378L29.7294 16.2162L27.297 13.7837V12.1621ZM14.324 15.4054L13.5132 16.2162L15.9456 18.6486V21.081L15.1348 21.8918V26.7567H16.7564V24.3243L18.378 21.8918H24.0537V26.7567H25.6753V18.6486L23.2429 16.2162L22.4321 17.027H15.9456L14.324 15.4054Z" fill="#2D3E52"/>
</svg>
