<svg width="40" height="40" viewBox="0 0 40 40" fill="none" xmlns="http://www.w3.org/2000/svg">
<circle cx="20" cy="20" r="18.5" stroke="#0047B0" stroke-width="3"/>
<path fill-rule="evenodd" clip-rule="evenodd" d="M19.2712 11.9042C16.19 12.094 13.5016 14.1255 12.4933 17.0259C12.2358 17.7665 12.0613 18.7132 12.0613 19.3689V19.5234L11.908 19.5382C11.6783 19.5604 11.4792 19.6389 11.2895 19.7822C10.9753 20.0195 10.8105 20.3495 10.8105 20.7418C10.8105 21.3104 11.1096 21.7322 11.6541 21.9314L11.8283 21.9951H19.7127H27.5971L27.7512 21.9422C28.2517 21.7706 28.5716 21.3596 28.6264 20.818C28.6639 20.4478 28.4164 19.9698 28.0605 19.725C27.9273 19.6333 27.6184 19.5305 27.4762 19.5305H27.3641L27.3637 19.3772C27.3615 18.5039 27.1077 17.3709 26.7138 16.4756C25.6909 14.151 23.5705 12.4715 21.0844 12.017C20.4934 11.9089 19.8469 11.8687 19.2712 11.9042ZM15.2861 23.1621C13.9456 23.2508 12.7602 23.693 12.0425 24.3721C11.6206 24.7714 11.3431 25.2079 11.223 25.6614C11.1537 25.9233 11.1484 26.3681 11.2116 26.6271C11.3161 27.0555 11.5372 27.4395 11.8891 27.8037C12.2085 28.1343 12.4781 28.3386 12.8446 28.5277C13.6324 28.9341 14.4124 29.1278 15.4823 29.1829C16.4134 29.2309 17.5813 28.9864 18.4063 28.5708C18.8902 28.3271 19.241 28.2374 19.7127 28.2368C20.2092 28.2362 20.4284 28.2925 21.0296 28.5753C21.8181 28.9462 22.4643 29.1096 23.3687 29.167C24.801 29.2578 26.2307 28.8739 27.1556 28.1502C27.81 27.6381 28.1777 27.0415 28.25 26.3742C28.2744 26.1493 28.2725 26.0767 28.2365 25.8612C28.1407 25.2887 27.9156 24.8877 27.4218 24.4098C26.8233 23.8306 25.9625 23.437 24.8713 23.2438C24.5716 23.1908 24.4043 23.177 23.9272 23.1665C23.2691 23.1518 22.9691 23.1751 22.4348 23.2824C21.9761 23.3744 21.5712 23.5096 21.1046 23.7263C20.4305 24.0395 20.1852 24.105 19.7004 24.1016C19.2308 24.0983 19.0176 24.041 18.3696 23.7441C17.757 23.4634 17.3227 23.3275 16.7438 23.2354C16.4535 23.1892 15.7966 23.1314 15.6494 23.1391C15.6115 23.141 15.448 23.1514 15.2861 23.1621ZM16.0496 25.173C16.858 25.2854 17.4084 25.6224 17.5076 26.0657C17.576 26.3715 17.3422 26.6898 16.8802 26.9198C16.6387 27.04 16.4179 27.1024 16.074 27.148C15.3066 27.2495 14.5213 27.0639 14.1039 26.6825C13.9273 26.5211 13.8501 26.3838 13.8336 26.2019C13.8222 26.0766 13.8298 26.0362 13.8864 25.9206C14.0548 25.5764 14.5787 25.2793 15.188 25.1825C15.4371 25.1429 15.8042 25.1388 16.0496 25.173ZM24.3437 25.2055C24.8127 25.3079 25.1194 25.4536 25.3552 25.6859C25.6875 26.0134 25.6795 26.3508 25.3319 26.6719C25.1061 26.8805 24.6755 27.0723 24.2986 27.1322C23.6412 27.2367 23.0335 27.1593 22.5084 26.9042C22.1281 26.7195 21.8654 26.3755 21.9066 26.1161C21.9754 25.683 22.5284 25.3029 23.2646 25.1827C23.5312 25.1391 24.0945 25.151 24.3437 25.2055Z" fill="#2D3E52"/>
</svg>
