<svg width="40" height="40" viewBox="0 0 40 40" fill="none" xmlns="http://www.w3.org/2000/svg">
<circle cx="20" cy="20" r="18.5" stroke="#0047B0" stroke-width="3"/>
<path d="M24.029 23.8184L22.8623 22.6517C23.2234 22.2906 23.5012 21.8703 23.6956 21.3909C23.8901 20.9114 23.9873 20.415 23.9873 19.9017C23.9873 19.3878 23.8901 18.8911 23.6956 18.4117C23.5012 17.9322 23.2234 17.5122 22.8623 17.1517L24.029 15.985C24.5568 16.5128 24.9595 17.11 25.2373 17.7767C25.5151 18.4434 25.654 19.1517 25.654 19.9017C25.654 20.6517 25.5151 21.36 25.2373 22.0267C24.9595 22.6934 24.5568 23.2906 24.029 23.8184ZM21.7998 22.1517L20.6123 20.985C20.7651 20.8322 20.8798 20.6656 20.9565 20.485C21.0331 20.3045 21.0712 20.11 21.0706 19.9017C21.0706 19.6934 21.0323 19.4989 20.9556 19.3184C20.879 19.1378 20.7645 18.9711 20.6123 18.8184L21.7998 17.6517C22.1054 17.9572 22.3381 18.3011 22.4981 18.6834C22.6581 19.0656 22.7379 19.4717 22.7373 19.9017C22.7373 20.3322 22.6573 20.7386 22.4973 21.1209C22.3373 21.5031 22.1048 21.8467 21.7998 22.1517ZM15.654 28.235C14.5012 28.235 13.5184 27.8286 12.7056 27.0159C11.8929 26.2031 11.4867 25.2206 11.4873 24.0684V15.735C11.4873 14.5822 11.8937 13.5995 12.7065 12.7867C13.5193 11.9739 14.5017 11.5678 15.654 11.5684C16.8067 11.5684 17.7895 11.9747 18.6023 12.7875C19.4151 13.6003 19.8212 14.5828 19.8206 15.735V24.0684C19.8206 25.2211 19.4142 26.2039 18.6015 27.0167C17.7887 27.8295 16.8062 28.2356 15.654 28.235ZM15.654 26.5684C16.3484 26.5684 16.9387 26.3253 17.4248 25.8392C17.9109 25.3531 18.154 24.7628 18.154 24.0684V15.735C18.154 15.0406 17.9109 14.4503 17.4248 13.9642C16.9387 13.4781 16.3484 13.235 15.654 13.235C14.9595 13.235 14.3692 13.4781 13.8831 13.9642C13.397 14.4503 13.154 15.0406 13.154 15.735V24.0684C13.154 24.7628 13.397 25.3531 13.8831 25.8392C14.3692 26.3253 14.9595 26.5684 15.654 26.5684ZM15.654 24.9017C16.1123 24.9017 16.5048 24.7384 16.8315 24.4117C17.1581 24.085 17.3212 23.6928 17.3206 23.235C17.3206 22.7767 17.1573 22.3842 16.8306 22.0575C16.504 21.7309 16.1117 21.5678 15.654 21.5684C15.1956 21.5684 14.8031 21.7317 14.4765 22.0584C14.1498 22.385 13.9867 22.7772 13.9873 23.235C13.9873 23.6934 14.1506 24.0859 14.4773 24.4125C14.804 24.7392 15.1962 24.9022 15.654 24.9017ZM15.654 24.0684C15.4179 24.0684 15.2198 23.9884 15.0598 23.8284C14.8998 23.6684 14.8201 23.4706 14.8206 23.235C14.8206 22.9989 14.9006 22.8009 15.0606 22.6409C15.2206 22.4809 15.4184 22.4011 15.654 22.4017C15.8901 22.4017 16.0881 22.4817 16.2481 22.6417C16.4081 22.8017 16.4879 22.9995 16.4873 23.235C16.4873 23.4711 16.4073 23.6692 16.2473 23.8292C16.0873 23.9892 15.8895 24.0689 15.654 24.0684ZM15.654 18.235C16.1123 18.235 16.5048 18.0717 16.8315 17.745C17.1581 17.4184 17.3212 17.0261 17.3206 16.5684C17.3206 16.11 17.1573 15.7175 16.8306 15.3909C16.504 15.0642 16.1117 14.9011 15.654 14.9017C15.1956 14.9017 14.8031 15.065 14.4765 15.3917C14.1498 15.7184 13.9867 16.1106 13.9873 16.5684C13.9873 17.0267 14.1506 17.4192 14.4773 17.7459C14.804 18.0725 15.1962 18.2356 15.654 18.235Z" fill="#2D3E52"/>
</svg>
