<svg width="30" height="38" viewBox="0 0 30 38" fill="none" xmlns="http://www.w3.org/2000/svg">
    <circle cx="2.5" cy="2.5" r="2" transform="matrix(-1 0 0 1 15.2134 8.62183)" stroke="#15AA62"/>
    <mask id="path-2-inside-1_1440_9417" fill="white">
        <path d="M16.9937 12.5106C16.6628 13.5306 15.9784 14.3989 15.064 14.9591C14.1496 15.5192 13.0652 15.7344 12.0062 15.5659C10.9472 15.3974 9.98316 14.8562 9.28778 14.0399C8.5924 13.2236 8.21139 12.1858 8.21339 11.1135C8.21538 10.0411 8.60025 9.00473 9.29866 8.19101C9.99707 7.37729 10.9631 6.83972 12.0227 6.67514C13.0824 6.51056 14.166 6.7298 15.0783 7.29335C15.9906 7.8569 16.6717 8.72773 16.9988 9.74895L16.2943 9.97466C16.0209 9.12133 15.4518 8.39368 14.6895 7.92277C13.9272 7.45187 13.0217 7.26868 12.1363 7.4062C11.2509 7.54372 10.4436 7.99291 9.86006 8.67285C9.27647 9.35279 8.95488 10.2188 8.95321 11.1148C8.95154 12.0109 9.26991 12.8781 9.85097 13.5602C10.432 14.2423 11.2376 14.6945 12.1225 14.8353C13.0074 14.9761 13.9135 14.7963 14.6776 14.3282C15.4416 13.8601 16.0135 13.1346 16.29 12.2823L16.9937 12.5106Z"/>
    </mask>
    <path d="M16.9937 12.5106C16.6628 13.5306 15.9784 14.3989 15.064 14.9591C14.1496 15.5192 13.0652 15.7344 12.0062 15.5659C10.9472 15.3974 9.98316 14.8562 9.28778 14.0399C8.5924 13.2236 8.21139 12.1858 8.21339 11.1135C8.21538 10.0411 8.60025 9.00473 9.29866 8.19101C9.99707 7.37729 10.9631 6.83972 12.0227 6.67514C13.0824 6.51056 14.166 6.7298 15.0783 7.29335C15.9906 7.8569 16.6717 8.72773 16.9988 9.74895L16.2943 9.97466C16.0209 9.12133 15.4518 8.39368 14.6895 7.92277C13.9272 7.45187 13.0217 7.26868 12.1363 7.4062C11.2509 7.54372 10.4436 7.99291 9.86006 8.67285C9.27647 9.35279 8.95488 10.2188 8.95321 11.1148C8.95154 12.0109 9.26991 12.8781 9.85097 13.5602C10.432 14.2423 11.2376 14.6945 12.1225 14.8353C13.0074 14.9761 13.9135 14.7963 14.6776 14.3282C15.4416 13.8601 16.0135 13.1346 16.29 12.2823L16.9937 12.5106Z" fill="#15AA62" stroke="#15AA62" stroke-width="4" mask="url(#path-2-inside-1_1440_9417)"/>
    <path d="M16.2134 9.62183H28.2134C28.7657 9.62183 29.2134 10.0695 29.2134 10.6218V11.6218C29.2134 12.1741 28.7657 12.6218 28.2134 12.6218H16.2134" stroke="#15AA62"/>
    <path d="M22.2134 13.6218V35.6218C22.2134 36.1741 21.7657 36.6218 21.2134 36.6218H2.21338C1.66109 36.6218 1.21338 36.1741 1.21338 35.6218V2.62183C1.21338 2.06954 1.66109 1.62183 2.21338 1.62183H21.2134C21.7657 1.62183 22.2134 2.06954 22.2134 2.62183V8.62183" stroke="#15AA62" stroke-width="2"/>
    <rect x="0.500006" y="0.500005" width="14" height="2" transform="matrix(1 9.96269e-06 1.24556e-05 1 4.21337 17.6218)" stroke="#15AA62"/>
    <circle cx="1" cy="1" r="0.5" transform="matrix(1 9.96357e-06 1.24543e-05 1 6.21338 22.6218)" stroke="#15AA62"/>
    <circle cx="1" cy="1" r="0.5" transform="matrix(1 9.96357e-06 1.24543e-05 1 11.2134 22.6218)" stroke="#15AA62"/>
    <circle cx="1" cy="1" r="0.5" transform="matrix(1 9.96357e-06 1.24543e-05 1 16.2134 22.6218)" stroke="#15AA62"/>
    <circle cx="1" cy="1" r="0.5" transform="matrix(1 9.96357e-06 1.24543e-05 1 6.21338 26.6218)" stroke="#15AA62"/>
    <circle cx="1" cy="1" r="0.5" transform="matrix(1 9.96357e-06 1.24543e-05 1 11.2134 26.6218)" stroke="#15AA62"/>
    <circle cx="1" cy="1" r="0.5" transform="matrix(1 9.96357e-06 1.24543e-05 1 16.2134 26.6218)" stroke="#15AA62"/>
    <circle cx="1" cy="1" r="0.5" transform="matrix(1 9.96357e-06 1.24543e-05 1 6.21338 30.6218)" stroke="#15AA62"/>
    <circle cx="1" cy="1" r="0.5" transform="matrix(1 9.96357e-06 1.24543e-05 1 11.2134 30.6218)" stroke="#15AA62"/>
    <circle cx="1" cy="1" r="0.5" transform="matrix(1 9.96357e-06 1.24543e-05 1 16.2134 30.6218)" stroke="#15AA62"/>
</svg>
