<svg width="40" height="40" viewBox="0 0 40 40" fill="none" xmlns="http://www.w3.org/2000/svg">
<circle cx="20" cy="20" r="18.5" stroke="#0047B0" stroke-width="3"/>
<path d="M20.1657 28.6667C19.0129 28.6667 18.0301 28.2603 17.2174 27.4475C16.4046 26.6347 15.9985 25.6522 15.999 24.5V16.1667C15.999 15.0139 16.4054 14.0311 17.2182 13.2183C18.031 12.4056 19.0135 11.9994 20.1657 12C21.3185 12 22.3012 12.4064 23.114 13.2192C23.9268 14.0319 24.3329 15.0144 24.3324 16.1667V24.5C24.3324 25.6528 23.926 26.6356 23.1132 27.4483C22.3004 28.2611 21.3179 28.6672 20.1657 28.6667ZM20.1657 27C20.8601 27 21.4504 26.7569 21.9365 26.2708C22.4226 25.7847 22.6657 25.1944 22.6657 24.5V16.1667C22.6657 15.4722 22.4226 14.8819 21.9365 14.3958C21.4504 13.9097 20.8601 13.6667 20.1657 13.6667C19.4712 13.6667 18.881 13.9097 18.3949 14.3958C17.9087 14.8819 17.6657 15.4722 17.6657 16.1667V24.5C17.6657 25.1944 17.9087 25.7847 18.3949 26.2708C18.881 26.7569 19.4712 27 20.1657 27ZM20.1657 25.3333C20.624 25.3333 21.0165 25.17 21.3432 24.8433C21.6699 24.5167 21.8329 24.1244 21.8324 23.6667C21.8324 23.2083 21.669 22.8158 21.3424 22.4892C21.0157 22.1625 20.6235 21.9994 20.1657 22C19.7074 22 19.3149 22.1633 18.9882 22.49C18.6615 22.8167 18.4985 23.2089 18.499 23.6667C18.499 24.125 18.6624 24.5175 18.989 24.8442C19.3157 25.1708 19.7079 25.3339 20.1657 25.3333ZM20.1657 24.5C19.9296 24.5 19.7315 24.42 19.5715 24.26C19.4115 24.1 19.3318 23.9022 19.3324 23.6667C19.3324 23.4306 19.4124 23.2325 19.5724 23.0725C19.7324 22.9125 19.9301 22.8328 20.1657 22.8333C20.4018 22.8333 20.5999 22.9133 20.7599 23.0733C20.9199 23.2333 20.9996 23.4311 20.999 23.6667C20.999 23.9028 20.919 24.1008 20.759 24.2608C20.599 24.4208 20.4012 24.5006 20.1657 24.5ZM20.1657 18.6667C20.624 18.6667 21.0165 18.5033 21.3432 18.1767C21.6699 17.85 21.8329 17.4578 21.8324 17C21.8324 16.5417 21.669 16.1492 21.3424 15.8225C21.0157 15.4958 20.6235 15.3328 20.1657 15.3333C19.7074 15.3333 19.3149 15.4967 18.9882 15.8233C18.6615 16.15 18.4985 16.5422 18.499 17C18.499 17.4583 18.6624 17.8508 18.989 18.1775C19.3157 18.5042 19.7079 18.6672 20.1657 18.6667Z" fill="#2D3E52"/>
</svg>
