<svg width="40" height="40" viewBox="0 0 40 40" fill="none" xmlns="http://www.w3.org/2000/svg">
<circle cx="20" cy="20" r="18.5" stroke="#CB2020" stroke-width="3"/>
<path d="M26.6664 20.5401H28.4682V22.3419H26.6664C25.4232 22.3419 24.1979 22.0266 23.0628 21.441C20.8106 22.6122 18.1079 22.6122 15.8556 21.441C14.7205 22.0266 13.4862 22.3419 12.252 22.3419H10.4502V20.5401H12.252C13.5042 20.5401 14.7565 20.1167 15.8556 19.3419C18.0538 20.8825 20.8646 20.8825 23.0628 19.3419C24.1619 20.1167 25.4142 20.5401 26.6664 20.5401ZM26.6664 15.1347H28.4682V16.9365H26.6664C25.4232 16.9365 24.1979 16.6212 23.0628 16.0356C20.8106 17.2068 18.1079 17.2068 15.8556 16.0356C14.7205 16.6212 13.4862 16.9365 12.252 16.9365H10.4502V15.1347H12.252C13.5042 15.1347 14.7565 14.7113 15.8556 13.9365C18.0538 15.4771 20.8646 15.4771 23.0628 13.9365C24.1619 14.7113 25.4142 15.1347 26.6664 15.1347ZM26.6664 25.9455H28.4682V27.7473H26.6664C25.4232 27.7473 24.1979 27.432 23.0628 26.8464C20.8106 28.0176 18.1079 28.0176 15.8556 26.8464C14.7205 27.432 13.4862 27.7473 12.252 27.7473H10.4502V25.9455H12.252C13.5042 25.9455 14.7565 25.5221 15.8556 24.7473C18.0538 26.2879 20.8646 26.2879 23.0628 24.7473C24.1619 25.5221 25.4142 25.9455 26.6664 25.9455Z" fill="#2D3E52"/>
</svg>
