<svg width="40" height="40" viewBox="0 0 40 40" fill="none" xmlns="http://www.w3.org/2000/svg">
<path d="M23.9637 27.7475C23.7024 27.7475 23.4592 27.6935 23.279 27.6124C22.6394 27.2971 22.1889 26.8196 21.7385 25.4683C21.261 24.0628 20.4141 23.4052 19.5853 22.7656C18.8736 22.216 18.1349 21.6484 17.4952 20.4863C17.0177 19.6394 16.7565 18.6755 16.7565 17.8376C16.7565 15.3151 18.7385 13.3331 21.261 13.3331C23.7835 13.3331 25.7655 15.3151 25.7655 17.8376H27.5673C27.5673 14.2971 24.8015 11.5313 21.261 11.5313C17.7204 11.5313 14.9547 14.2971 14.9547 17.8376C14.9547 18.9728 15.297 20.225 15.9186 21.3511C16.7565 22.8376 17.7024 23.5854 18.4862 24.189C19.2159 24.7475 19.7385 25.1529 20.0267 26.0358C20.5673 27.6755 21.261 28.5944 22.4862 29.234C22.9457 29.4412 23.4502 29.5493 23.9637 29.5493C24.9194 29.5493 25.836 29.1697 26.5118 28.4939C27.1876 27.8181 27.5673 26.9015 27.5673 25.9457H25.7655C25.7655 26.4236 25.5757 26.8819 25.2378 27.2198C24.8998 27.5577 24.4416 27.7475 23.9637 27.7475ZM15.5313 12.1079L14.252 10.8286C12.4592 12.6214 11.3511 15.0989 11.3511 17.8376C11.3511 20.5764 12.4592 23.0538 14.252 24.8466L15.5222 23.5764C14.0538 22.1079 13.1529 20.0899 13.1529 17.8376C13.1529 15.5854 14.0538 13.5674 15.5313 12.1079ZM19.0087 17.8376C19.0087 18.1334 19.067 18.4263 19.1802 18.6995C19.2934 18.9728 19.4593 19.2211 19.6684 19.4302C20.0908 19.8526 20.6636 20.0899 21.261 20.0899C21.5568 20.0899 21.8496 20.0316 22.1229 19.9184C22.3961 19.8052 22.6444 19.6393 22.8536 19.4302C23.0627 19.2211 23.2286 18.9728 23.3418 18.6995C23.455 18.4263 23.5132 18.1334 23.5132 17.8376C23.5132 17.2403 23.2759 16.6674 22.8536 16.245C22.4312 15.8227 21.8583 15.5854 21.261 15.5854C20.6636 15.5854 20.0908 15.8227 19.6684 16.245C19.246 16.6674 19.0087 17.2403 19.0087 17.8376Z" fill="#2D3E52"/>
</svg>
