<svg width="22" height="21" viewBox="0 0 22 21" fill="none" xmlns="http://www.w3.org/2000/svg">
<path d="M17.3815 1.7095L20.1276 4.20938L18.0344 6.11614L15.2884 3.61627L17.3815 1.7095ZM7.32486 13.3666L10.0708 13.3665L16.7402 7.2937L13.9942 4.79382L7.32472 10.8666L7.32486 13.3666Z" fill="#2D3E52"/>
<path d="M17.3936 15.8661L7.4699 15.8666C7.4461 15.8666 7.42139 15.8749 7.39759 15.8749C7.36738 15.8749 7.33718 15.8674 7.30606 15.8666L4.57938 15.8667L4.57874 4.20003L10.8458 4.19975L12.6763 2.533L4.57865 2.53336C3.56907 2.53341 2.74809 3.28011 2.74814 4.20011L2.74878 15.8668C2.74883 16.7868 3.56989 17.5334 4.57947 17.5334L17.3937 17.5328C17.8792 17.5328 18.3448 17.3571 18.6881 17.0446C19.0314 16.732 19.2242 16.3081 19.2242 15.866L19.2238 8.6427L17.3933 10.3094L17.3936 15.8661Z" fill="#2D3E52"/>
</svg>
