<svg width="25" height="25" viewBox="0 0 25 25" fill="none" xmlns="http://www.w3.org/2000/svg">
    <path
        d="M17.6874 11.2204C17.4574 10.9204 17.1774 10.6604 16.9174 10.4004C16.2474 9.80039 15.4874 9.37039 14.8474 8.74039C13.3574 7.28039 13.0274 4.87039 13.9774 3.02039C13.0274 3.25039 12.1974 3.77039 11.4874 4.34039C8.89739 6.42039 7.87739 10.0904 9.09739 13.2404C9.13739 13.3404 9.17739 13.4404 9.17739 13.5704C9.17739 13.7904 9.02739 13.9904 8.82739 14.0704C8.59739 14.1704 8.35739 14.1104 8.16739 13.9504C8.1103 13.9032 8.06277 13.8455 8.02739 13.7804C6.89739 12.3504 6.71739 10.3004 7.47739 8.66039C5.80739 10.0204 4.89739 12.3204 5.02739 14.4904C5.08739 14.9904 5.14739 15.4904 5.31739 15.9904C5.45739 16.5904 5.72739 17.1904 6.02739 17.7204C7.10739 19.4504 8.97739 20.6904 10.9874 20.9404C13.1274 21.2104 15.4174 20.8204 17.0574 19.3404C18.8874 17.6804 19.5274 15.0204 18.5874 12.7404L18.4574 12.4804C18.2474 12.0204 17.6874 11.2204 17.6874 11.2204ZM14.5274 17.5204C14.2474 17.7604 13.7874 18.0204 13.4274 18.1204C12.3074 18.5204 11.1874 17.9604 10.5274 17.3004C11.7174 17.0204 12.4274 16.1404 12.6374 15.2504C12.8074 14.4504 12.4874 13.7904 12.3574 13.0204C12.2374 12.2804 12.2574 11.6504 12.5274 10.9604C12.7174 11.3404 12.9174 11.7204 13.1574 12.0204C13.9274 13.0204 15.1374 13.4604 15.3974 14.8204C15.4374 14.9604 15.4574 15.1004 15.4574 15.2504C15.4874 16.0704 15.1274 16.9704 14.5274 17.5204Z"
        fill="white" />
</svg>
