<svg width="40" height="40" viewBox="0 0 40 40" fill="none" xmlns="http://www.w3.org/2000/svg">
<circle cx="20" cy="20" r="18.5" stroke="#CB2020" stroke-width="3"/>
<path d="M24.5585 19.8195C24.3513 19.5492 24.0991 19.315 23.8648 19.0808C23.2612 18.5402 22.5766 18.1528 22 17.5853C20.6576 16.27 20.3603 14.0988 21.2162 12.4321C20.3603 12.6393 19.6126 13.1078 18.973 13.6213C16.6396 15.4952 15.7207 18.8015 16.8198 21.6393C16.8558 21.7294 16.8919 21.8195 16.8919 21.9366C16.8919 22.1348 16.7567 22.315 16.5766 22.3871C16.3693 22.4772 16.1531 22.4231 15.982 22.279C15.9279 22.2339 15.8919 22.1889 15.8558 22.1258C14.8378 20.8375 14.6757 18.9907 15.3603 17.5132C13.8558 18.7384 13.036 20.8105 13.1531 22.7655C13.2072 23.2159 13.2612 23.6664 13.4144 24.1168C13.5405 24.6574 13.7838 25.1979 14.054 25.6754C15.027 27.2339 16.7117 28.351 18.5225 28.5763C20.4504 28.8195 22.5135 28.4682 23.991 27.1348C25.6396 25.6393 26.2162 23.2429 25.3693 21.1889L25.2522 20.9547C25.063 20.5402 24.5585 19.8195 24.5585 19.8195ZM21.7117 25.4952C21.4594 25.7114 21.045 25.9456 20.7207 26.0357C19.7117 26.3961 18.7027 25.8916 18.1081 25.297C19.1802 25.0447 19.8198 24.2519 20.009 23.4501C20.1621 22.7294 19.8739 22.1348 19.7567 21.4411C19.6486 20.7745 19.6666 20.2069 19.9099 19.5853C20.0811 19.9276 20.2612 20.27 20.4775 20.5402C21.1712 21.4411 22.2612 21.8375 22.4955 23.0628C22.5315 23.1889 22.5495 23.315 22.5495 23.4501C22.5766 24.1889 22.2522 24.9997 21.7117 25.4952Z" fill="#2D3E52"/>
</svg>
