<svg width="40" height="40" viewBox="0 0 40 40" fill="none" xmlns="http://www.w3.org/2000/svg">
<circle cx="20" cy="20" r="18.5" stroke="#0047B0" stroke-width="3"/>
<path d="M17.5 18.3332L15 14.1665H25L22.5 18.3332H17.5ZM25 13.3332H15V11.6665H25V13.3332ZM17.5 28.3332V19.1665H22.5V28.3332H17.5ZM20 20.8332C19.779 20.8332 19.567 20.921 19.4107 21.0772C19.2545 21.2335 19.1667 21.4455 19.1667 21.6665C19.1667 21.8875 19.2545 22.0995 19.4107 22.2558C19.567 22.412 19.779 22.4998 20 22.4998C20.221 22.4998 20.433 22.412 20.5893 22.2558C20.7455 22.0995 20.8333 21.8875 20.8333 21.6665C20.8333 21.4455 20.7455 21.2335 20.5893 21.0772C20.433 20.921 20.221 20.8332 20 20.8332Z" fill="#2D3E52"/>
</svg>
