<svg width="25" height="24" viewBox="0 0 25 24" fill="none" xmlns="http://www.w3.org/2000/svg">
    <path
        d="M17.3614 3.16504C16.461 3.17905 15.5801 3.43042 14.8079 3.89377C14.0356 4.35711 13.3993 5.01604 12.9632 5.80399C12.5271 5.01604 11.8908 4.35711 11.1185 3.89377C10.3463 3.43042 9.46544 3.17905 8.56496 3.16504C7.12948 3.22741 5.77703 3.85537 4.80308 4.91173C3.82913 5.96809 3.31285 7.36698 3.36703 8.80279C3.36703 14.2206 12.1283 20.4781 12.501 20.7436L12.9632 21.0707L13.4254 20.7436C13.7981 20.4797 22.5594 14.2206 22.5594 8.80279C22.6136 7.36698 22.0973 5.96809 21.1233 4.91173C20.1494 3.85537 18.7969 3.22741 17.3614 3.16504ZM12.9632 19.1019C10.3618 17.1587 4.96639 12.3846 4.96639 8.80279C4.91173 7.79097 5.25937 6.79857 5.9335 6.04205C6.60763 5.28553 7.55355 4.82626 8.56496 4.7644C9.57637 4.82626 10.5223 5.28553 11.1964 6.04205C11.8705 6.79857 12.2182 7.79097 12.1635 8.80279H13.7629C13.7082 7.79097 14.0559 6.79857 14.73 6.04205C15.4041 5.28553 16.35 4.82626 17.3614 4.7644C18.3729 4.82626 19.3188 5.28553 19.9929 6.04205C20.667 6.79857 21.0147 7.79097 20.96 8.80279C20.96 12.3862 15.5646 17.1587 12.9632 19.1019Z"
        fill="white" />
</svg>
