<svg width="20" height="21" viewBox="0 0 20 21" fill="none" xmlns="http://www.w3.org/2000/svg">
    <g clip-path="url(#clip0_9_6855)">
        <path
            d="M14.5846 0.776367C13.6462 0.790963 12.7283 1.05291 11.9235 1.53576C11.1188 2.01861 10.4557 2.70526 10.0012 3.52637C9.54676 2.70526 8.88367 2.01861 8.07892 1.53576C7.27418 1.05291 6.35627 0.790963 5.41789 0.776367C3.92201 0.841359 2.51265 1.49575 1.49771 2.59656C0.482776 3.69738 -0.0552321 5.15514 0.00122664 6.65137C0.00122664 12.2972 9.13123 18.818 9.51956 19.0947L10.0012 19.4355L10.4829 19.0947C10.8712 18.8197 20.0012 12.2972 20.0012 6.65137C20.0577 5.15514 19.5197 3.69738 18.5047 2.59656C17.4898 1.49575 16.0804 0.841359 14.5846 0.776367ZM10.0012 17.3839C7.29039 15.3589 1.66789 10.3839 1.66789 6.65137C1.61093 5.59696 1.9732 4.56281 2.6757 3.77445C3.37819 2.98609 4.36392 2.50749 5.41789 2.44303C6.47187 2.50749 7.45759 2.98609 8.16009 3.77445C8.86259 4.56281 9.22486 5.59696 9.16789 6.65137H10.8346C10.7776 5.59696 11.1399 4.56281 11.8424 3.77445C12.5449 2.98609 13.5306 2.50749 14.5846 2.44303C15.6385 2.50749 16.6243 2.98609 17.3268 3.77445C18.0293 4.56281 18.3915 5.59696 18.3346 6.65137C18.3346 10.3855 12.7121 15.3589 10.0012 17.3839Z"
            fill="white" />
        <path
            d="M14.5846 0.776367C13.6462 0.790963 12.7283 1.05291 11.9235 1.53576C11.1188 2.01861 10.4557 2.70526 10.0012 3.52637C9.54676 2.70526 8.88367 2.01861 8.07892 1.53576C7.27418 1.05291 6.35627 0.790963 5.41789 0.776367C3.92201 0.841359 2.51265 1.49575 1.49771 2.59656C0.482776 3.69738 -0.0552321 5.15514 0.00122664 6.65137C0.00122664 12.2972 9.13123 18.818 9.51956 19.0947L10.0012 19.4355L10.4829 19.0947C10.8712 18.8197 20.0012 12.2972 20.0012 6.65137C20.0577 5.15514 19.5197 3.69738 18.5047 2.59656C17.4898 1.49575 16.0804 0.841359 14.5846 0.776367Z"
            fill="#ED4728" />
    </g>
    <defs>
        <clipPath id="clip0_9_6855">
            <rect width="20" height="20" fill="white" transform="translate(0.0012207 0.0117188)" />
        </clipPath>
    </defs>
</svg>
