<svg width="40" height="40" viewBox="0 0 40 40" fill="none" xmlns="http://www.w3.org/2000/svg">
<path d="M11.2387 23.1602C10.5436 22.9698 10.0151 22.1712 10.2293 21.3892C10.4435 20.6072 11.2183 20.1656 12.0003 20.3798C12.7823 20.594 13.1133 21.4319 12.9229 22.127C12.7325 22.8221 11.9338 23.3506 11.2387 23.1602ZM29.385 18.9768C29.7636 19.6409 29.291 18.2971 29.385 18.9768C29.4791 19.6564 29.5754 18.2816 29.385 18.9768L28.909 20.7145L26.4501 22.1894L27.719 25.059L27.1715 27.0576L24.6303 24.3998L21.3024 25.6366L14.3346 24.4753C13.5526 24.2611 13.0479 23.3756 13.2621 22.5936C13.3335 22.3329 13.4918 22.096 13.6263 21.9461L16.7184 19.5237L16.5707 17.3349L18.1514 17.0206L18.6217 20.4187C18.511 20.4818 17.1982 21.5233 16.1544 22.2649L19.2907 22.7504L24.4622 19.2163L29.385 18.9768C29.5278 18.4554 29.5029 19.5695 29.385 18.9768C29.3541 18.4078 29.6374 19.4195 29.385 18.9768ZM27.719 25.059L26.4501 22.1894L28.909 20.7145L25.1395 21.1766L22.9412 22.7228L25.3991 22.2751L27.719 25.059Z" fill="#2D3E52"/>
<path d="M18.3781 26.9723C18.3781 26.9723 21.8077 27.1597 22.1369 28.3641C22.5412 29.6395 18.3781 26.9723 18.3781 26.9723Z" fill="#2D3E52"/>
<path d="M17.1404 26.1071C17.1404 26.1071 20.4832 25.9282 21.3733 26.6738C22.3688 27.4585 17.1404 26.1071 17.1404 26.1071Z" fill="#2D3E52"/>
</svg>
