<svg width="40" height="40" viewBox="0 0 40 40" fill="none" xmlns="http://www.w3.org/2000/svg">
<circle cx="20" cy="20" r="18.5" stroke="#CB2020" stroke-width="3"/>
<path d="M18.288 20.9907C18.288 21.261 17.1169 21.6213 16.216 21.6213C15.3151 21.6213 14.3241 20.9907 14.3241 20.8105C14.3241 20.5403 14.9547 19.7294 16.3961 19.6394C17.207 19.5493 18.1079 20.0898 18.288 20.9907ZM22.5223 19.6394C21.6214 19.5493 20.8106 20.0898 20.6304 20.9907C20.6304 21.261 21.7115 21.6213 22.7024 21.6213C23.6934 21.6213 24.5943 20.9907 24.5943 20.8105C24.5943 20.6304 23.9637 19.7294 22.5223 19.6394ZM28.4682 20.5403C28.4682 25.4952 24.4142 29.5493 19.4592 29.5493C14.5042 29.5493 10.4502 25.4952 10.4502 20.5403C10.4502 15.5853 14.5042 11.5312 19.4592 11.5312C24.4142 11.5312 28.4682 15.5853 28.4682 20.5403ZM26.6664 19.8195C26.6664 18.0177 26.0358 17.3871 23.6934 17.3871C21.3511 17.3871 20.6304 18.3781 19.4592 18.3781C18.288 18.3781 17.6574 17.3871 15.225 17.3871C12.7925 17.3871 12.252 17.9276 12.252 19.8195C12.252 22.8826 13.6033 24.5943 15.4952 24.5943C16.9367 24.5943 18.0178 22.7925 19.4592 22.7925C20.9006 22.7925 21.8916 24.5943 23.4232 24.5943C25.3151 24.5943 26.6664 22.8826 26.6664 19.8195Z" fill="#2D3E52"/>
</svg>
