<svg width="100" height="100" viewBox="0 0 100 100" fill="none" xmlns="http://www.w3.org/2000/svg">
    <path
        d="M59.1763 73.7286V69.2442C59.1763 63.8255 65.2879 58.7002 69.2524 55.0435C74.8408 49.8921 77.7783 42.9711 77.7783 34.8637C77.7783 19.9156 65.4293 7.95714 49.8753 7.95714C46.2082 7.94727 42.5752 8.6365 39.1852 9.98518C35.7952 11.3339 32.7152 13.3154 30.1221 15.8159C27.529 18.3163 25.4741 21.2864 24.0754 24.5553C22.6768 27.8242 21.962 31.3275 21.9723 34.8637C21.9723 42.6815 25.0358 50.0714 30.4982 55.0435C34.4414 58.633 40.5743 63.7695 40.5743 69.2442V73.7286M43.6746 91.6663H56.076M40.5743 82.6975H59.1763M49.8753 73.7286V49.8117"
        stroke="#BCBEC2" stroke-width="4.5" stroke-linecap="round" stroke-linejoin="round" />
    <path
        d="M56.0757 32.7598C56.0757 32.7598 52.5658 35.8601 49.875 35.8601C47.1842 35.8601 43.6743 32.7598 43.6743 32.7598"
        stroke="#BCBEC2" stroke-width="4.5" stroke-linecap="round" stroke-linejoin="round" />
</svg>
