<svg width="40" height="40" viewBox="0 0 40 40" fill="none" xmlns="http://www.w3.org/2000/svg">
<circle cx="20" cy="20" r="18.5" stroke="#CB2020" stroke-width="3"/>
<g clip-path="url(#clip0_5440_22927)">
<path d="M24.9303 22.9326C24.1568 22.9326 23.4149 22.6253 22.8679 22.0783C22.321 21.5314 22.0137 20.7895 22.0137 20.016C22.0137 19.2424 22.321 18.5005 22.8679 17.9536C23.4149 17.4066 24.1568 17.0993 24.9303 17.0993C25.7039 17.0993 26.4458 17.4066 26.9927 17.9536C27.5397 18.5005 27.847 19.2424 27.847 20.016C27.847 20.7895 27.5397 21.5314 26.9927 22.0783C26.4458 22.6253 25.7039 22.9326 24.9303 22.9326ZM14.097 22.9326C13.3235 22.9326 12.5816 22.6253 12.0346 22.0783C11.4876 21.5314 11.1803 20.7895 11.1803 20.016C11.1803 19.2424 11.4876 18.5005 12.0346 17.9536C12.5816 17.4066 13.3235 17.0993 14.097 17.0993C14.8706 17.0993 15.6124 17.4066 16.1594 17.9536C16.7064 18.5005 17.0137 19.2424 17.0137 20.016C17.0137 20.7895 16.7064 21.5314 16.1594 22.0783C15.6124 22.6253 14.8706 22.9326 14.097 22.9326ZM24.9303 15.4326C23.7148 15.4326 22.549 15.9155 21.6894 16.775C20.8299 17.6346 20.347 18.8004 20.347 20.016C20.347 21.1243 20.7387 22.141 21.397 22.9326H17.6303C18.2887 22.141 18.6803 21.1243 18.6803 20.016C18.6803 18.8004 18.1975 17.6346 17.3379 16.775C16.4784 15.9155 15.3126 15.4326 14.097 15.4326C12.8814 15.4326 11.7156 15.9155 10.8561 16.775C9.99656 17.6346 9.51367 18.8004 9.51367 20.016C9.51367 21.2315 9.99656 22.3973 10.8561 23.2569C11.7156 24.1164 12.8814 24.5993 14.097 24.5993H24.9303C26.1459 24.5993 27.3117 24.1164 28.1712 23.2569C29.0308 22.3973 29.5137 21.2315 29.5137 20.016C29.5137 18.8004 29.0308 17.6346 28.1712 16.775C27.3117 15.9155 26.1459 15.4326 24.9303 15.4326Z" fill="#2D3E52"/>
</g>
<defs>
<clipPath id="clip0_5440_22927">
<rect width="20" height="20" fill="white" transform="translate(9.51367 10.4326)"/>
</clipPath>
</defs>
</svg>
