<svg width="30" height="31" viewBox="0 0 30 31" fill="none" xmlns="http://www.w3.org/2000/svg">
<g clip-path="url(#clip0_14_2157)">
<path d="M28.7904 18.5044C28.665 18.3793 28.5066 18.2923 28.3337 18.2534C28.1608 18.2146 27.9805 18.2256 27.8136 18.2851C25.5704 19.0848 23.1464 19.2317 20.8232 18.7085C18.4999 18.1854 16.3728 17.0138 14.6889 15.3299C13.0051 13.6459 11.8336 11.5187 11.3106 9.19541C10.7876 6.87212 10.9346 4.44813 11.7345 2.20506C11.7939 2.03812 11.8048 1.85774 11.7659 1.68485C11.727 1.51196 11.6399 1.35364 11.5147 1.22823C11.3895 1.10283 11.2313 1.01548 11.0585 0.97631C10.8857 0.937143 10.7053 0.947763 10.5382 1.00694C8.51595 1.72107 6.68074 2.88205 5.16918 4.4035C2.45945 7.11528 0.93763 10.7922 0.938355 14.6258C0.939079 18.4594 2.46229 22.1358 5.17304 24.8465C7.8838 27.5573 11.5602 29.0805 15.3937 29.0812C19.2273 29.0819 22.9043 27.5601 25.6161 24.8504C27.1376 23.3386 28.2986 21.503 29.0126 19.4804C29.0716 19.3133 29.082 19.133 29.0427 18.9603C29.0033 18.7875 28.9159 18.6295 28.7904 18.5044ZM24.2904 23.5247C23.0121 24.7995 21.4744 25.7842 19.7818 26.4121C18.0892 27.04 16.2813 27.2964 14.4809 27.1637C12.6805 27.0311 10.9296 26.5126 9.34733 25.6435C7.76502 24.7743 6.38825 23.5749 5.31051 22.1265C4.23277 20.6782 3.47929 19.015 3.10123 17.2497C2.72318 15.4844 2.7294 13.6584 3.11947 11.8958C3.50955 10.1331 4.27434 8.47502 5.36192 7.03408C6.44951 5.59314 7.83441 4.4031 9.42261 3.54475C8.95245 5.88544 9.06571 8.30588 9.75241 10.5924C10.4391 12.879 11.6781 14.9613 13.3601 16.6557C15.0543 18.3379 17.1366 19.5771 19.4232 20.2639C21.7098 20.9506 24.1304 21.0637 26.4711 20.5932C25.8914 21.6717 25.1567 22.6594 24.2904 23.5247Z" fill="#0082B0"/>
</g>
<defs>
<clipPath id="clip0_14_2157">
<rect width="30" height="30" fill="white" transform="translate(0.00354004 0.015625)"/>
</clipPath>
</defs>
</svg>
