<svg width="33" height="33" viewBox="0 0 33 33" fill="none" xmlns="http://www.w3.org/2000/svg">
<path d="M32.3369 16.0156C32.3369 18.8242 31.5976 21.5833 30.1933 24.0156L16.3369 16.0156H32.3369Z" fill="#F45542"/>
<path d="M30.1923 24.0172C28.7878 26.4494 26.7677 28.4689 24.3353 29.8729L16.3369 16.0156L30.1923 24.0172Z" fill="#DD3242"/>
<path d="M24.335 29.8729C21.9026 31.2769 19.1434 32.0159 16.3348 32.0156L16.3365 16.0156L24.335 29.8729Z" fill="#AF2F79"/>
<path d="M0.336853 16.0156C0.336842 18.8242 1.07614 21.5833 2.48045 24.0156L16.3369 16.0156H0.336853Z" fill="#2656AB"/>
<path d="M2.48151 24.0172C3.88607 26.4494 5.90611 28.4689 8.33859 29.8729L16.337 16.0156L2.48151 24.0172Z" fill="#7943A3"/>
<path d="M8.3382 29.8729C10.7706 31.2769 13.5298 32.0159 16.3384 32.0156L16.3367 16.0156L8.3382 29.8729Z" fill="#A23CA2"/>
<path d="M0.336853 16.0156C0.336842 13.207 1.07614 10.4479 2.48045 8.01562L16.3369 16.0156H0.336853Z" fill="#019A85"/>
<path d="M2.48151 8.01588C3.88607 5.58372 5.90611 3.56415 8.33859 2.16016L16.337 16.0175L2.48151 8.01588Z" fill="#01AE5C"/>
<path d="M8.3382 2.15839C10.7706 0.754353 13.5298 0.0153403 16.3384 0.0156251L16.3367 16.0156L8.3382 2.15839Z" fill="#A1CF49"/>
<path d="M32.3369 16.0156C32.3369 13.207 31.5976 10.4479 30.1933 8.01562L16.3369 16.0156H32.3369Z" fill="#F97827"/>
<path d="M30.1923 8.01588C28.7878 5.58372 26.7677 3.56415 24.3353 2.16016L16.3369 16.0175L30.1923 8.01588Z" fill="#FCA313"/>
<path d="M24.335 2.15839C21.9026 0.754353 19.1434 0.0153403 16.3348 0.0156251L16.3365 16.0156L24.335 2.15839Z" fill="#FFE503"/>
</svg>
