<svg width="40" height="40" viewBox="0 0 40 40" fill="none" xmlns="http://www.w3.org/2000/svg">
<circle cx="20" cy="20" r="18.5" stroke="#00B0A0" stroke-width="3"/>
<path d="M19.5135 20.0158C18.961 20.0158 18.4311 19.7963 18.0404 19.4056C17.6497 19.0149 17.4302 18.485 17.4302 17.9325C17.4302 17.3799 17.6497 16.85 18.0404 16.4593C18.4311 16.0686 18.961 15.8491 19.5135 15.8491C20.066 15.8491 20.5959 16.0686 20.9866 16.4593C21.3773 16.85 21.5968 17.3799 21.5968 17.9325C21.5968 18.206 21.543 18.477 21.4383 18.7297C21.3336 18.9825 21.1801 19.2121 20.9866 19.4056C20.7932 19.599 20.5635 19.7525 20.3108 19.8572C20.058 19.9619 19.7871 20.0158 19.5135 20.0158ZM19.5135 12.0991C17.9664 12.0991 16.4827 12.7137 15.3887 13.8077C14.2948 14.9016 13.6802 16.3854 13.6802 17.9325C13.6802 22.3075 19.5135 28.7658 19.5135 28.7658C19.5135 28.7658 25.3468 22.3075 25.3468 17.9325C25.3468 16.3854 24.7323 14.9016 23.6383 13.8077C22.5443 12.7137 21.0606 12.0991 19.5135 12.0991Z" fill="#2D3E52"/>
</svg>
