<svg width="55" height="55" viewBox="0 0 55 55" fill="none" xmlns="http://www.w3.org/2000/svg">
<circle cx="27.0376" cy="27.8018" r="25.2268" stroke="#FB6896" stroke-width="3.60403"/>
<path d="M18 21.7739H36V19.7739H18C16.9 19.7739 16 20.6739 16 21.7739V33.7739C16 34.8739 16.9 35.7739 18 35.7739H22V33.7739H18V21.7739ZM28 27.7739H24V29.5539C23.39 30.1039 23 30.8839 23 31.7739C23 32.6639 23.39 33.4439 24 33.9939V35.7739H28V33.9939C28.61 33.4439 29 32.6539 29 31.7739C29 30.8939 28.61 30.1039 28 29.5539V27.7739ZM26 33.2739C25.17 33.2739 24.5 32.6039 24.5 31.7739C24.5 30.9439 25.17 30.2739 26 30.2739C26.83 30.2739 27.5 30.9439 27.5 31.7739C27.5 32.6039 26.83 33.2739 26 33.2739ZM37 23.7739H31C30.5 23.7739 30 24.2739 30 24.7739V34.7739C30 35.2739 30.5 35.7739 31 35.7739H37C37.5 35.7739 38 35.2739 38 34.7739V24.7739C38 24.2739 37.5 23.7739 37 23.7739ZM36 33.7739H32V25.7739H36V33.7739Z" fill="#FB6896"/>
</svg>
