<svg width="55" height="55" viewBox="0 0 55 55" fill="none" xmlns="http://www.w3.org/2000/svg">
<circle cx="27.0897" cy="27.8018" r="25.2268" stroke="#31CC2E" stroke-width="3.60403"/>
<path d="M25.0521 19.7739C22.8521 19.7739 21.0521 21.5739 21.0521 23.7739C21.0521 25.9739 22.8521 27.7739 25.0521 27.7739C27.2521 27.7739 29.0521 25.9739 29.0521 23.7739C29.0521 21.5739 27.2521 19.7739 25.0521 19.7739ZM25.0521 25.7739C23.9521 25.7739 23.0521 24.8739 23.0521 23.7739C23.0521 22.6739 23.9521 21.7739 25.0521 21.7739C26.1521 21.7739 27.0521 22.6739 27.0521 23.7739C27.0521 24.8739 26.1521 25.7739 25.0521 25.7739ZM37.9521 36.9739L33.8521 32.8739C34.2521 31.8739 34.0521 30.5739 33.1521 29.7739C32.2521 28.8739 30.9521 28.6739 29.8521 29.1739L31.7521 31.0739L30.3521 32.4739L28.3521 30.4739C27.8521 31.5739 28.0521 32.8739 28.9521 33.8739C29.8521 34.7739 31.0521 34.9739 32.0521 34.5739L36.1521 38.6739C36.3521 38.8739 36.6521 38.8739 36.7521 38.6739L37.7521 37.6739C38.0521 37.3739 38.0521 37.0739 37.9521 36.9739ZM24.1521 30.7739C24.0521 31.0739 24.0521 31.4739 24.0521 31.7739C24.0521 32.4739 24.1521 33.1739 24.3521 33.7739H19.0521V32.7739C19.0521 32.2739 20.8521 30.9739 24.1521 30.7739ZM25.0521 28.7739C20.6521 28.7739 17.0521 30.5739 17.0521 32.7739V35.7739H28.0521C26.8521 34.8739 26.0521 33.3739 26.0521 31.7739C26.0521 30.6739 26.3521 29.6739 26.9521 28.8739C26.3521 28.8739 25.7521 28.7739 25.0521 28.7739Z" fill="#31CC2E"/>
</svg>
