<svg width="30" height="30" viewBox="0 0 30 30" fill="none" xmlns="http://www.w3.org/2000/svg">
<circle cx="15" cy="15" r="13.5" fill="#2D3E52" stroke="#2D3E52" stroke-width="3"/>
<path d="M18.1821 15H26.364" stroke="white" stroke-width="2" stroke-linecap="round"/>
<path d="M3.63647 15H11.8184" stroke="white" stroke-width="2" stroke-linecap="round"/>
<path d="M15.0002 11.8176L15.0002 3.63572" stroke="white" stroke-width="2" stroke-linecap="round"/>
<path d="M15.0002 26.3633L15.0002 18.1814" stroke="white" stroke-width="2" stroke-linecap="round"/>
<circle cx="15.0003" cy="14.9991" r="1.54548" fill="white" stroke="white"/>
<g clip-path="url(#clip0_6388_30994)">
<path d="M8.15809 5.41984C8.02881 5.36238 7.88123 5.36238 7.75195 5.41984L5.2857 6.51595C5.10514 6.5962 4.98877 6.77527 4.98877 6.97286V8.62542C4.98877 10.412 6.1961 12.0854 7.8369 12.5493C7.91409 12.5711 7.99595 12.5711 8.07314 12.5493C9.71394 12.0854 10.9213 10.412 10.9213 8.62542V6.97286C10.9213 6.77527 10.8049 6.5962 10.6243 6.51595L8.15809 5.41984ZM5.64794 8.95501L9.69325 8.95212C9.99486 8.9519 10.2302 9.21834 10.1477 9.50846C9.85215 10.5483 9.12744 11.4332 8.18274 11.8169C8.0412 11.8744 7.88156 11.8478 7.75557 11.7614L6.43935 10.8584C6.35334 10.7994 6.28794 10.715 6.2523 10.617L5.64794 8.95501V7.07638V7.1423V8.95501Z" fill="white"/>
<path d="M8.61423 10.5679L7.95507 11.0974L7.2959 10.5679" stroke="white" stroke-width="0.8" stroke-miterlimit="10" stroke-linecap="round" stroke-linejoin="round"/>
<path d="M7.95508 9.61426V11.0825" stroke="white" stroke-width="0.8" stroke-miterlimit="10" stroke-linecap="round" stroke-linejoin="round"/>
</g>
<path d="M20.1751 11.35C20.4513 11.35 20.6751 11.1262 20.6751 10.85V9.64504C20.6751 9.3689 20.899 9.14504 21.1751 9.14504H21.6451C21.9213 9.14504 22.1451 9.3689 22.1451 9.64504V10.85C22.1451 11.1262 22.369 11.35 22.6451 11.35H23.4826C23.7588 11.35 23.9826 11.1262 23.9826 10.85V8.71578C23.9826 8.54693 24.1195 8.41004 24.2884 8.41004C24.5686 8.41004 24.7012 8.06449 24.4929 7.87704L21.7446 5.40357C21.5544 5.23244 21.2658 5.23244 21.0756 5.40357L18.3273 7.87704C18.1191 8.06449 18.2517 8.41004 18.5319 8.41004C18.7007 8.41004 18.8376 8.54693 18.8376 8.71578V10.85C18.8376 11.1262 19.0615 11.35 19.3376 11.35H20.1751Z" fill="white"/>
<g clip-path="url(#clip1_6388_30994)">
<path d="M21.955 18.1592C22.3878 18.1592 22.8164 18.2444 23.2163 18.4101C23.6161 18.5757 23.9795 18.8185 24.2855 19.1245C24.5916 19.4306 24.8343 19.7939 25 20.1938C25.1656 20.5936 25.2508 21.0222 25.2508 21.455C25.2508 22.3291 24.9036 23.1674 24.2855 23.7855C23.6674 24.4036 22.8291 24.7508 21.955 24.7508C21.5222 24.7508 21.0936 24.6656 20.6938 24.5C20.2939 24.3343 19.9306 24.0916 19.6245 23.7855C19.0064 23.1674 18.6592 22.3291 18.6592 21.455C18.6592 20.5809 19.0064 19.7426 19.6245 19.1245C20.2426 18.5064 21.0809 18.1592 21.955 18.1592ZM23.6029 22.7733V22.4438L23.2733 22.1142V21.254C23.2733 20.8947 23.1844 20.5783 23.013 20.3114C22.8449 20.0444 22.601 19.8763 22.2846 19.8071V19.6423C22.2846 19.5549 22.2499 19.4711 22.1881 19.4093C22.1263 19.3474 22.0424 19.3127 21.955 19.3127C21.8676 19.3127 21.7838 19.3474 21.722 19.4093C21.6602 19.4711 21.6254 19.5549 21.6254 19.6423V19.8071C21.309 19.8763 21.0651 20.0444 20.8971 20.3114C20.7257 20.5783 20.6367 20.8947 20.6367 21.254V22.1142L20.3071 22.4438V22.7733H23.6029ZM22.4494 23.1029H21.4606C21.4606 23.234 21.5127 23.3598 21.6054 23.4525C21.6982 23.5452 21.8239 23.5973 21.955 23.5973C22.0861 23.5973 22.2119 23.5452 22.3046 23.4525C22.3973 23.3598 22.4494 23.234 22.4494 23.1029Z" fill="white"/>
</g>
<path d="M5.10254 20.8075C5.10254 20.5313 5.3264 20.3075 5.60254 20.3075H6.36543C6.49804 20.3075 6.62522 20.2548 6.71899 20.161L7.55649 19.3235C7.87147 19.0085 8.41004 19.2316 8.41004 19.6771V23.1429C8.41004 23.5883 7.87147 23.8114 7.55649 23.4964L6.71899 22.6589C6.62522 22.5651 6.49804 22.5125 6.36543 22.5125H5.60254C5.3264 22.5125 5.10254 22.2886 5.10254 22.0125V20.8075ZM9.74331 21.7635C9.93857 21.5683 9.93857 21.2517 9.74331 21.0564L9.40413 20.7172C9.26104 20.5741 9.26104 20.3421 9.40413 20.1991C9.54722 20.056 9.77921 20.056 9.9223 20.1991L10.2615 20.5382C10.4567 20.7335 10.7733 20.7335 10.9686 20.5382L11.3078 20.1991C11.4509 20.056 11.6829 20.056 11.826 20.1991C11.969 20.3421 11.969 20.5741 11.826 20.7172L11.4868 21.0564C11.2915 21.2517 11.2915 21.5683 11.4868 21.7635L11.826 22.1027C11.969 22.2458 11.969 22.4778 11.826 22.6209C11.6829 22.764 11.4509 22.764 11.3078 22.6209L10.9686 22.2817C10.7733 22.0864 10.4567 22.0864 10.2615 22.2817L9.9223 22.6209C9.77921 22.764 9.54722 22.764 9.40413 22.6209C9.26104 22.4778 9.26104 22.2458 9.40413 22.1027L9.74331 21.7635Z" fill="white"/>
<defs>
<clipPath id="clip0_6388_30994">
<rect width="7.91" height="7.91" fill="white" transform="translate(4 5)"/>
</clipPath>
<clipPath id="clip1_6388_30994">
<rect width="7.91" height="7.91" fill="white" transform="translate(18 17.5)"/>
</clipPath>
</defs>
</svg>
