<svg width="24" height="24" viewBox="0 0 24 24" fill="none" xmlns="http://www.w3.org/2000/svg">
<g clip-path="url(#clip0_6332_42278)">
<mask id="mask0_6332_42278" style="mask-type:alpha" maskUnits="userSpaceOnUse" x="0" y="-1" width="25" height="25">
<rect x="0.0112305" y="-0.0102539" width="24" height="24" fill="#D9D9D9"/>
</mask>
<g mask="url(#mask0_6332_42278)">
<path d="M17.5362 14.9898L15.3612 13.7398L18.8612 11.1398L21.0112 12.3898L17.5362 14.9898ZM12.8112 11.9398L15.4112 9.96478L8.51123 5.98978L7.01123 8.58978L12.8112 11.9398ZM4.01123 19.9898V17.9898H9.01123V12.0398L6.01123 10.3148C5.5279 10.0314 5.2154 9.62728 5.07373 9.10228C4.93206 8.57728 5.0029 8.07311 5.28623 7.58978L6.78623 4.98978C7.06956 4.50645 7.47373 4.19395 7.99873 4.05228C8.52373 3.91061 9.0279 3.98145 9.51123 4.26478L19.0362 9.76478L12.9362 14.3148L11.0112 13.2148V17.9898C11.0112 18.5398 10.8154 19.0106 10.4237 19.4023C10.0321 19.7939 9.56123 19.9898 9.01123 19.9898H4.01123Z" fill="#0082B0"/>
</g>
</g>
<defs>
<clipPath id="clip0_6332_42278">
<rect width="24" height="24" fill="white"/>
</clipPath>
</defs>
</svg>
