<svg width="25" height="25" viewBox="0 0 25 25" fill="none" xmlns="http://www.w3.org/2000/svg">
    <path
        d="M13.0273 23.0204V17.0204L10.9273 15.0204L9.92734 19.4204L3.02734 18.0204L3.42734 16.0204L8.22734 17.0204L9.82734 8.92039L8.02734 9.62039V13.0204H6.02734V8.32039L9.97734 6.62039C10.5607 6.37039 10.99 6.20772 11.2653 6.13239C11.54 6.05772 11.794 6.02039 12.0273 6.02039C12.3773 6.02039 12.7023 6.11205 13.0023 6.29539C13.3023 6.47872 13.544 6.72039 13.7273 7.02039L14.7273 8.62039C15.1607 9.32039 15.748 9.89539 16.4893 10.3454C17.2313 10.7954 18.0773 11.0204 19.0273 11.0204V13.0204C17.9273 13.0204 16.8983 12.7911 15.9403 12.3324C14.9817 11.8744 14.1773 11.2704 13.5273 10.5204L12.9273 13.5204L15.0273 15.5204V23.0204H13.0273ZM13.5273 5.52039C12.9773 5.52039 12.5067 5.32439 12.1153 4.93239C11.7233 4.54105 11.5273 4.07039 11.5273 3.52039C11.5273 2.97039 11.7233 2.49939 12.1153 2.10739C12.5067 1.71605 12.9773 1.52039 13.5273 1.52039C14.0773 1.52039 14.5483 1.71605 14.9403 2.10739C15.3317 2.49939 15.5273 2.97039 15.5273 3.52039C15.5273 4.07039 15.3317 4.54105 14.9403 4.93239C14.5483 5.32439 14.0773 5.52039 13.5273 5.52039Z"
        fill="white" />
</svg>
