<svg width="40" height="40" viewBox="0 0 40 40" fill="none" xmlns="http://www.w3.org/2000/svg">
<circle cx="20" cy="20" r="18.5" stroke="#CB2020" stroke-width="3"/>
<path d="M20.5403 32.4322V25.9457L18.27 23.7836L17.189 28.5403L9.72949 27.0268L10.1619 24.8646L15.3511 25.9457L17.0808 17.189L15.1349 17.9457V21.6214H12.9727V16.5403L17.243 14.7025C17.8736 14.4322 18.3378 14.2564 18.6354 14.1749C18.9324 14.0942 19.207 14.0538 19.4592 14.0538C19.8376 14.0538 20.189 14.1529 20.5133 14.3511C20.8376 14.5493 21.0989 14.8106 21.2971 15.1349L22.3781 16.8646C22.8466 17.6214 23.4816 18.243 24.283 18.7295C25.0852 19.216 25.9998 19.4592 27.0268 19.4592V21.6214C25.8376 21.6214 24.7252 21.3735 23.6895 20.8776C22.6531 20.3825 21.7835 19.7295 21.0808 18.9187L20.4322 22.1619L22.7025 24.3241V32.4322H20.5403ZM21.0808 13.5133C20.4862 13.5133 19.9774 13.3014 19.5544 12.8776C19.1306 12.4546 18.9187 11.9457 18.9187 11.3511C18.9187 10.7565 19.1306 10.2473 19.5544 9.82356C19.9774 9.4005 20.4862 9.18896 21.0808 9.18896C21.6754 9.18896 22.1846 9.4005 22.6084 9.82356C23.0315 10.2473 23.243 10.7565 23.243 11.3511C23.243 11.9457 23.0315 12.4546 22.6084 12.8776C22.1846 13.3014 21.6754 13.5133 21.0808 13.5133Z" fill="#2D3E52"/>
</svg>
