<svg width="23" height="26" viewBox="0 0 23 26" fill="none" xmlns="http://www.w3.org/2000/svg">
<path d="M21.4849 13.0227C20.5544 11.9373 20.1316 10.9967 20.1316 9.39867V8.85533C20.1316 6.77293 19.6517 5.43123 18.6085 4.08952C17.0007 2.00585 14.2939 0.75 11.6441 0.75H11.5314C8.93731 0.75 6.31536 1.94818 4.67964 3.94728C3.57946 5.31589 3.04393 6.71526 3.04393 8.85533V9.39867C3.04393 10.9967 2.64893 11.9373 1.69054 13.0227C0.985363 13.8223 0.76001 14.8501 0.76001 15.9624C0.76001 17.076 1.12589 18.1306 1.86019 18.9879C2.81858 20.0157 4.17196 20.6718 5.55447 20.7859C7.55607 21.014 9.55766 21.0998 11.5884 21.0998C13.6178 21.0998 15.6194 20.9563 17.6223 20.7859C19.0035 20.6718 20.3569 20.0157 21.3153 18.9879C22.0483 18.1306 22.4155 17.076 22.4155 15.9624C22.4155 14.8501 22.1901 13.8223 21.4849 13.0227Z" fill="#FFFFFF"/>
<path opacity="0.4" d="M14.1466 22.4749C13.5098 22.3391 9.62941 22.3391 8.9926 22.4749C8.4482 22.6005 7.8595 22.8927 7.8595 23.5334C7.89115 24.1447 8.24943 24.6842 8.74572 25.0263L8.74445 25.0276C9.38633 25.5274 10.1396 25.8452 10.9284 25.9593C11.3487 26.0169 11.7766 26.0144 12.2121 25.9593C12.9996 25.8452 13.7529 25.5274 14.3948 25.0276L14.3935 25.0263C14.8898 24.6842 15.2481 24.1447 15.2797 23.5334C15.2797 22.8927 14.691 22.6005 14.1466 22.4749Z" fill="#FFFFFF"/>
</svg>
