<svg width="40" height="40" viewBox="0 0 40 40" fill="none" xmlns="http://www.w3.org/2000/svg">
<circle cx="20" cy="20" r="18.5" stroke="#CB2020" stroke-width="3"/>
<path d="M27.5673 24.5943C27.5673 24.9367 27.3781 25.234 27.0898 25.3871L19.9727 29.3871C19.8286 29.4952 19.6484 29.5493 19.4592 29.5493C19.27 29.5493 19.0898 29.4952 18.9457 29.3871L11.8286 25.3871C11.5403 25.234 11.3511 24.9367 11.3511 24.5943V16.4862C11.3511 16.1439 11.5403 15.8466 11.8286 15.6934L18.9457 11.6934C19.0898 11.5853 19.27 11.5312 19.4592 11.5312C19.6484 11.5312 19.8286 11.5853 19.9727 11.6934L27.0898 15.6934C27.3781 15.8466 27.5673 16.1439 27.5673 16.4862V24.5943ZM19.4592 13.4682L17.7565 14.4322L23.0628 17.4862L24.8286 16.4862L19.4592 13.4682ZM14.0898 16.4862L19.4592 19.5042L21.2249 18.5132L15.9277 15.4502L14.0898 16.4862ZM13.1529 24.0628L18.5583 27.1078V21.0628L13.1529 18.0267V24.0628ZM25.7655 24.0628V18.0267L20.3601 21.0628V27.1078L25.7655 24.0628Z" fill="#2D3E52"/>
</svg>
