<svg width="40" height="40" viewBox="0 0 40 40" fill="none" xmlns="http://www.w3.org/2000/svg">
<circle cx="20" cy="20" r="18.5" stroke="#00B042" stroke-width="3"/>
<g clip-path="url(#clip0_5440_22925)">
<path d="M21.245 12.3262H12.2795C11.8986 12.3262 11.5898 12.6349 11.5898 13.0158V24.0503C11.5898 24.4312 11.8986 24.74 12.2795 24.74H21.245C21.6259 24.74 21.9347 24.4312 21.9347 24.0503V13.0158C21.9347 12.6349 21.6259 12.3262 21.245 12.3262Z" stroke="#2D3E52" stroke-linejoin="round"/>
<path d="M14.6934 10.9468V13.0157" stroke="#2D3E52" stroke-width="2" stroke-linecap="round" stroke-linejoin="round"/>
<path d="M18.8311 10.9468V13.0157" stroke="#2D3E52" stroke-width="2" stroke-linecap="round" stroke-linejoin="round"/>
<path d="M14.0034 16.1191H19.5207" stroke="#2D3E52" stroke-linecap="round" stroke-linejoin="round"/>
<path d="M14.0034 18.8779H18.1414" stroke="#2D3E52" stroke-linecap="round" stroke-linejoin="round"/>
<path d="M14.0034 21.6362H16.762" stroke="#2D3E52" stroke-linecap="round" stroke-linejoin="round"/>
</g>
<path d="M25.167 25.1996H24.6928V26.7801L26.0457 27.5829L26.2733 27.2005L25.167 26.543V25.1996ZM25.0089 23.6191C24.2544 23.6191 23.5308 23.9189 22.9973 24.4524C22.4638 24.9859 22.1641 25.7095 22.1641 26.464H21.2158L22.4675 27.7378L23.7446 26.464H22.7963C22.7963 25.8771 23.0294 25.3143 23.4444 24.8994C23.8593 24.4844 24.4221 24.2513 25.0089 24.2513C25.5958 24.2513 26.1586 24.4844 26.5735 24.8994C26.9885 25.3143 27.2216 25.8771 27.2216 26.464C27.2216 27.0508 26.9885 27.6136 26.5735 28.0286C26.1586 28.4435 25.5958 28.6766 25.0089 28.6766C24.3989 28.6766 23.8457 28.4269 23.4474 28.0255L22.9986 28.4743C23.5138 28.9927 24.2187 29.3088 25.0089 29.3088C25.7634 29.3088 26.487 29.0091 27.0205 28.4756C27.554 27.9421 27.8538 27.2185 27.8538 26.464C27.8538 25.7095 27.554 24.9859 27.0205 24.4524C26.487 23.9189 25.7634 23.6191 25.0089 23.6191Z" fill="#2D3E52"/>
<defs>
<clipPath id="clip0_5440_22925">
<rect width="16.5518" height="16.5518" fill="white" transform="translate(8.48633 9.56738)"/>
</clipPath>
</defs>
</svg>
