<svg width="25" height="25" viewBox="0 0 25 25" fill="none" xmlns="http://www.w3.org/2000/svg">
    <path
        d="M12.9633 24.0244C6.34619 24.0244 0.963257 18.6415 0.963257 12.0244C0.963257 5.40735 6.34619 0.0244141 12.9633 0.0244141C19.5803 0.0244141 24.9633 5.40735 24.9633 12.0244C24.9633 18.6415 19.5803 24.0244 12.9633 24.0244ZM12.9633 1.52441C7.17326 1.52441 2.46326 6.23441 2.46326 12.0244C2.46326 17.8144 7.17326 22.5244 12.9633 22.5244C18.7533 22.5244 23.4633 17.8144 23.4633 12.0244C23.4633 6.23441 18.7533 1.52441 12.9633 1.52441Z"
        fill="white" />
    <path
        d="M18.2133 12.7744H7.71326C7.29926 12.7744 6.96326 12.4384 6.96326 12.0244C6.96326 11.6104 7.29926 11.2744 7.71326 11.2744H18.2133C18.6273 11.2744 18.9633 11.6104 18.9633 12.0244C18.9633 12.4384 18.6273 12.7744 18.2133 12.7744Z"
        fill="white" />
    <path
        d="M12.9633 18.0244C12.5493 18.0244 12.2133 17.6884 12.2133 17.2744V6.77441C12.2133 6.36041 12.5493 6.02441 12.9633 6.02441C13.3773 6.02441 13.7133 6.36041 13.7133 6.77441V17.2744C13.7133 17.6884 13.3773 18.0244 12.9633 18.0244Z"
        fill="white" />
</svg>
