<svg width="25" height="24" viewBox="0 0 25 24" fill="none" xmlns="http://www.w3.org/2000/svg">
<path d="M12.8281 24.0033C6.21106 24.0033 0.828125 18.6204 0.828125 12.0033C0.828125 5.38623 6.21106 0.0032959 12.8281 0.0032959C19.4452 0.0032959 24.8281 5.38623 24.8281 12.0033C24.8281 18.6204 19.4452 24.0033 12.8281 24.0033ZM12.8281 1.5033C7.03813 1.5033 2.32812 6.2133 2.32812 12.0033C2.32812 17.7933 7.03813 22.5033 12.8281 22.5033C18.6181 22.5033 23.3281 17.7933 23.3281 12.0033C23.3281 6.2133 18.6181 1.5033 12.8281 1.5033Z" fill="#0482B0"/>
<path d="M18.0781 12.7533H7.57812C7.16413 12.7533 6.82812 12.4173 6.82812 12.0033C6.82812 11.5893 7.16413 11.2533 7.57812 11.2533H18.0781C18.4921 11.2533 18.8281 11.5893 18.8281 12.0033C18.8281 12.4173 18.4921 12.7533 18.0781 12.7533Z" fill="#0482B0"/>
</svg>
