<svg width="61" height="61" viewBox="0 0 61 61" fill="none" xmlns="http://www.w3.org/2000/svg">
<circle cx="30.2874" cy="30.0764" r="27.9985" stroke="#AC00B0" stroke-width="4"/>
<path d="M34.9001 36.197C35.4305 36.197 35.9392 36.4077 36.3143 36.7828C36.6894 37.1579 36.9001 37.6666 36.9001 38.197C36.9001 38.7275 36.6894 39.2362 36.3143 39.6112C35.9392 39.9863 35.4305 40.197 34.9001 40.197C33.7901 40.197 32.9001 39.297 32.9001 38.197C32.9001 37.087 33.7901 36.197 34.9001 36.197ZM18.9001 20.197H22.1701L23.1101 22.197H37.9001C38.1653 22.197 38.4197 22.3024 38.6072 22.4899C38.7947 22.6775 38.9001 22.9318 38.9001 23.197C38.9001 23.367 38.8501 23.537 38.7801 23.697L35.2001 30.167C34.8601 30.777 34.2001 31.197 33.4501 31.197H26.0001L25.1001 32.827L25.0701 32.947C25.0701 33.0133 25.0964 33.0769 25.1433 33.1238C25.1902 33.1707 25.2538 33.197 25.3201 33.197H36.9001V35.197H24.9001C23.7901 35.197 22.9001 34.297 22.9001 33.197C22.9001 32.847 22.9901 32.517 23.1401 32.237L24.5001 29.787L20.9001 22.197H18.9001V20.197ZM24.9001 36.197C25.4305 36.197 25.9392 36.4077 26.3143 36.7828C26.6894 37.1579 26.9001 37.6666 26.9001 38.197C26.9001 38.7275 26.6894 39.2362 26.3143 39.6112C25.9392 39.9863 25.4305 40.197 24.9001 40.197C23.7901 40.197 22.9001 39.297 22.9001 38.197C22.9001 37.087 23.7901 36.197 24.9001 36.197ZM33.9001 29.197L36.6801 24.197H24.0401L26.4001 29.197H33.9001Z" fill="#AC00B0"/>
</svg>
