<svg width="40" height="40" viewBox="0 0 40 40" fill="none" xmlns="http://www.w3.org/2000/svg">
<circle cx="20" cy="20" r="18.5" stroke="#0047B0" stroke-width="3"/>
<path d="M10.9865 14.5675H25.9865V12.9009H10.9865C10.0698 12.9009 9.31982 13.6509 9.31982 14.5675V24.5675C9.31982 25.4842 10.0698 26.2342 10.9865 26.2342H14.3198V24.5675H10.9865V14.5675ZM19.3198 19.5675H15.9865V21.0509C15.4782 21.5092 15.1532 22.1592 15.1532 22.9009C15.1532 23.6425 15.4782 24.2925 15.9865 24.7509V26.2342H19.3198V24.7509C19.8282 24.2925 20.1532 23.6342 20.1532 22.9009C20.1532 22.1675 19.8282 21.5092 19.3198 21.0509V19.5675ZM17.6532 24.1509C16.9615 24.1509 16.4032 23.5925 16.4032 22.9009C16.4032 22.2092 16.9615 21.6509 17.6532 21.6509C18.3448 21.6509 18.9032 22.2092 18.9032 22.9009C18.9032 23.5925 18.3448 24.1509 17.6532 24.1509ZM26.8198 16.2342H21.8198C21.4032 16.2342 20.9865 16.6509 20.9865 17.0675V25.4009C20.9865 25.8175 21.4032 26.2342 21.8198 26.2342H26.8198C27.2365 26.2342 27.6532 25.8175 27.6532 25.4009V17.0675C27.6532 16.6509 27.2365 16.2342 26.8198 16.2342ZM25.9865 24.5675H22.6532V17.9009H25.9865V24.5675Z" fill="#2D3E52"/>
</svg>
