<svg width="40" height="40" viewBox="0 0 40 40" fill="none" xmlns="http://www.w3.org/2000/svg">
<circle cx="20" cy="20" r="18.5" stroke="#CB2020" stroke-width="3"/>
<path d="M16.3966 13.3638C15.2258 13.3638 14.1029 13.8289 13.275 14.6568C12.447 15.4847 11.9819 16.6076 11.9819 17.7784V23.6647C11.9819 24.8355 12.447 25.9584 13.275 26.7863C14.1029 27.6142 15.2258 28.0793 16.3966 28.0793C17.5674 28.0793 18.6903 27.6142 19.5183 26.7863C20.3462 25.9584 20.8113 24.8355 20.8113 23.6647V17.7784C20.8113 16.6076 20.3462 15.4847 19.5183 14.6568C18.6903 13.8289 17.5674 13.3638 16.3966 13.3638ZM13.4535 16.3069H14.925V17.7784H13.4535V16.3069ZM15.6608 16.3069H17.1324V17.7784H15.6608V16.3069ZM17.8682 16.3069H19.3397V17.7784H17.8682V16.3069ZM13.4535 18.5142H14.925V19.9858H13.4535V18.5142ZM15.6608 18.5142H17.1324V19.9858H15.6608V18.5142ZM17.8682 18.5142H19.3397V19.9858H17.8682V18.5142ZM13.4535 20.7216H14.925V22.1931H13.4535V20.7216ZM15.6608 20.7216H17.1324V22.1931H15.6608V20.7216ZM17.8682 20.7216H19.3397V22.1931H17.8682V20.7216ZM16.3966 23.6647C16.7869 23.6647 17.1612 23.8197 17.4372 24.0957C17.7131 24.3716 17.8682 24.7459 17.8682 25.1362C17.8682 25.5265 17.7131 25.9008 17.4372 26.1768C17.1612 26.4527 16.7869 26.6078 16.3966 26.6078C16.0063 26.6078 15.632 26.4527 15.3561 26.1768C15.0801 25.9008 14.925 25.5265 14.925 25.1362C14.925 24.7459 15.0801 24.3716 15.3561 24.0957C15.632 23.8197 16.0063 23.6647 16.3966 23.6647Z" fill="#2D3E52"/>
<path d="M24.1668 25.2097C26.1579 23.2185 26.1579 19.9902 24.1668 17.999" stroke="#2D3E52" stroke-linecap="round" stroke-linejoin="round"/>
<path d="M22.4889 23.6643C23.6267 22.5265 23.6267 20.6818 22.4889 19.5439" stroke="#2D3E52" stroke-linecap="round" stroke-linejoin="round"/>
</svg>
