<svg width="40" height="40" viewBox="0 0 40 40" fill="none" xmlns="http://www.w3.org/2000/svg">
<circle cx="20" cy="20" r="18.5" stroke="#00B042" stroke-width="3"/>
<g clip-path="url(#clip0_5440_22923)">
<path d="M21.5137 19.4326H20.5137V15.4326H22.5137C22.7789 15.4326 23.0332 15.538 23.2208 15.7255C23.4083 15.913 23.5137 16.1674 23.5137 16.4326C23.5137 16.6978 23.619 16.9522 23.8066 17.1397C23.9941 17.3273 24.2485 17.4326 24.5137 17.4326C24.7789 17.4326 25.0332 17.3273 25.2208 17.1397C25.4083 16.9522 25.5137 16.6978 25.5137 16.4326C25.5137 15.637 25.1976 14.8739 24.635 14.3113C24.0724 13.7487 23.3093 13.4326 22.5137 13.4326H20.5137V11.4326C20.5137 11.1674 20.4083 10.913 20.2208 10.7255C20.0332 10.538 19.7789 10.4326 19.5137 10.4326C19.2485 10.4326 18.9941 10.538 18.8066 10.7255C18.619 10.913 18.5137 11.1674 18.5137 11.4326V13.4326H17.5137C16.4528 13.4326 15.4354 13.854 14.6852 14.6042C13.9351 15.3543 13.5137 16.3718 13.5137 17.4326C13.5137 18.4935 13.9351 19.5109 14.6852 20.261C15.4354 21.0112 16.4528 21.4326 17.5137 21.4326H18.5137V25.4326H16.5137C16.2485 25.4326 15.9941 25.3273 15.8066 25.1397C15.619 24.9522 15.5137 24.6978 15.5137 24.4326C15.5137 24.1674 15.4083 23.913 15.2208 23.7255C15.0332 23.538 14.7789 23.4326 14.5137 23.4326C14.2485 23.4326 13.9941 23.538 13.8066 23.7255C13.619 23.913 13.5137 24.1674 13.5137 24.4326C13.5137 25.2283 13.8297 25.9913 14.3924 26.5539C14.955 27.1165 15.718 27.4326 16.5137 27.4326H18.5137V29.4326C18.5137 29.6978 18.619 29.9522 18.8066 30.1397C18.9941 30.3273 19.2485 30.4326 19.5137 30.4326C19.7789 30.4326 20.0332 30.3273 20.2208 30.1397C20.4083 29.9522 20.5137 29.6978 20.5137 29.4326V27.4326H21.5137C22.5745 27.4326 23.592 27.0112 24.3421 26.261C25.0922 25.5109 25.5137 24.4935 25.5137 23.4326C25.5137 22.3718 25.0922 21.3543 24.3421 20.6042C23.592 19.854 22.5745 19.4326 21.5137 19.4326ZM18.5137 19.4326H17.5137C16.9832 19.4326 16.4745 19.2219 16.0995 18.8468C15.7244 18.4718 15.5137 17.9631 15.5137 17.4326C15.5137 16.9022 15.7244 16.3935 16.0995 16.0184C16.4745 15.6433 16.9832 15.4326 17.5137 15.4326H18.5137V19.4326ZM21.5137 25.4326H20.5137V21.4326H21.5137C22.0441 21.4326 22.5528 21.6433 22.9279 22.0184C23.303 22.3935 23.5137 22.9022 23.5137 23.4326C23.5137 23.963 23.303 24.4718 22.9279 24.8468C22.5528 25.2219 22.0441 25.4326 21.5137 25.4326Z" fill="#2D3E52"/>
</g>
<defs>
<clipPath id="clip0_5440_22923">
<rect width="25.9459" height="25.9459" fill="white" transform="translate(7 7)"/>
</clipPath>
</defs>
</svg>
