<svg width="25" height="25" viewBox="0 0 25 25" fill="none" xmlns="http://www.w3.org/2000/svg">
    <path fill-rule="evenodd" clip-rule="evenodd"
        d="M11.8535 4.03201C9.00332 4.20761 6.51653 6.08672 5.58388 8.76957C5.34572 9.45468 5.18425 10.3303 5.18425 10.9369V11.0798L5.04247 11.0935C4.83006 11.114 4.64588 11.1867 4.47042 11.3192C4.17972 11.5387 4.02734 11.8439 4.02734 12.2069C4.02734 12.7328 4.30398 13.1229 4.80764 13.3072L4.96875 13.3661H12.2618H19.5549L19.6975 13.3172C20.1604 13.1584 20.4563 12.7783 20.507 12.2773C20.5417 11.9349 20.3127 11.4927 19.9836 11.2663C19.8604 11.1815 19.5746 11.0864 19.4431 11.0864H19.3394L19.339 10.9446C19.337 10.1368 19.1022 9.08869 18.7378 8.2606C17.7917 6.11029 15.8303 4.55684 13.5307 4.13636C12.984 4.03641 12.386 3.99921 11.8535 4.03201ZM8.16726 14.4456C6.92724 14.5276 5.83076 14.9366 5.16692 15.5648C4.77661 15.9342 4.51996 16.338 4.40887 16.7575C4.34474 16.9997 4.33987 17.4112 4.39828 17.6507C4.49496 18.047 4.69948 18.4022 5.02496 18.7391C5.32043 19.0449 5.56982 19.2339 5.90886 19.4088C6.6376 19.7847 7.35906 19.9639 8.34873 20.0149C9.21 20.0592 10.2903 19.8331 11.0534 19.4487C11.501 19.2232 11.8255 19.1402 12.2618 19.1397C12.7211 19.1391 12.9239 19.1912 13.48 19.4528C14.2093 19.7959 14.807 19.947 15.6436 20.0001C16.9685 20.0841 18.291 19.729 19.1465 19.0596C19.7519 18.5859 20.0919 18.0341 20.1589 17.4167C20.1814 17.2088 20.1796 17.1416 20.1463 16.9423C20.0578 16.4127 19.8496 16.0418 19.3928 15.5997C18.8391 15.0639 18.0429 14.6999 17.0335 14.5212C16.7563 14.4721 16.6016 14.4594 16.1602 14.4496C15.5515 14.4361 15.274 14.4577 14.7798 14.5568C14.3554 14.642 13.9809 14.767 13.5494 14.9675C12.9258 15.2572 12.6989 15.3178 12.2505 15.3146C11.816 15.3116 11.6189 15.2586 11.0195 14.984C10.4528 14.7243 10.0511 14.5986 9.51565 14.5134C9.24704 14.4707 8.63941 14.4172 8.50328 14.4243C8.46819 14.4261 8.31698 14.4357 8.16726 14.4456ZM8.87349 16.3056C9.62122 16.4096 10.1304 16.7214 10.2221 17.1314C10.2854 17.4143 10.0691 17.7087 9.64175 17.9215C9.4184 18.0326 9.21417 18.0904 8.89602 18.1325C8.18618 18.2264 7.45975 18.0548 7.07369 17.702C6.91031 17.5527 6.8389 17.4257 6.82366 17.2574C6.81315 17.1415 6.82016 17.1042 6.8725 16.9972C7.02825 16.6788 7.51293 16.404 8.07652 16.3144C8.30693 16.2778 8.64649 16.2741 8.87349 16.3056ZM16.5455 16.3357C16.9793 16.4304 17.263 16.5652 17.4812 16.7802C17.7885 17.083 17.7812 17.3951 17.4596 17.6922C17.2507 17.8851 16.8524 18.0626 16.5038 18.1179C15.8957 18.2146 15.3335 18.143 14.8478 17.9071C14.4961 17.7362 14.2531 17.418 14.2912 17.1781C14.3549 16.7775 14.8664 16.4258 15.5473 16.3146C15.7939 16.2744 16.315 16.2854 16.5455 16.3357Z"
        fill="white" />
</svg>
