<svg width="33" height="31" viewBox="0 0 33 31" fill="none" xmlns="http://www.w3.org/2000/svg">
<rect x="1.00146" y="1" width="30.6287" height="28.0184" rx="5" stroke="#3038F5" stroke-width="2"/>
<path d="M12.8188 11.4404C12.8188 10.623 13.4457 10.0664 14.3598 10.0664C15.2416 10.0664 15.8568 10.5732 15.8568 11.2998C15.8568 11.7598 15.6078 12.1553 14.8754 12.8437L14.0668 13.6143L14.0668 13.667L15.9184 13.667L15.9184 14.4023L12.8686 14.4023L12.8686 13.7842L14.2484 12.4336C14.8432 11.8535 14.9926 11.6338 14.9926 11.3584C14.9926 11.0186 14.7172 10.7783 14.3305 10.7783C13.9203 10.7783 13.6391 11.0479 13.6391 11.4375L13.6391 11.4551L12.8188 11.4551L12.8188 11.4404ZM18.1359 14.5107C17.09 14.5107 16.4572 13.6846 16.4572 12.2812C16.4572 10.8809 17.0958 10.0664 18.1359 10.0664C19.173 10.0664 19.8146 10.8809 19.8146 12.2842C19.8146 13.6816 19.1818 14.5107 18.1359 14.5107ZM18.1359 13.79C18.6222 13.79 18.9181 13.2715 18.9181 12.2812C18.9181 11.2969 18.6193 10.79 18.1359 10.79C17.6554 10.79 17.3536 11.2998 17.3536 12.2812C17.3536 13.2686 17.6525 13.79 18.1359 13.79Z" fill="#3038F5"/>
<ellipse cx="21.5367" cy="9.7971" rx="0.652574" ry="0.652573" fill="#3038F5"/>
<path d="M6.22266 8.21484C6.22266 7.11027 7.11809 6.21484 8.22266 6.21484L24.4102 6.21484C25.5147 6.21484 26.4102 7.11027 26.4102 8.21484L26.4102 18.5715L6.22266 18.5715L6.22266 8.21484Z" stroke="#3038F5" stroke-width="2"/>
<path d="M10.4417 24.7976L12.3994 22.8398L14.3571 24.7976" stroke="#3038F5" stroke-linecap="round"/>
<path d="M21.5376 22.1829L19.5799 24.1406L17.6222 22.1829" stroke="#3038F5" stroke-linecap="round"/>
</svg>
