<svg width="30" height="34" viewBox="0 0 30 34" fill="none" xmlns="http://www.w3.org/2000/svg">
<path d="M21.4849 21.0227C20.5544 19.9373 20.1316 18.9967 20.1316 17.3987V16.8553C20.1316 14.7729 19.6517 13.4312 18.6085 12.0895C17.0007 10.0058 14.2939 8.75 11.6441 8.75H11.5314C8.93731 8.75 6.31536 9.94818 4.67964 11.9473C3.57946 13.3159 3.04393 14.7153 3.04393 16.8553V17.3987C3.04393 18.9967 2.64893 19.9373 1.69054 21.0227C0.985363 21.8223 0.76001 22.8501 0.76001 23.9624C0.76001 25.076 1.12589 26.1306 1.86019 26.9879C2.81858 28.0157 4.17196 28.6718 5.55447 28.7859C7.55607 29.014 9.55766 29.0998 11.5884 29.0998C13.6178 29.0998 15.6194 28.9563 17.6223 28.7859C19.0035 28.6718 20.3569 28.0157 21.3153 26.9879C22.0483 26.1306 22.4155 25.076 22.4155 23.9624C22.4155 22.8501 22.1901 21.8223 21.4849 21.0227Z" fill="#FFFFFF"/>
<path opacity="0.4" d="M14.1466 30.4749C13.5098 30.3391 9.62941 30.3391 8.9926 30.4749C8.4482 30.6005 7.8595 30.8927 7.8595 31.5334C7.89115 32.1447 8.24943 32.6842 8.74572 33.0263L8.74445 33.0276C9.38633 33.5274 10.1396 33.8452 10.9284 33.9593C11.3487 34.0169 11.7766 34.0144 12.2121 33.9593C12.9996 33.8452 13.7529 33.5274 14.3948 33.0276L14.3935 33.0263C14.8898 32.6842 15.2481 32.1447 15.2797 31.5334C15.2797 30.8927 14.691 30.6005 14.1466 30.4749Z" fill="#FFFFFF"/>
<g filter="url(#filter0_d_5960_28475)">
<ellipse cx="17.1779" cy="11.2915" rx="7.29987" ry="7.29152" fill="#ED1727"/>
</g>
<defs>
<filter id="filter0_d_5960_28475" x="5.1551" y="0.0642036" width="24.0456" height="24.0289" filterUnits="userSpaceOnUse" color-interpolation-filters="sRGB">
<feFlood flood-opacity="0" result="BackgroundImageFix"/>
<feColorMatrix in="SourceAlpha" type="matrix" values="0 0 0 0 0 0 0 0 0 0 0 0 0 0 0 0 0 0 127 0" result="hardAlpha"/>
<feOffset dy="0.787159"/>
<feGaussianBlur stdDeviation="2.36148"/>
<feComposite in2="hardAlpha" operator="out"/>
<feColorMatrix type="matrix" values="0 0 0 0 0.929412 0 0 0 0 0.0901961 0 0 0 0 0.152941 0 0 0 0.5 0"/>
<feBlend mode="normal" in2="BackgroundImageFix" result="effect1_dropShadow_5960_28475"/>
<feBlend mode="normal" in="SourceGraphic" in2="effect1_dropShadow_5960_28475" result="shape"/>
</filter>
</defs>
</svg>
