<svg width="21" height="20" viewBox="0 0 21 20" fill="none" xmlns="http://www.w3.org/2000/svg">
<path d="M13.63 18.5377H8.1969C4.10544 18.5377 2.35553 16.7878 2.35553 12.6963V12.588C2.35553 8.88821 3.81379 7.10496 7.08029 6.79664C7.41361 6.77165 7.73026 7.02163 7.76359 7.36328C7.79693 7.70493 7.54694 8.01325 7.19695 8.04658C4.58042 8.28824 3.60547 9.52151 3.60547 12.5964V12.7047C3.60547 16.0962 4.80541 17.2961 8.1969 17.2961H13.63C17.0215 17.2961 18.2214 16.0962 18.2214 12.7047V12.5964C18.2214 9.50484 17.2298 8.27157 14.5633 8.04658C14.2216 8.01325 13.9633 7.71327 13.9966 7.37162C14.0299 7.02997 14.3216 6.77165 14.6716 6.80498C17.9881 7.0883 19.4713 8.87987 19.4713 12.6047V12.713C19.4713 16.7878 17.7214 18.5377 13.63 18.5377Z" fill="#2D3E52"/>
<path d="M10.9137 13.1205C10.572 13.1205 10.2887 12.8372 10.2887 12.4955V3.01266C10.2887 2.67101 10.572 2.3877 10.9137 2.3877C11.2553 2.3877 11.5386 2.67101 11.5386 3.01266V12.4955C11.5386 12.8372 11.2553 13.1205 10.9137 13.1205Z" fill="#2D3E52"/>
<path d="M13.7051 5.49641C13.5468 5.49641 13.3884 5.43808 13.2634 5.31309L10.9136 2.96321L8.56368 5.31309C8.32202 5.55474 7.92204 5.55474 7.68039 5.31309C7.43873 5.07143 7.43873 4.67145 7.68039 4.4298L10.4719 1.63827C10.7136 1.39662 11.1135 1.39662 11.3552 1.63827L14.1467 4.4298C14.3884 4.67145 14.3884 5.07143 14.1467 5.31309C14.0301 5.43808 13.8634 5.49641 13.7051 5.49641Z" fill="#2D3E52"/>
</svg>
