<svg width="40" height="40" viewBox="0 0 40 40" fill="none" xmlns="http://www.w3.org/2000/svg">
<circle cx="20" cy="20" r="18.5" stroke="#CB2020" stroke-width="3"/>
<path d="M19.4592 11.5312C20.4502 11.5312 21.261 12.3421 21.261 13.3331C21.261 14.324 20.4502 15.1349 19.4592 15.1349C18.4682 15.1349 17.6574 14.324 17.6574 13.3331C17.6574 12.3421 18.4682 11.5312 19.4592 11.5312ZM22.9727 17.0267C22.6123 16.6664 21.9817 16.0358 20.8105 16.0358H18.5583C16.0357 16.0358 14.0538 14.0538 14.0538 11.5312H12.252C12.252 14.4141 14.1438 16.7565 16.7565 17.5673V29.5493H18.5583V24.1439H20.3601V29.5493H22.1619V18.8285L25.7655 22.3421L27.0267 21.0808L22.9727 17.0267Z" fill="#2D3E52"/>
</svg>
