<svg width="55" height="55" viewBox="0 0 55 55" fill="none" xmlns="http://www.w3.org/2000/svg">
<circle cx="27.0897" cy="27.7637" r="25.2268" stroke="#009BB0" stroke-width="3.60403"/>
<path d="M34.0521 16.7358L29.0521 21.7358V32.7358L34.0521 28.2358V16.7358ZM36.0521 20.7358V34.2358C34.9521 33.8858 33.7521 33.7358 32.5521 33.7358C30.8521 33.7358 28.4021 34.3858 27.0521 35.2358V21.7358C25.6021 20.6358 23.5021 20.2358 21.5521 20.2358C19.6021 20.2358 17.5021 20.6358 16.0521 21.7358V36.3858C16.0521 36.6358 16.3021 36.8858 16.5521 36.8858C16.6521 36.8858 16.7021 36.8358 16.8021 36.8358C18.1521 36.1858 20.1021 35.7358 21.5521 35.7358C23.5021 35.7358 25.6021 36.1358 27.0521 37.2358C28.4021 36.3858 30.8521 35.7358 32.5521 35.7358C34.2021 35.7358 35.9021 36.0358 37.3021 36.7858C37.4021 36.8358 37.4521 36.8358 37.5521 36.8358C37.8021 36.8358 38.0521 36.5858 38.0521 36.3358V21.7358C37.4521 21.2858 36.8021 20.9858 36.0521 20.7358ZM25.0521 34.1458C23.8021 33.8258 22.5521 33.7358 21.5521 33.7358C20.4921 33.7358 19.2321 33.9258 18.0521 34.2358V22.8658C18.9621 22.4658 20.1921 22.2358 21.5521 22.2358C22.9121 22.2358 24.1421 22.4658 25.0521 22.8658V34.1458Z" fill="#009BB0"/>
</svg>
