<svg width="20" height="14" viewBox="0 0 20 14" fill="none" xmlns="http://www.w3.org/2000/svg">
<path d="M5.83424 1.16536H19.1676V4.4987H18.3342V5.33203H13.3342C13.1132 5.33203 12.9013 5.41983 12.745 5.57611C12.5887 5.73239 12.5009 5.94435 12.5009 6.16536V6.9987C12.5009 7.44072 12.3253 7.86465 12.0128 8.17721C11.7002 8.48977 11.2763 8.66536 10.8342 8.66536H8.01758C7.70091 8.66536 7.40925 8.8487 7.26758 9.13203L5.22591 13.207C5.08424 13.4904 4.80091 13.6654 4.48424 13.6654H1.66758C1.66758 13.6654 -0.832422 13.6654 2.50091 8.66536C2.50091 8.66536 5.00091 5.33203 1.66758 5.33203V1.16536H2.50091L2.91758 0.332031H5.41758L5.83424 1.16536ZM11.6676 6.9987V6.16536C11.6676 5.94435 11.5798 5.73239 11.4235 5.57611C11.2672 5.41983 11.0553 5.33203 10.8342 5.33203H10.0009C10.0009 5.33203 9.16758 6.16536 10.0009 6.9987C9.55888 6.9987 9.13496 6.8231 8.8224 6.51054C8.50984 6.19798 8.33424 5.77406 8.33424 5.33203C8.11323 5.33203 7.90127 5.41983 7.74499 5.57611C7.58871 5.73239 7.50091 5.94435 7.50091 6.16536V6.9987C7.50091 7.21971 7.58871 7.43167 7.74499 7.58795C7.90127 7.74423 8.11323 7.83203 8.33424 7.83203H10.8342C11.0553 7.83203 11.2672 7.74423 11.4235 7.58795C11.5798 7.43167 11.6676 7.21971 11.6676 6.9987Z" fill="white"/>
</svg>
