<svg width="40" height="40" viewBox="0 0 40 40" fill="none" xmlns="http://www.w3.org/2000/svg">
<circle cx="20" cy="20" r="18.5" stroke="#CB2020" stroke-width="3"/>
<path d="M16.0356 14.2339H30.45V17.8375H29.5491V18.7384H24.1437C23.9048 18.7384 23.6756 18.8333 23.5067 19.0023C23.3377 19.1712 23.2428 19.4004 23.2428 19.6393V20.5402C23.2428 21.0181 23.053 21.4764 22.7151 21.8143C22.3772 22.1522 21.9189 22.342 21.441 22.342H18.3959C18.0536 22.342 17.7383 22.5402 17.5851 22.8465L15.3779 27.2519C15.2248 27.5582 14.9185 27.7474 14.5761 27.7474H11.5311C11.5311 27.7474 8.82838 27.7474 12.432 22.342C12.432 22.342 15.1347 18.7384 11.5311 18.7384V14.2339H12.432L12.8824 13.333H15.5851L16.0356 14.2339ZM22.3419 20.5402V19.6393C22.3419 19.4004 22.247 19.1712 22.078 19.0023C21.9091 18.8333 21.6799 18.7384 21.441 18.7384H20.5401C20.5401 18.7384 19.6392 19.6393 20.5401 20.5402C20.0622 20.5402 19.6039 20.3504 19.266 20.0125C18.9281 19.6746 18.7383 19.2163 18.7383 18.7384C18.4994 18.7384 18.2702 18.8333 18.1013 19.0023C17.9323 19.1712 17.8374 19.4004 17.8374 19.6393V20.5402C17.8374 20.7791 17.9323 21.0083 18.1013 21.1772C18.2702 21.3462 18.4994 21.4411 18.7383 21.4411H21.441C21.6799 21.4411 21.9091 21.3462 22.078 21.1772C22.247 21.0083 22.3419 20.7791 22.3419 20.5402Z" fill="#2D3E52"/>
</svg>
