<svg width="29" height="29" viewBox="0 0 29 29" fill="none" xmlns="http://www.w3.org/2000/svg">
    <path
        d="M21.8452 10.8877L11.8585 5.89439C5.15016 2.53439 2.39682 5.28772 5.75682 11.9961L6.77182 14.0261C7.06349 14.6211 7.06349 15.3094 6.77182 15.9044L5.75682 17.9227C2.39682 24.6311 5.13849 27.3844 11.8585 24.0244L21.8452 19.0311C26.3252 16.7911 26.3252 13.1277 21.8452 10.8877ZM18.0768 15.8344H11.7768C11.2985 15.8344 10.9018 15.4377 10.9018 14.9594C10.9018 14.4811 11.2985 14.0844 11.7768 14.0844H18.0768C18.5552 14.0844 18.9518 14.4811 18.9518 14.9594C18.9518 15.4377 18.5552 15.8344 18.0768 15.8344Z"
        fill="white" />
</svg>
