<?xml version="1.0" standalone="no"?>
<!DOCTYPE svg PUBLIC "-//W3C//DTD SVG 1.0//EN" "http://www.w3.org/TR/2001/REC-SVG-20010904/DTD/svg10.dtd">
<svg xmlns="http://www.w3.org/2000/svg" xmlns:xlink="http://www.w3.org/1999/xlink" id="body_1" width="120" height="120">

<g transform="matrix(5 0 0 5 0 0)">
	<g>
        <path d="M16.5 15.5C 18.22 15.5 20.25 16.3 20.5 16.78L20.5 16.78L20.5 17.5L12.5 17.5L12.5 16.78C 12.75 16.3 14.78 15.5 16.5 15.5zM16.5 14C 14.67 14 11 14.92 11 16.75L11 16.75L11 19L22 19L22 16.75C 22 14.92 18.33 14 16.5 14zM9 13C 6.67 13 2 14.17 2 16.5L2 16.5L2 19L9 19L9 17.5L3.5 17.5L3.5 16.5C 3.5 15.87 6.29 14.34 9.82 14.5C 10.2499 13.9859 10.7765 13.5612 11.37 13.25C 10.59 13.09 9.79624 13.0063 9 13zM9 6.5C 9.29667 6.5 9.58668 6.58797 9.83335 6.7528C 10.08 6.91762 10.2723 7.15189 10.3858 7.42597C 10.4994 7.70006 10.5291 8.00166 10.4712 8.29264C 10.4133 8.58361 10.2704 8.85088 10.0607 9.06066C 9.85088 9.27044 9.58361 9.4133 9.29264 9.47118C 9.00166 9.52906 8.70006 9.49935 8.42597 9.38582C 8.15189 9.27229 7.91762 9.08003 7.7528 8.83335C 7.58797 8.58668 7.5 8.29667 7.5 8C 7.5 7.60218 7.65804 7.22064 7.93934 6.93934C 8.22064 6.65804 8.60218 6.5 9 6.5zM9 5C 8.40666 5 7.82664 5.17595 7.33329 5.50559C 6.83994 5.83524 6.45542 6.30377 6.22836 6.85195C 6.0013 7.40013 5.94189 8.00333 6.05764 8.58527C 6.1734 9.16721 6.45912 9.70176 6.87868 10.1213C 7.29824 10.5409 7.83279 10.8266 8.41473 10.9424C 8.99667 11.0581 9.59987 10.9987 10.1481 10.7716C 10.6962 10.5446 11.1648 10.1601 11.4944 9.66671C 11.8241 9.17336 12 8.59334 12 8C 12 7.20435 11.6839 6.44129 11.1213 5.87868C 10.5587 5.31607 9.79565 5 9 5zM16.5 8.5C 16.6978 8.5 16.8911 8.55865 17.0556 8.66853C 17.22 8.77841 17.3482 8.93459 17.4239 9.11732C 17.4996 9.30004 17.5194 9.50111 17.4808 9.69509C 17.4422 9.88907 17.347 10.0673 17.2071 10.2071C 17.0673 10.347 16.8891 10.4422 16.6951 10.4808C 16.5011 10.5194 16.3 10.4996 16.1173 10.4239C 15.9346 10.3482 15.7784 10.22 15.6685 10.0556C 15.5586 9.89112 15.5 9.69778 15.5 9.5C 15.5 9.23478 15.6054 8.98043 15.7929 8.79289C 15.9804 8.60536 16.2348 8.5 16.5 8.5zM16.5 7C 16.0055 7 15.5222 7.14662 15.1111 7.42133C 14.7 7.69603 14.3795 8.08648 14.1903 8.54329C 14.0011 9.00011 13.9516 9.50277 14.048 9.98773C 14.1445 10.4727 14.3826 10.9181 14.7322 11.2678C 15.0819 11.6174 15.5273 11.8555 16.0123 11.952C 16.4972 12.0484 16.9999 11.9989 17.4567 11.8097C 17.9135 11.6205 18.304 11.3 18.5787 10.8889C 18.8534 10.4778 19 9.99445 19 9.5C 19 8.83696 18.7366 8.20107 18.2678 7.73223C 17.7989 7.26339 17.163 7 16.5 7z" stroke="none" fill="#2D3E52" fill-rule="nonzero" />
	</g>
</g>
</svg>
