<svg width="24" height="26" viewBox="0 0 24 26" fill="none" xmlns="http://www.w3.org/2000/svg">
<path d="M19.8003 19.199L19.8003 25.1987" stroke="#2D3E52" stroke-width="1.5" stroke-linecap="round"/>
<path d="M16.8005 22.1985H22.8002" stroke="#2D3E52" stroke-width="1.5" stroke-linecap="round"/>
<path d="M18.6501 17.0992L17.2502 15.6992C17.6835 15.2659 18.0168 14.7616 18.2501 14.1863C18.4834 13.611 18.6001 13.0154 18.6001 12.3994C18.6001 11.7828 18.4834 11.1868 18.2501 10.6115C18.0168 10.0362 17.6835 9.53221 17.2502 9.09957L18.6501 7.69964C19.2834 8.33294 19.7667 9.04957 20.1 9.84953C20.4333 10.6495 20.6 11.4995 20.6 12.3994C20.6 13.2994 20.4333 14.1493 20.1 14.9493C19.7667 15.7492 19.2834 16.4659 18.6501 17.0992ZM15.9752 15.0993L14.5503 13.6993C14.7336 13.516 14.8713 13.316 14.9633 13.0994C15.0553 12.8827 15.1009 12.6494 15.1003 12.3994C15.1003 12.1494 15.0543 11.9161 14.9623 11.6994C14.8703 11.4828 14.7329 11.2828 14.5503 11.0995L15.9752 9.69954C16.3419 10.0662 16.6212 10.4788 16.8132 10.9375C17.0052 11.3961 17.1008 11.8834 17.1002 12.3994C17.1002 12.916 17.0042 13.4037 16.8122 13.8623C16.6202 14.321 16.3412 14.7333 15.9752 15.0993ZM8.60058 22.3989C7.21732 22.3989 6.03804 21.9113 5.06276 20.936C4.08747 19.9607 3.60016 18.7818 3.60083 17.3992V7.39965C3.60083 6.01639 4.08847 4.83712 5.06376 3.86183C6.03904 2.88655 7.21798 2.39924 8.60058 2.3999C9.98385 2.3999 11.1631 2.88755 12.1384 3.86283C13.1137 4.83811 13.601 6.01706 13.6003 7.39965V17.3992C13.6003 18.7824 13.1127 19.9617 12.1374 20.937C11.1621 21.9123 9.98318 22.3996 8.60058 22.3989ZM8.60058 20.399C9.43387 20.399 10.1422 20.1074 10.7255 19.524C11.3088 18.9407 11.6004 18.2324 11.6004 17.3992V7.39965C11.6004 6.56636 11.3088 5.85806 10.7255 5.27476C10.1422 4.69146 9.43387 4.3998 8.60058 4.3998C7.76729 4.3998 7.05899 4.69146 6.47569 5.27476C5.89238 5.85806 5.60073 6.56636 5.60073 7.39965V17.3992C5.60073 18.2324 5.89238 18.9407 6.47569 19.524C7.05899 20.1074 7.76729 20.399 8.60058 20.399ZM8.60058 18.3991C9.15055 18.3991 9.62153 18.2031 10.0135 17.8111C10.4055 17.4192 10.6011 16.9485 10.6005 16.3992C10.6005 15.8492 10.4045 15.3783 10.0125 14.9863C9.62053 14.5943 9.14989 14.3986 8.60058 14.3993C8.05061 14.3993 7.57963 14.5953 7.18765 14.9873C6.79567 15.3793 6.60001 15.8499 6.60068 16.3992C6.60068 16.9492 6.79667 17.4202 7.18865 17.8121C7.58063 18.2041 8.05128 18.3998 8.60058 18.3991ZM8.60058 17.3992C8.31726 17.3992 8.07961 17.3032 7.88762 17.1112C7.69563 16.9192 7.59997 16.6819 7.60063 16.3992C7.60063 16.1159 7.69663 15.8782 7.88862 15.6862C8.08061 15.4943 8.31793 15.3986 8.60058 15.3993C8.8839 15.3993 9.12156 15.4953 9.31355 15.6872C9.50554 15.8792 9.6012 16.1166 9.60053 16.3992C9.60053 16.6825 9.50454 16.9202 9.31255 17.1122C9.12056 17.3042 8.88323 17.3998 8.60058 17.3992ZM8.60058 10.3995C9.15055 10.3995 9.62153 10.2035 10.0135 9.81153C10.4055 9.41955 10.6011 8.94891 10.6005 8.3996C10.6005 7.84963 10.4045 7.37865 10.0125 6.98667C9.62053 6.59469 9.14989 6.39904 8.60058 6.3997C8.05061 6.3997 7.57963 6.59569 7.18765 6.98767C6.79567 7.37965 6.60001 7.8503 6.60068 8.3996C6.60068 8.94958 6.79667 9.42055 7.18865 9.81253C7.58063 10.2045 8.05128 10.4002 8.60058 10.3995Z" fill="#2D3E52"/>
</svg>
