<svg width="34" height="32" viewBox="0 0 34 32" fill="none" xmlns="http://www.w3.org/2000/svg">
    <path
        d="M26.6519 30.1702L26.0152 28.8968C27.6629 28.8045 29.0781 27.6428 29.4948 26.0804L29.495 26.0797L30.9444 20.3318H31.5358C32.4741 20.3318 33.1929 19.613 33.1929 18.6746C33.1929 17.7363 32.4741 17.0175 31.5358 17.0175H31.0501V5.81753C31.0501 3.11132 28.8848 0.946094 26.1786 0.946094C23.7889 0.946094 22.0707 2.71145 21.8643 5.28868C20.6152 5.54273 19.7 6.62705 19.7 7.96037C19.7 8.13244 19.7576 8.27972 19.862 8.38411C19.9664 8.48849 20.1137 8.54606 20.2857 8.54606H24.5715C24.7436 8.54606 24.8908 8.48849 24.9952 8.38411C25.0996 8.27972 25.1572 8.13244 25.1572 7.96037C25.1572 6.64436 24.2657 5.57069 23.0415 5.29871C23.1267 4.47143 23.4182 3.68218 23.9274 3.09734C24.4447 2.50331 25.1887 2.11748 26.1786 2.11748C28.2403 2.11748 29.8786 3.75579 29.8786 5.81747V17.0175H13.8462C13.5857 15.7865 12.517 14.8853 11.202 14.8747C10.6598 14.2328 9.90256 13.8032 9.03579 13.8032C8.01634 13.8032 7.10238 14.3832 6.65658 15.233C6.23517 15.0277 5.76173 14.8746 5.28574 14.8746C3.96004 14.8746 2.88022 15.7793 2.61817 17.0175H2.60715C1.66879 17.0175 0.95 17.7363 0.95 18.6746C0.95 19.613 1.66879 20.3318 2.60715 20.3318H3.21199L4.64795 26.0262L4.64802 26.0264C5.08222 27.7089 6.60186 28.9033 8.33932 28.9033H8.68701L8.02762 30.2221C7.85527 30.5114 7.96727 30.8629 8.25836 30.9853C8.29543 31.0179 8.34402 31.0319 8.38468 31.0387C8.42895 31.0461 8.47252 31.0461 8.4991 31.0461H8.50003C8.7337 31.0461 8.90893 30.9282 9.02378 30.756L9.0241 30.7562L9.0269 30.7506L9.95056 28.9033H24.7548L25.6518 30.697L25.6965 30.6747L25.6518 30.697C25.7083 30.8101 25.7805 30.8979 25.8697 30.9573C25.9591 31.017 26.0627 31.0461 26.1786 31.0461L26.1846 31.0461C26.233 31.0461 26.2819 31.0462 26.3244 31.0291C26.3694 31.0111 26.4019 30.9773 26.43 30.9259C26.5443 30.8629 26.6268 30.7474 26.6682 30.616C26.7116 30.4787 26.7118 30.3194 26.6536 30.1739L26.6537 30.1739L26.6519 30.1702ZM7.53064 16.3296L7.53069 16.3297L7.53116 16.3273C7.68781 15.5441 8.31253 14.9746 9.08928 14.9746C9.66342 14.9746 10.1796 15.235 10.4374 15.7506L10.4822 15.7282L10.4374 15.7506C10.5548 15.9852 10.843 16.1014 11.0774 16.0461H11.2322C11.8831 16.0461 12.4365 16.432 12.6611 17.0175H3.85671C4.08142 16.432 4.63473 16.0461 5.28574 16.0461C5.75009 16.0461 6.1655 16.2514 6.53272 16.6174C6.65628 16.798 6.89389 16.851 7.11927 16.7946C7.35834 16.7349 7.47464 16.5538 7.53064 16.3296ZM22.4822 6.40322C23.1332 6.40322 23.6865 6.7891 23.9112 7.37467H20.9998C21.2274 6.7907 21.8293 6.40322 22.4822 6.40322ZM28.4337 25.7338C28.1177 26.8911 27.0655 27.7319 25.8572 27.7319H8.39287C7.18437 27.7319 6.13212 26.891 5.81623 25.7334C5.81619 25.7332 5.81616 25.7331 5.81612 25.733L4.43935 20.3318H29.7048L28.4337 25.7338ZM31.5358 19.1604H2.60715C2.45779 19.1604 2.33722 19.1108 2.25412 19.0277C2.17101 18.9446 2.12145 18.824 2.12145 18.6747C2.12145 18.5253 2.17101 18.4048 2.25412 18.3217C2.33722 18.2386 2.45779 18.189 2.60715 18.189H31.5358C31.6851 18.189 31.8057 18.2386 31.8888 18.3217C31.9719 18.4048 32.0215 18.5253 32.0215 18.6747C32.0215 18.824 31.9719 18.9446 31.8888 19.0277C31.8057 19.1108 31.6851 19.1604 31.5358 19.1604Z"
        fill="#7D8598" stroke="#7D8598" stroke-width="0.1" />
    <path
        d="M20.2857 10.9576C20.4578 10.9576 20.605 10.9001 20.7094 10.7957C20.8138 10.6913 20.8714 10.544 20.8714 10.3719V10.1041C20.8714 9.93198 20.8138 9.7847 20.7094 9.68031C20.605 9.57593 20.4578 9.51836 20.2857 9.51836C20.1136 9.51836 19.9663 9.57593 19.862 9.68031C19.7576 9.7847 19.7 9.93198 19.7 10.1041V10.3719C19.7 10.544 19.7576 10.6913 19.862 10.7957C19.9663 10.9001 20.1136 10.9576 20.2857 10.9576ZM20.2857 13.422C20.6379 13.422 20.8714 13.1284 20.8714 12.8363V12.247C20.8714 12.0749 20.8138 11.9276 20.7094 11.8232C20.605 11.7188 20.4578 11.6613 20.2857 11.6613C20.1136 11.6613 19.9663 11.7188 19.862 11.8232C19.7576 11.9276 19.7 12.0749 19.7 12.247V12.8363C19.7 13.0083 19.7576 13.1556 19.862 13.26C19.9663 13.3644 20.1136 13.422 20.2857 13.422ZM20.2857 15.5112C20.4578 15.5112 20.605 15.4537 20.7094 15.3493C20.8138 15.2449 20.8714 15.0976 20.8714 14.9256V14.6577C20.8714 14.4856 20.8138 14.3383 20.7094 14.2339C20.605 14.1295 20.4578 14.072 20.2857 14.072C20.1136 14.072 19.9663 14.1295 19.862 14.2339C19.7576 14.3383 19.7 14.4856 19.7 14.6577V14.9256C19.7 15.0976 19.7576 15.2449 19.862 15.3493C19.9663 15.4537 20.1136 15.5112 20.2857 15.5112ZM22.4285 10.9576C22.6006 10.9576 22.7479 10.9001 22.8523 10.7957C22.9567 10.6913 23.0142 10.544 23.0142 10.3719V10.1041C23.0142 9.93198 22.9567 9.7847 22.8523 9.68031C22.7479 9.57593 22.6006 9.51836 22.4285 9.51836C22.2565 9.51836 22.1092 9.57593 22.0048 9.68031C21.9004 9.7847 21.8428 9.93198 21.8428 10.1041V10.3719C21.8428 10.544 21.9004 10.6913 22.0048 10.7957C22.1092 10.9001 22.2565 10.9576 22.4285 10.9576ZM21.8428 12.8362C21.8428 13.0083 21.9004 13.1556 22.0048 13.2599C22.1092 13.3643 22.2565 13.4219 22.4285 13.4219C22.7808 13.4219 23.0142 13.1283 23.0142 12.8362V12.2469C23.0142 12.0748 22.9567 11.9275 22.8523 11.8232C22.7479 11.7188 22.6006 11.6612 22.4285 11.6612C22.2565 11.6612 22.1092 11.7188 22.0048 11.8232C21.9004 11.9275 21.8428 12.0748 21.8428 12.2469V12.8362ZM21.8428 14.9255C21.8428 15.0976 21.9004 15.2448 22.0048 15.3492C22.1092 15.4536 22.2565 15.5112 22.4285 15.5112C22.6006 15.5112 22.7479 15.4536 22.8523 15.3492C22.9567 15.2448 23.0142 15.0976 23.0142 14.9255V14.6576C23.0142 14.4855 22.9567 14.3383 22.8523 14.2339C22.7479 14.1295 22.6006 14.0719 22.4285 14.0719C22.2565 14.0719 22.1092 14.1295 22.0048 14.2339C21.9004 14.3383 21.8428 14.4855 21.8428 14.6576V14.9255ZM24.5714 10.9576C24.7435 10.9576 24.8908 10.9001 24.9952 10.7957C25.0996 10.6913 25.1571 10.544 25.1571 10.3719V10.1041C25.1571 9.93198 25.0996 9.7847 24.9952 9.68031C24.8908 9.57593 24.7435 9.51836 24.5714 9.51836C24.3994 9.51836 24.2521 9.57593 24.1477 9.68031C24.0433 9.7847 23.9857 9.93198 23.9857 10.1041V10.3719C23.9857 10.3719 23.9857 10.3719 23.9857 10.3719C23.9857 10.544 24.0433 10.6913 24.1477 10.7957C24.2521 10.9001 24.3994 10.9576 24.5714 10.9576ZM23.9857 12.8362C23.9857 13.0083 24.0433 13.1556 24.1476 13.2599C24.252 13.3643 24.3993 13.4219 24.5714 13.4219C24.9236 13.4219 25.1571 13.1284 25.1571 12.8362V12.2469C25.1571 12.0748 25.0996 11.9275 24.9952 11.8232C24.8908 11.7188 24.7435 11.6612 24.5714 11.6612C24.3994 11.6612 24.2521 11.7188 24.1477 11.8232C24.0433 11.9275 23.9857 12.0748 23.9857 12.2469L23.9857 12.8362ZM23.9857 14.9255C23.9857 15.0976 24.0433 15.2448 24.1476 15.3492C24.252 15.4536 24.3993 15.5112 24.5714 15.5112C24.7434 15.5112 24.8907 15.4536 24.9951 15.3492C25.0995 15.2448 25.1571 15.0976 25.1571 14.9255V14.6576C25.1571 14.4855 25.0995 14.3383 24.9951 14.2339C24.8907 14.1295 24.7434 14.0719 24.5714 14.0719C24.3993 14.0719 24.252 14.1295 24.1476 14.2339C24.0433 14.3383 23.9857 14.4855 23.9857 14.6576V14.9255Z"
        fill="#7D8598" stroke="#7D8598" stroke-width="0.1" />
</svg>
