<svg width="33" height="33" viewBox="0 0 33 33" fill="none" xmlns="http://www.w3.org/2000/svg">
<path d="M9.65829 19.5497C10.313 19.1269 10.489 18.4505 10.648 17.8547C10.8093 17.2431 10.9481 15.912 11.5219 15.6433C14.5666 14.3746 18.4827 14.2339 21.5262 15.5212C22.1112 15.7966 22.2574 17.1296 22.425 17.7441C22.5867 18.3395 22.772 19.0147 23.4265 19.4457C24.0152 19.8325 26.9829 20.1883 27.8991 20.181C28.5038 20.1766 28.9809 20.0297 29.3279 19.7361C30.5837 18.5836 30.3219 15.632 30.1734 15.0118C29.9446 13.6013 28.8507 12.514 26.9308 11.7891C21.9388 9.67718 11.132 9.76313 6.07253 11.8343C5.10692 12.1845 4.351 12.6319 3.81058 13.1723C3.28175 13.7012 2.95843 14.3197 2.8464 15.017C2.71694 15.4983 2.45599 18.5825 3.73636 19.7752C4.07802 20.0639 4.55789 20.2143 5.15933 20.2232C6.07646 20.2383 9.07243 19.9321 9.65829 19.5497Z" fill="#CD2848"/>
</svg>
