<svg width="21" height="19" viewBox="0 0 21 19" fill="none" xmlns="http://www.w3.org/2000/svg">
<path d="M7.49811 16.5412L13.0831 16.5412L12.5707 14.4917L8.01049 14.4917L7.49811 16.5412ZM7.2163 12.4422L13.3649 12.4422C14.7825 12.4422 15.9908 11.9426 16.99 10.9435C17.9891 9.94431 18.4887 8.73594 18.4887 7.31835C18.4887 5.90076 17.9891 4.69239 16.99 3.69325C15.9909 2.6941 14.7825 2.19453 13.3649 2.19453L7.21632 2.19454C5.79873 2.19454 4.59036 2.69412 3.59121 3.69326C2.59206 4.69241 2.09249 5.90078 2.09249 7.31837C2.09249 8.73596 2.59206 9.94433 3.5912 10.9435C4.59035 11.9426 5.79871 12.4422 7.2163 12.4422ZM10.2906 9.36789C9.72698 9.36789 9.24449 9.1672 8.84312 8.76584C8.44176 8.36447 8.24107 7.88198 8.24107 7.31836C8.24107 6.75474 8.44176 6.27225 8.84313 5.87088C9.24449 5.46951 9.72699 5.26883 10.2906 5.26883C10.8542 5.26883 11.3367 5.46951 11.7381 5.87088C12.1395 6.27224 12.3401 6.75473 12.3401 7.31836C12.3401 7.88198 12.1394 8.36447 11.7381 8.76584C11.3367 9.1672 10.8542 9.36788 10.2906 9.36789ZM4.6544 6.2936C4.94475 6.2936 5.18813 6.19539 5.38455 5.99898C5.58096 5.80257 5.67917 5.55918 5.67917 5.26883C5.67917 4.97848 5.58096 4.7351 5.38455 4.53869C5.18813 4.34228 4.94475 4.24407 4.6544 4.24407C4.36405 4.24407 4.12067 4.34228 3.92426 4.53869C3.72784 4.7351 3.62964 4.97849 3.62964 5.26884C3.62964 5.55919 3.72784 5.80257 3.92426 5.99898C4.12067 6.19539 4.36405 6.2936 4.6544 6.2936ZM2.09247 18.5908L2.09248 16.5412L5.39734 16.5412L5.93535 14.3892C4.24449 14.0989 2.83971 13.2919 1.72101 11.9682C0.602306 10.6446 0.0429577 9.09463 0.0429599 7.31837C0.0429624 5.32008 0.73895 3.62495 2.13092 2.23297C3.5229 0.841001 5.21803 0.145013 7.21632 0.145011L13.3649 0.145003C15.3632 0.145001 17.0583 0.840985 18.4503 2.23295C19.8423 3.62492 20.5382 5.32005 20.5382 7.31835C20.5382 9.0946 19.9789 10.6446 18.8602 11.9682C17.7415 13.2919 16.3367 14.0989 14.6458 14.3892L15.1838 16.5412L18.4887 16.5412L18.4887 18.5908L2.09247 18.5908ZM10.2906 11.4174C11.4178 11.4174 12.3828 11.016 13.1856 10.2133C13.9883 9.41058 14.3897 8.44559 14.3897 7.31835C14.3897 6.19111 13.9883 5.22613 13.1856 4.4234C12.3828 3.62066 11.4178 3.2193 10.2906 3.2193C9.16337 3.2193 8.19838 3.62067 7.39565 4.4234C6.59291 5.22613 6.19155 6.19112 6.19155 7.31836C6.19154 8.4456 6.59291 9.41059 7.39564 10.2133C8.19837 11.0161 9.16336 11.4174 10.2906 11.4174Z" fill="#2D3E52"/>
</svg>
