<svg width="28" height="28" viewBox="0 0 28 28" fill="none" xmlns="http://www.w3.org/2000/svg">
    <path
        d="M1.10303 2.66471C1.10303 2.28899 1.25228 1.92866 1.51796 1.66298C1.78364 1.3973 2.14397 1.24805 2.51969 1.24805H25.1864C25.5621 1.24805 25.9224 1.3973 26.1881 1.66298C26.4538 1.92866 26.603 2.28899 26.603 2.66471V5.49805C26.603 5.87377 26.4538 6.2341 26.1881 6.49978C25.9224 6.76546 25.5621 6.91471 25.1864 6.91471H2.51969C2.14397 6.91471 1.78364 6.76546 1.51796 6.49978C1.25228 6.2341 1.10303 5.87377 1.10303 5.49805V2.66471ZM8.18636 16.8314C8.18636 18.3343 8.78338 19.7756 9.84609 20.8383C10.9088 21.901 12.3501 22.498 13.853 22.498C15.3559 22.498 16.7973 21.901 17.86 20.8383C18.9227 19.7756 19.5197 18.3343 19.5197 16.8314C19.5197 15.3285 18.9227 13.8871 17.86 12.8244C16.7973 11.7617 15.3559 11.1647 13.853 11.1647C12.3501 11.1647 10.9088 11.7617 9.84609 12.8244C8.78338 13.8871 8.18636 15.3285 8.18636 16.8314Z"
        stroke="#FB6896" stroke-width="2" stroke-linecap="round" stroke-linejoin="round" />
    <path
        d="M23.7696 6.91406V16.8307C23.7696 19.4608 22.7248 21.9831 20.8651 23.8429C19.0054 25.7026 16.483 26.7474 13.8529 26.7474C11.2229 26.7474 8.70054 25.7026 6.8408 23.8429C4.98107 21.9831 3.93628 19.4608 3.93628 16.8307V6.91406M13.8529 16.8307H13.8671"
        stroke="#FB6896" stroke-width="2" stroke-linecap="round" stroke-linejoin="round" />
</svg>
