<svg width="21" height="20" viewBox="0 0 21 20" fill="none" xmlns="http://www.w3.org/2000/svg">
<path d="M1.13 3.7224L2.21334 2.66406L16.7967 17.2641L15.7383 18.3307L14.0717 16.6641H3.46334C3.02131 16.6641 2.59739 16.4885 2.28483 16.1759C1.97227 15.8633 1.79667 15.4394 1.79667 14.9974V4.9974C1.79667 4.81406 1.83 4.63906 1.88 4.4724L1.13 3.7224ZM5.96334 3.33073L7.63 1.66406H12.63L14.2967 3.33073H16.7967C17.2387 3.33073 17.6626 3.50632 17.9752 3.81888C18.2877 4.13145 18.4633 4.55537 18.4633 4.9974V14.9974C18.4633 15.4974 18.2467 15.9391 17.8967 16.2474L13.7383 12.0807C14.0967 11.4724 14.2967 10.7557 14.2967 9.9974C14.2967 8.89233 13.8577 7.83252 13.0763 7.05112C12.2949 6.26972 11.2351 5.83073 10.13 5.83073C9.37167 5.83073 8.655 6.03073 8.04667 6.38906L4.98 3.33073H5.96334ZM5.96334 9.9974C5.96334 11.1025 6.40233 12.1623 7.18373 12.9437C7.96513 13.7251 9.02494 14.1641 10.13 14.1641C10.5467 14.1641 10.9883 14.0974 11.38 13.9724L9.89667 12.4974C8.70501 12.3724 7.755 11.4224 7.63 10.2307L6.155 8.7474C6.03 9.13906 5.96334 9.58073 5.96334 9.9974ZM10.13 7.4974C10.793 7.4974 11.4289 7.76079 11.8978 8.22963C12.3666 8.69847 12.63 9.33435 12.63 9.9974C12.63 10.2891 12.58 10.5724 12.4883 10.8307L9.29667 7.63906C9.55501 7.5474 9.83834 7.4974 10.13 7.4974Z" fill="white"/>
</svg>
