<svg width="24" height="24" viewBox="0 0 24 24" fill="none" xmlns="http://www.w3.org/2000/svg">
<path d="M3.99902 4H6.99902L8.99902 2H14.999L16.999 4H19.999C20.5295 4 21.0382 4.21071 21.4132 4.58579C21.7883 4.96086 21.999 5.46957 21.999 6V18C21.999 18.5304 21.7883 19.0391 21.4132 19.4142C21.0382 19.7893 20.5295 20 19.999 20H3.99902C3.46859 20 2.95988 19.7893 2.58481 19.4142C2.20974 19.0391 1.99902 18.5304 1.99902 18V6C1.99902 5.46957 2.20974 4.96086 2.58481 4.58579C2.95988 4.21071 3.46859 4 3.99902 4ZM11.999 7C10.6729 7 9.40117 7.52678 8.46349 8.46447C7.52581 9.40215 6.99902 10.6739 6.99902 12C6.99902 13.3261 7.52581 14.5979 8.46349 15.5355C9.40117 16.4732 10.6729 17 11.999 17C13.3251 17 14.5969 16.4732 15.5346 15.5355C16.4722 14.5979 16.999 13.3261 16.999 12C16.999 10.6739 16.4722 9.40215 15.5346 8.46447C14.5969 7.52678 13.3251 7 11.999 7ZM11.999 9C12.7947 9 13.5577 9.31607 14.1203 9.87868C14.683 10.4413 14.999 11.2044 14.999 12C14.999 12.7956 14.683 13.5587 14.1203 14.1213C13.5577 14.6839 12.7947 15 11.999 15C11.2034 15 10.4403 14.6839 9.8777 14.1213C9.31509 13.5587 8.99902 12.7956 8.99902 12C8.99902 11.2044 9.31509 10.4413 9.8777 9.87868C10.4403 9.31607 11.2034 9 11.999 9Z" fill="#0082B0"/>
</svg>
