<svg width="151" height="151" viewBox="0 0 151 151" fill="none" xmlns="http://www.w3.org/2000/svg">
<g filter="url(#filter0_d_5588_37374)">
<rect x="15.9609" y="13.0195" width="120" height="120" rx="15" fill="#A1A1A1"/>
</g>
<circle cx="75.9629" cy="58.0156" r="23.75" stroke="#EEEEEE" stroke-width="2.5"/>
<path d="M89.9629 54.0156H88.9629V50.0156C88.9629 48.3656 87.6129 47.0156 85.9629 47.0156H65.9629C64.3129 47.0156 62.9629 48.3656 62.9629 50.0156V54.0156H61.9629C61.4129 54.0156 60.9629 54.4656 60.9629 55.0156V64.0156C60.9629 65.4656 62.0029 66.6856 63.3729 66.9556L63.0629 67.5656C63.0036 67.683 62.9681 67.811 62.9587 67.9421C62.9492 68.0733 62.9659 68.205 63.0078 68.3297C63.0496 68.4544 63.1158 68.5695 63.2026 68.6683C63.2893 68.7672 63.3948 68.8479 63.5129 68.9056C63.7504 69.0255 64.0257 69.0465 64.2786 68.9641C64.5316 68.8816 64.7416 68.7024 64.8629 68.4656L65.5829 67.0156H86.3429L87.0629 68.4656C87.1842 68.7024 87.3942 68.8816 87.6471 68.9641C87.9001 69.0465 88.1754 69.0255 88.4129 68.9056C88.9029 68.6556 89.1029 68.0556 88.8629 67.5656L88.5529 66.9556C89.232 66.8186 89.8429 66.4511 90.2821 65.9153C90.7213 65.3795 90.9618 64.7084 90.9629 64.0156V55.0156C90.9629 54.4656 90.5129 54.0156 89.9629 54.0156ZM86.9629 50.0156V54.1956C85.8029 54.6056 84.9629 55.7056 84.9629 57.0156V59.0156H76.9629V49.0156H85.9629C86.5129 49.0156 86.9629 49.4656 86.9629 50.0156ZM65.9629 49.0156H74.9629V59.0156H66.9629V57.0156C66.9629 55.7156 66.1229 54.6156 64.9629 54.1956V50.0156C64.9629 49.4656 65.4129 49.0156 65.9629 49.0156ZM88.9629 64.0156C88.9629 64.5656 88.5129 65.0156 87.9629 65.0156H63.9629C63.4129 65.0156 62.9629 64.5656 62.9629 64.0156V56.0156H63.9629C64.5129 56.0156 64.9629 56.4656 64.9629 57.0156V60.0156C64.9629 60.5656 65.4129 61.0156 65.9629 61.0156H85.9629C86.5129 61.0156 86.9629 60.5656 86.9629 60.0156V57.0156C86.9629 56.4656 87.4129 56.0156 87.9629 56.0156H88.9629V64.0156Z" fill="#EEEEEE"/>
<path d="M42.5683 106.877L42.5683 108.285L36.416 108.285L36.416 98.4209L37.9473 98.4209L37.9472 106.877L42.5683 106.877ZM44.3662 108.285L44.3662 100.841L45.8291 100.841L45.8291 108.285L44.3662 108.285ZM45.0976 99.5351C44.5508 99.5351 44.1475 99.1455 44.1475 98.6396C44.1475 98.1269 44.5508 97.7373 45.0977 97.7373C45.6445 97.7373 46.0478 98.1269 46.0478 98.6396C46.0478 99.1455 45.6445 99.5351 45.0976 99.5351ZM54.292 100.841L51.6123 108.285L50.0332 108.285L47.3467 100.841L48.9189 100.841L50.7715 106.713L50.8877 106.713L52.7334 100.841L54.292 100.841ZM55.8095 108.285L55.8096 100.841L57.2724 100.841L57.2724 108.285L55.8095 108.285ZM56.541 99.5351C55.9941 99.5351 55.5908 99.1455 55.5908 98.6396C55.5908 98.1269 55.9941 97.7373 56.541 97.7373C57.0879 97.7373 57.4912 98.1269 57.4912 98.6396C57.4912 99.1455 57.0879 99.5351 56.541 99.5351ZM59.4326 108.285L59.4326 100.841L60.8476 100.841L60.8476 102.023L60.957 102.023C61.3193 101.196 62.0576 100.697 63.1787 100.697C64.8398 100.697 65.7558 101.695 65.7558 103.466L65.7558 108.285L64.2861 108.285L64.2861 103.835C64.2861 102.639 63.7666 102.044 62.6797 102.044C61.5928 102.044 60.9023 102.769 60.9023 103.931L60.9023 108.285L59.4326 108.285ZM70.9443 106.904C72.2021 106.904 72.9609 105.961 72.9609 104.471C72.9609 102.987 72.1953 102.037 70.9443 102.037C69.6797 102.037 68.9687 102.987 68.9687 104.471C68.9687 105.954 69.6797 106.904 70.9443 106.904ZM70.9648 111.129C69.1054 111.129 67.9023 110.295 67.7451 109.03L69.249 109.03C69.372 109.57 69.9941 109.919 70.9853 109.919C72.209 109.919 72.9336 109.338 72.9336 108.353L72.9336 106.925L72.8242 106.925C72.373 107.731 71.5527 108.176 70.5273 108.176C68.6269 108.176 67.4511 106.706 67.4512 104.477C67.4512 102.208 68.6406 100.718 70.541 100.718C71.5664 100.718 72.4619 101.224 72.8789 102.03L72.9951 102.03L72.9951 100.841L74.4033 100.841L74.4033 108.347C74.4033 110.049 73.0703 111.129 70.9648 111.129ZM82.0664 99.7675L82.0664 103.22L84.2676 103.22C85.4502 103.22 86.1338 102.591 86.1338 101.49C86.1338 100.417 85.4092 99.7675 84.2266 99.7675L82.0664 99.7675ZM82.0664 104.525L82.0664 108.285L80.5351 108.285L80.5351 98.4208L84.4385 98.4208C86.4277 98.4208 87.706 99.6034 87.706 101.456C87.706 102.782 86.9951 103.862 85.792 104.272L88.0068 108.285L86.2363 108.285L84.2265 104.525L82.0664 104.525ZM92.6416 108.429C90.4609 108.429 89.1279 106.973 89.1279 104.559C89.1279 102.16 90.4678 100.697 92.6416 100.697C94.8086 100.697 96.1484 102.16 96.1484 104.559C96.1484 106.973 94.8154 108.429 92.6416 108.429ZM92.6416 107.123C93.9131 107.123 94.6377 106.18 94.6377 104.559C94.6377 102.946 93.9131 102.003 92.6416 102.003C91.3633 102.003 90.6455 102.946 90.6455 104.559C90.6455 106.186 91.3633 107.123 92.6416 107.123ZM101.063 108.429C98.8828 108.429 97.5498 106.973 97.5498 104.559C97.5498 102.16 98.8896 100.697 101.063 100.697C103.23 100.697 104.57 102.16 104.57 104.559C104.57 106.973 103.237 108.429 101.063 108.429ZM101.063 107.123C102.335 107.123 103.06 106.18 103.06 104.559C103.06 102.946 102.335 102.003 101.063 102.003C99.7851 102.003 99.0674 102.946 99.0674 104.559C99.0674 106.186 99.7851 107.123 101.063 107.123ZM106.341 108.285L106.341 100.841L107.756 100.841L107.756 102.037L107.865 102.037C108.193 101.196 108.945 100.697 109.937 100.697C110.955 100.697 111.659 101.223 111.987 102.037L112.104 102.037C112.479 101.223 113.334 100.697 114.366 100.697C115.87 100.697 116.745 101.606 116.745 103.158L116.745 108.285L115.275 108.285L115.275 103.541C115.275 102.536 114.797 102.044 113.833 102.044C112.883 102.044 112.261 102.727 112.261 103.602L112.261 108.285L110.818 108.285L110.818 103.397C110.818 102.556 110.258 102.044 109.383 102.044C108.487 102.044 107.811 102.775 107.811 103.732L107.811 108.285L106.341 108.285Z" fill="#EEEEEE"/>
<path d="M109.659 27.3281C109.907 27.3281 110.152 27.379 110.382 27.478C110.611 27.5769 110.819 27.7219 110.994 27.9048C111.17 28.0876 111.309 28.3046 111.404 28.5435C111.499 28.7823 111.548 29.0383 111.548 29.2969C111.548 29.5554 111.499 29.8114 111.404 30.0503C111.309 30.2891 111.17 30.5062 110.994 30.689C110.819 30.8718 110.611 31.0168 110.382 31.1158C110.152 31.2147 109.907 31.2656 109.659 31.2656C109.158 31.2656 108.677 31.0582 108.323 30.689C107.969 30.3198 107.77 29.819 107.77 29.2969C107.77 28.7747 107.969 28.274 108.323 27.9048C108.677 27.5355 109.158 27.3281 109.659 27.3281ZM115.326 27.3281C115.574 27.3281 115.82 27.379 116.049 27.478C116.278 27.5769 116.486 27.7219 116.662 27.9048C116.837 28.0876 116.976 28.3046 117.071 28.5435C117.166 28.7823 117.215 29.0383 117.215 29.2969C117.215 29.5554 117.166 29.8114 117.071 30.0503C116.976 30.2891 116.837 30.5062 116.662 30.689C116.486 30.8718 116.278 31.0168 116.049 31.1158C115.82 31.2147 115.574 31.2656 115.326 31.2656C114.825 31.2656 114.345 31.0582 113.99 30.689C113.636 30.3198 113.437 29.819 113.437 29.2969C113.437 28.7747 113.636 28.274 113.99 27.9048C114.345 27.5355 114.825 27.3281 115.326 27.3281ZM120.993 27.3281C121.242 27.3281 121.487 27.379 121.716 27.478C121.946 27.5769 122.154 27.7219 122.329 27.9048C122.505 28.0876 122.644 28.3046 122.739 28.5435C122.834 28.7823 122.883 29.0383 122.883 29.2969C122.883 29.5554 122.834 29.8114 122.739 30.0503C122.644 30.2891 122.505 30.5062 122.329 30.689C122.154 30.8718 121.946 31.0168 121.716 31.1158C121.487 31.2147 121.242 31.2656 120.993 31.2656C120.492 31.2656 120.012 31.0582 119.658 30.689C119.303 30.3198 119.104 29.819 119.104 29.2969C119.104 28.7747 119.303 28.274 119.658 27.9048C120.012 27.5355 120.492 27.3281 120.993 27.3281Z" fill="#EEEEEE"/>
<defs>
<filter id="filter0_d_5588_37374" x="0.960938" y="0.0195312" width="150" height="150" filterUnits="userSpaceOnUse" color-interpolation-filters="sRGB">
<feFlood flood-opacity="0" result="BackgroundImageFix"/>
<feColorMatrix in="SourceAlpha" type="matrix" values="0 0 0 0 0 0 0 0 0 0 0 0 0 0 0 0 0 0 127 0" result="hardAlpha"/>
<feOffset dy="2"/>
<feGaussianBlur stdDeviation="7.5"/>
<feComposite in2="hardAlpha" operator="out"/>
<feColorMatrix type="matrix" values="0 0 0 0 0 0 0 0 0 0 0 0 0 0 0 0 0 0 0.1 0"/>
<feBlend mode="normal" in2="BackgroundImageFix" result="effect1_dropShadow_5588_37374"/>
<feBlend mode="normal" in="SourceGraphic" in2="effect1_dropShadow_5588_37374" result="shape"/>
</filter>
</defs>
</svg>
