<svg width="30" height="30" viewBox="0 0 30 30" fill="none" xmlns="http://www.w3.org/2000/svg">
<path d="M28.7896 18.5044C28.6641 18.3793 28.5058 18.2923 28.3329 18.2534C28.16 18.2146 27.9796 18.2256 27.8127 18.2851C25.5696 19.0848 23.1456 19.2317 20.8223 18.7085C18.4991 18.1854 16.3719 17.0138 14.6881 15.3299C13.0042 13.6459 11.8327 11.5187 11.3097 9.19541C10.7868 6.87212 10.9338 4.44813 11.7336 2.20506C11.7931 2.03812 11.804 1.85774 11.7651 1.68485C11.7262 1.51196 11.6391 1.35364 11.5139 1.22823C11.3887 1.10283 11.2305 1.01548 11.0576 0.97631C10.8848 0.937143 10.7044 0.947763 10.5374 1.00694C8.5151 1.72107 6.67989 2.88205 5.16832 4.4035C2.45859 7.11528 0.936776 10.7922 0.9375 14.6258C0.938225 18.4594 2.46143 22.1358 5.17219 24.8465C7.88294 27.5573 11.5593 29.0805 15.3929 29.0812C19.2265 29.0819 22.9034 27.5601 25.6152 24.8504C27.1368 23.3386 28.2978 21.503 29.0118 19.4804C29.0707 19.3133 29.0811 19.133 29.0418 18.9603C29.0025 18.7875 28.915 18.6295 28.7896 18.5044ZM24.2896 23.5247C23.0112 24.7995 21.4736 25.7842 19.781 26.4121C18.0884 27.04 16.2805 27.2964 14.48 27.1637C12.6796 27.0311 10.9288 26.5126 9.34648 25.6435C7.76416 24.7743 6.3874 23.5749 5.30965 22.1265C4.23191 20.6782 3.47844 19.015 3.10038 17.2497C2.72232 15.4844 2.72855 13.6584 3.11862 11.8958C3.50869 10.1331 4.27348 8.47502 5.36107 7.03408C6.44865 5.59314 7.83356 4.4031 9.42176 3.54475C8.95159 5.88544 9.06486 8.30588 9.75156 10.5924C10.4383 12.879 11.6773 14.9613 13.3593 16.6557C15.0534 18.3379 17.1358 19.5771 19.4224 20.2639C21.709 20.9506 24.1295 21.0637 26.4702 20.5932C25.8906 21.6717 25.1559 22.6594 24.2896 23.5247Z" fill="#EEEEEE"/>
</svg>
