<svg width="15" height="17" viewBox="0 0 15 17" fill="none" xmlns="http://www.w3.org/2000/svg">
    <path
        d="M12.5417 12.249L11.375 11.0824C11.7361 10.7212 12.0139 10.301 12.2083 9.82152C12.4028 9.34208 12.5 8.84569 12.5 8.33236C12.5 7.81847 12.4028 7.3218 12.2083 6.84236C12.0139 6.36291 11.7361 5.94291 11.375 5.58236L12.5417 4.41569C13.0694 4.94347 13.4722 5.54069 13.75 6.20736C14.0278 6.87402 14.1667 7.58236 14.1667 8.33236C14.1667 9.08236 14.0278 9.79069 13.75 10.4574C13.4722 11.124 13.0694 11.7212 12.5417 12.249ZM10.3125 10.5824L9.125 9.41569C9.27778 9.26291 9.3925 9.09625 9.46917 8.91569C9.54584 8.73514 9.58389 8.54069 9.58333 8.33236C9.58333 8.12402 9.545 7.92958 9.46833 7.74902C9.39167 7.56847 9.27722 7.4018 9.125 7.24902L10.3125 6.08236C10.6181 6.38791 10.8508 6.7318 11.0108 7.11402C11.1708 7.49625 11.2506 7.90236 11.25 8.33236C11.25 8.76291 11.17 9.1693 11.01 9.55152C10.85 9.93375 10.6175 10.2774 10.3125 10.5824ZM4.16667 16.6657C3.01389 16.6657 2.03111 16.2593 1.21833 15.4465C0.405556 14.6337 -0.000554986 13.6512 5.69217e-07 12.499V4.16569C5.69217e-07 3.01291 0.40639 2.03013 1.21917 1.21736C2.03195 0.404579 3.01445 -0.00153155 4.16667 -0.000975993C5.31945 -0.000975993 6.30222 0.405413 7.115 1.21819C7.92778 2.03097 8.33389 3.01347 8.33333 4.16569V12.499C8.33333 13.6518 7.92695 14.6346 7.11417 15.4474C6.30139 16.2601 5.31889 16.6662 4.16667 16.6657ZM4.16667 14.999C4.86111 14.999 5.45139 14.756 5.9375 14.2699C6.42361 13.7837 6.66667 13.1935 6.66667 12.499V4.16569C6.66667 3.47125 6.42361 2.88097 5.9375 2.39486C5.45139 1.90875 4.86111 1.66569 4.16667 1.66569C3.47222 1.66569 2.88195 1.90875 2.39583 2.39486C1.90972 2.88097 1.66667 3.47125 1.66667 4.16569V12.499C1.66667 13.1935 1.90972 13.7837 2.39583 14.2699C2.88195 14.756 3.47222 14.999 4.16667 14.999ZM4.16667 13.3324C4.625 13.3324 5.0175 13.169 5.34417 12.8424C5.67083 12.5157 5.83389 12.1235 5.83333 11.6657C5.83333 11.2074 5.67 10.8149 5.34333 10.4882C5.01667 10.1615 4.62444 9.99847 4.16667 9.99902C3.70833 9.99902 3.31583 10.1624 2.98917 10.489C2.6625 10.8157 2.49945 11.2079 2.5 11.6657C2.5 12.124 2.66333 12.5165 2.99 12.8432C3.31667 13.1699 3.70889 13.3329 4.16667 13.3324ZM4.16667 12.499C3.93056 12.499 3.7325 12.419 3.5725 12.259C3.4125 12.099 3.33278 11.9012 3.33333 11.6657C3.33333 11.4296 3.41333 11.2315 3.57333 11.0715C3.73333 10.9115 3.93111 10.8318 4.16667 10.8324C4.40278 10.8324 4.60083 10.9124 4.76083 11.0724C4.92083 11.2324 5.00056 11.4301 5 11.6657C5 11.9018 4.92 12.0999 4.76 12.2599C4.6 12.4199 4.40222 12.4996 4.16667 12.499ZM4.16667 6.66569C4.625 6.66569 5.0175 6.50236 5.34417 6.17569C5.67083 5.84902 5.83389 5.4568 5.83333 4.99902C5.83333 4.54069 5.67 4.14819 5.34333 3.82152C5.01667 3.49486 4.62444 3.3318 4.16667 3.33236C3.70833 3.33236 3.31583 3.49569 2.98917 3.82236C2.6625 4.14902 2.49945 4.54125 2.5 4.99902C2.5 5.45736 2.66333 5.84986 2.99 6.17652C3.31667 6.50319 3.70889 6.66625 4.16667 6.66569Z"
        fill="#0082B0" />
</svg>
