<svg width="22" height="22" viewBox="0 0 22 22" fill="none" xmlns="http://www.w3.org/2000/svg">
<path d="M19.8833 21.7305L17.1533 19.0005H16.0433C14.9433 19.0005 14.0433 18.1005 14.0433 17.0005V15.8905L11.7033 13.5505L10.8533 14.0405C9.90332 14.5905 8.67332 14.2605 8.12332 13.3105L6.62332 10.7105C6.22332 10.0005 6.29332 9.18047 6.72332 8.57047L0.15332 2.00047L1.43332 0.730469L21.1533 20.4605L19.8833 21.7305ZM17.5433 12.0005C17.5433 11.4305 17.3433 10.9005 17.0133 10.5005L18.9833 9.35047C19.9933 8.76047 20.3433 7.47047 19.7533 6.46047L18.3733 4.06047C17.7833 3.05047 16.4933 2.70047 15.4833 3.28047L9.81332 6.57047L16.9033 13.6605C17.3033 13.2205 17.5433 12.6405 17.5433 12.0005ZM1.04332 11.6205L4.54332 17.6805L7.07332 14.5005L5.07332 11.0305L1.04332 11.6205Z" fill="white"/>
</svg>
