<svg width="34" height="37" viewBox="0 0 34 37" fill="none" xmlns="http://www.w3.org/2000/svg">
<circle cx="2.5" cy="2.5" r="2" transform="matrix(-1 0 0 1 15 8.00391)" stroke="#FF13A0"/>
<mask id="path-2-inside-1_11356_44010" fill="white">
<path d="M16.7803 11.8927C16.4494 12.9127 15.7651 13.781 14.8506 14.3412C13.9362 14.9013 12.8518 15.1165 11.7928 14.948C10.7338 14.7795 9.76978 14.2383 9.0744 13.422C8.37902 12.6057 7.99801 11.5679 8.00001 10.4955C8.002 9.42319 8.38687 8.38681 9.08528 7.57309C9.78369 6.75937 10.7497 6.2218 11.8094 6.05722C12.869 5.89264 13.9526 6.11188 14.8649 6.67543C15.7772 7.23898 16.4583 8.10981 16.7855 9.13103L16.0809 9.35674C15.8075 8.50341 15.2384 7.77576 14.4761 7.30485C13.7138 6.83395 12.8083 6.65076 11.9229 6.78828C11.0375 6.9258 10.2303 7.37499 9.64668 8.05493C9.06309 8.73487 8.7415 9.60087 8.73983 10.4969C8.73816 11.393 9.05653 12.2601 9.63759 12.9422C10.2186 13.6244 11.0242 14.0765 11.9091 14.2174C12.794 14.3582 13.7001 14.1784 14.4642 13.7103C15.2283 13.2422 15.8001 12.5167 16.0766 11.6644L16.7803 11.8927Z"/>
</mask>
<path d="M16.7803 11.8927C16.4494 12.9127 15.7651 13.781 14.8506 14.3412C13.9362 14.9013 12.8518 15.1165 11.7928 14.948C10.7338 14.7795 9.76978 14.2383 9.0744 13.422C8.37902 12.6057 7.99801 11.5679 8.00001 10.4955C8.002 9.42319 8.38687 8.38681 9.08528 7.57309C9.78369 6.75937 10.7497 6.2218 11.8094 6.05722C12.869 5.89264 13.9526 6.11188 14.8649 6.67543C15.7772 7.23898 16.4583 8.10981 16.7855 9.13103L16.0809 9.35674C15.8075 8.50341 15.2384 7.77576 14.4761 7.30485C13.7138 6.83395 12.8083 6.65076 11.9229 6.78828C11.0375 6.9258 10.2303 7.37499 9.64668 8.05493C9.06309 8.73487 8.7415 9.60087 8.73983 10.4969C8.73816 11.393 9.05653 12.2601 9.63759 12.9422C10.2186 13.6244 11.0242 14.0765 11.9091 14.2174C12.794 14.3582 13.7001 14.1784 14.4642 13.7103C15.2283 13.2422 15.8001 12.5167 16.0766 11.6644L16.7803 11.8927Z" fill="#FF13A0" stroke="#FF13A0" stroke-width="4" mask="url(#path-2-inside-1_11356_44010)"/>
<path d="M16 9.00391H32C32.5523 9.00391 33 9.45162 33 10.0039V11.0039C33 11.5562 32.5523 12.0039 32 12.0039H16" stroke="#FF13A0"/>
<path d="M23 13.0039V35.0039C23 35.5562 22.5523 36.0039 22 36.0039H2C1.44772 36.0039 1 35.5562 1 35.0039V2.00391C1 1.45162 1.44772 1.00391 2 1.00391H22C22.5523 1.00391 23 1.45162 23 2.00391V8.00391" stroke="#FF13A0" stroke-width="2"/>
<rect x="4.99988" y="17.5039" width="14" height="2" stroke="#FF13A0"/>
<circle cx="5.99988" cy="23.0039" r="0.5" stroke="#FF13A0"/>
<circle cx="11.9999" cy="23.0039" r="0.5" stroke="#FF13A0"/>
<circle cx="17.9999" cy="23.0039" r="0.5" stroke="#FF13A0"/>
<circle cx="5.99988" cy="27.0039" r="0.5" stroke="#FF13A0"/>
<circle cx="11.9999" cy="27.0039" r="0.5" stroke="#FF13A0"/>
<circle cx="18" cy="27.0039" r="0.5" stroke="#FF13A0"/>
<circle cx="5.99988" cy="31.0039" r="0.5" stroke="#FF13A0"/>
<circle cx="12" cy="31.0039" r="0.5" stroke="#FF13A0"/>
<circle cx="18" cy="31.0039" r="0.5" stroke="#FF13A0"/>
</svg>
