<svg width="38" height="31" viewBox="0 0 38 31" fill="none" xmlns="http://www.w3.org/2000/svg">
    <path fill-rule="evenodd" clip-rule="evenodd"
        d="M8.73244 0.992932C8.01596 1.114 7.44927 1.6202 7.22311 2.34114L7.16568 2.52421L7.15928 6.49531C7.15455 9.44315 7.15916 10.5067 7.17719 10.6227C7.2927 11.3661 7.85061 11.9736 8.60579 12.1784C8.74533 12.2162 8.96083 12.2174 15.3059 12.2174H21.8619L22.0449 12.16C22.6937 11.9565 23.1436 11.5074 23.346 10.8614L23.4044 10.6749V6.59953V2.52421L23.346 2.33762C23.1436 1.69166 22.6937 1.24258 22.0449 1.03906L21.8619 0.981634L15.3476 0.978757C11.7648 0.977173 8.78793 0.983552 8.73244 0.992932ZM21.792 2.27717C21.9159 2.33443 22.0516 2.47018 22.1089 2.59407C22.1535 2.69058 22.1537 2.69854 22.1593 4.51497L22.1649 6.33896L20.7835 4.95998C19.8389 4.01709 19.3724 3.56558 19.3083 3.53231C19.1734 3.46233 18.9012 3.46231 18.7663 3.53224C18.7011 3.56606 18.0606 4.19218 16.6662 5.58504L14.6599 7.58918L13.9042 6.83593C13.3892 6.32268 13.1185 6.06772 13.0546 6.03572C12.915 5.96583 12.7221 5.95811 12.5647 6.01615C12.4439 6.0607 12.3707 6.13111 10.4228 8.07647L8.406 10.0907V6.43062C8.406 2.44835 8.39956 2.66767 8.52159 2.49157C8.59515 2.38544 8.70453 2.30391 8.83317 2.25935C8.93148 2.22529 9.30933 2.22343 15.3163 2.22777L21.6951 2.23237L21.792 2.27717ZM20.6066 6.55334L22.1654 8.11226L22.1596 9.31018L22.1537 10.5081L22.1032 10.6107C22.0754 10.6672 22.0159 10.7502 21.9708 10.7952C21.9258 10.8402 21.8453 10.8973 21.792 10.9219C21.6955 10.9665 21.6876 10.9667 19.8711 10.9722L18.0471 10.9777L16.7964 9.7267L15.5457 8.47562L17.2862 6.73503C18.2435 5.7777 19.0315 4.99442 19.0373 4.99442C19.0431 4.99442 19.7493 5.69594 20.6066 6.55334ZM14.5346 9.23651L16.2751 10.9771H12.7836H9.29202L11.0326 9.23651C11.9898 8.27917 12.7778 7.4959 12.7836 7.4959C12.7894 7.4959 13.5773 8.27917 14.5346 9.23651ZM33.5799 8.50745C32.8143 8.66255 32.2383 9.23005 32.089 9.97653C32.047 10.1862 31.5414 15.3201 31.5518 15.4302C31.5704 15.6259 31.6932 15.8036 31.882 15.9082L31.9928 15.9697L33.0195 15.9756L34.0461 15.9816V21.6069V27.2323L33.5719 27.2417C33.1312 27.2505 33.0844 27.2552 32.9111 27.3076C32.2723 27.5008 31.8143 27.9591 31.613 28.6067L31.5562 28.7897L31.5556 29.6652C31.5551 30.5345 31.5554 30.5414 31.6021 30.6288C31.6722 30.76 31.7582 30.8485 31.882 30.9171L31.9928 30.9785H34.6715H37.3502L37.4611 30.9171C37.5849 30.8485 37.6708 30.76 37.7409 30.6288C37.7869 30.5427 37.7881 30.5238 37.7945 29.7695C37.8014 28.9417 37.7896 28.7792 37.7038 28.5268C37.5447 28.059 37.2151 27.6729 36.7866 27.4525C36.4452 27.2768 36.243 27.2371 35.6877 27.2369L35.2969 27.2367V21.6091V15.9816L36.3235 15.9756L37.3502 15.9697L37.4611 15.9082C37.6499 15.8036 37.7726 15.6259 37.7912 15.4302C37.8017 15.3201 37.296 10.1862 37.254 9.97653C37.1149 9.28114 36.594 8.72984 35.891 8.53409C35.7304 8.4894 35.687 8.48748 34.7236 8.48306C33.9369 8.47944 33.6924 8.48465 33.5799 8.50745ZM35.6757 9.78525C35.8089 9.8515 35.9184 9.96304 35.978 10.0933C36.0239 10.1934 36.0461 10.3844 36.2455 12.3877C36.3652 13.5896 36.4681 14.6082 36.4743 14.6512L36.4856 14.7293H34.6715H32.8574L32.8687 14.6512C32.8749 14.6082 32.9778 13.5903 33.0973 12.3893C33.327 10.0822 33.3227 10.1126 33.4413 9.96181C33.5035 9.88274 33.6259 9.79844 33.7335 9.76053C33.8142 9.73207 33.9488 9.72813 34.7028 9.73216C35.5726 9.73678 35.5789 9.73712 35.6757 9.78525ZM4.25323 17.2631C3.35035 17.4037 2.57591 18.0666 2.2789 18.9531C2.15522 19.3223 2.15247 19.3707 2.15239 21.1937L2.15231 22.8531L1.98646 22.867C1.76816 22.8852 1.49573 22.9658 1.28894 23.0734C0.831193 23.3115 0.507793 23.7071 0.344051 24.2291L0.286621 24.4121V27.4764V30.5408L0.348032 30.6516C0.416615 30.7754 0.505167 30.8614 0.636369 30.9315L0.72438 30.9785H2.77768H4.83097L4.91898 30.9315C5.05018 30.8614 5.13874 30.7754 5.20732 30.6516C5.26846 30.5412 5.26875 30.539 5.27553 30.1395L5.28234 29.7382H15.2851H25.2878L25.2946 30.1395C25.3009 30.5088 25.3051 30.5478 25.3484 30.6288C25.4185 30.76 25.5045 30.8485 25.6283 30.9171L25.7392 30.9785H27.7925H29.8457L29.9338 30.9315C30.065 30.8614 30.1535 30.7754 30.2221 30.6516L30.2835 30.5408V27.4764V24.4121L30.2261 24.2291C30.0623 23.7071 29.7389 23.3115 29.2812 23.0734C29.0744 22.9658 28.802 22.8852 28.5837 22.867L28.4178 22.8531L28.4177 21.1937C28.4177 19.3707 28.4149 19.3223 28.2912 18.9531C28.0364 18.1927 27.4547 17.6117 26.692 17.3562C26.3011 17.2253 26.5387 17.231 21.5388 17.2314C18.6301 17.2315 16.9312 17.2391 16.8381 17.2524C16.2908 17.3302 15.8159 17.5659 15.4144 17.959L15.2832 18.0875L15.1539 17.9589C14.7625 17.5701 14.2801 17.3303 13.7321 17.2524C13.6385 17.2391 11.9435 17.2322 9.01052 17.2333C5.26696 17.2346 4.40186 17.24 4.25323 17.2631ZM13.6695 18.5129C14.1366 18.611 14.5303 19.0047 14.6283 19.4717C14.654 19.594 14.659 19.9313 14.6593 21.5511L14.6597 23.4845L10.5062 23.4846C5.95199 23.4848 6.14271 23.4798 5.75775 23.6087C5.5568 23.6761 5.42259 23.7386 5.22844 23.8555C5.11401 23.9243 5.10309 23.9271 5.08252 23.8929C4.70262 23.2596 4.19839 22.9208 3.55418 22.8659L3.40305 22.853L3.4034 21.2353C3.40371 19.8933 3.40899 19.5928 3.4344 19.4717C3.53139 19.0098 3.92444 18.6129 4.38279 18.5141C4.59116 18.4692 13.4559 18.468 13.6695 18.5129ZM26.1769 18.5129C26.644 18.611 27.0377 19.0047 27.1357 19.4717C27.1611 19.5928 27.1664 19.8933 27.1667 21.2354L27.1671 22.8531L27.0012 22.867C26.6884 22.8931 26.3566 23.016 26.0935 23.2032C25.9497 23.3056 25.7254 23.5336 25.6283 23.6761C25.5566 23.7813 25.4091 24.0753 25.3885 24.154L25.376 24.202L25.3283 24.1583C25.2417 24.079 24.971 23.9083 24.7803 23.8127C24.548 23.6963 24.2879 23.6035 24.0235 23.5427L23.8214 23.4962L19.8659 23.4899L15.9104 23.4837L15.9108 21.5507C15.9111 19.9313 15.9161 19.594 15.9418 19.4717C16.0388 19.0098 16.4318 18.6129 16.8902 18.5141C17.0986 18.4692 25.9632 18.468 26.1769 18.5129ZM3.6563 24.1651C3.78018 24.2224 3.91593 24.3581 3.97319 24.482L4.01799 24.5789L4.02352 27.1586L4.02906 29.7382H2.77799H1.52694V27.1983C1.52694 24.4376 1.5222 24.5531 1.64253 24.3795C1.7159 24.2736 1.82518 24.192 1.95411 24.1468C2.04735 24.1141 2.13861 24.1108 2.80894 24.1153C3.52714 24.1201 3.56356 24.1222 3.6563 24.1651ZM28.6711 24.1651C28.795 24.2224 28.9307 24.3581 28.988 24.482L29.0328 24.5789L29.0383 27.1586L29.0438 29.7382H27.7928H26.5417V27.1983C26.5417 24.4376 26.537 24.5531 26.6573 24.3795C26.7307 24.2736 26.84 24.192 26.9689 24.1468C27.0621 24.1141 27.1534 24.1108 27.8237 24.1153C28.5419 24.1201 28.5783 24.1222 28.6711 24.1651ZM23.737 24.7669C24.4492 24.8911 25.0333 25.4284 25.2323 26.1423C25.2771 26.3033 25.279 26.3472 25.2861 27.3983L25.2934 28.4875H15.2863H5.27915L5.27951 27.1794C5.27982 26.1098 5.28547 25.8447 5.3105 25.7254C5.4075 25.2635 5.80054 24.8666 6.2589 24.7678C6.37378 24.743 7.69994 24.7383 14.9749 24.7369C22.5626 24.7354 23.5763 24.7389 23.737 24.7669ZM36.1755 28.5427C36.2994 28.5999 36.4351 28.7357 36.4924 28.8596C36.5322 28.9457 36.538 29.0001 36.544 29.3473L36.5509 29.7382H34.6731H32.7954V29.3871C32.7954 29.0028 32.8151 28.8955 32.911 28.7571C32.9845 28.6511 33.0938 28.5695 33.2226 28.5246C33.3184 28.4912 33.4398 28.4886 34.7028 28.493C36.0614 28.4978 36.0798 28.4984 36.1755 28.5427Z"
        fill="#7D8598" />
</svg>
