<svg width="22" height="22" viewBox="0 0 22 22" fill="none" xmlns="http://www.w3.org/2000/svg">
<path d="M10.0835 1.83301H8.25016C3.66683 1.83301 1.8335 3.66634 1.8335 8.24967V13.7497C1.8335 18.333 3.66683 20.1663 8.25016 20.1663H13.7502C18.3335 20.1663 20.1668 18.333 20.1668 13.7497V11.9163" stroke="#2D3E52" stroke-width="1.5" stroke-linecap="round" stroke-linejoin="round"/>
<path d="M14.7032 2.76881L7.47989 9.99214C7.20489 10.2671 6.92989 10.808 6.87489 11.2021L6.48072 13.9613C6.33406 14.9605 7.03989 15.6571 8.03906 15.5196L10.7982 15.1255C11.1832 15.0705 11.7241 14.7955 12.0082 14.5205L19.2316 7.29714C20.4782 6.05048 21.0649 4.60214 19.2316 2.76881C17.3982 0.935476 15.9499 1.52214 14.7032 2.76881Z" stroke="#2D3E52" stroke-width="1.5" stroke-miterlimit="10" stroke-linecap="round" stroke-linejoin="round"/>
<path d="M13.6675 3.80371C14.2816 5.99454 15.9958 7.70871 18.1958 8.33204" stroke="#2D3E52" stroke-width="1.5" stroke-miterlimit="10" stroke-linecap="round" stroke-linejoin="round"/>
</svg>
