<svg width="19" height="14" viewBox="0 0 19 14" fill="none" xmlns="http://www.w3.org/2000/svg">
    <path
        d="M0.456543 12.5937C0.456543 9.18574 0.456543 5.77776 0.456543 2.36977C0.465918 2.35171 0.47998 2.33366 0.484668 2.31109C0.676855 1.48505 1.32373 0.979492 2.20967 0.979492C7.04248 0.979492 11.8753 0.979492 16.7081 0.979492C17.7253 0.979492 18.4565 1.67915 18.4565 2.66317C18.4565 5.87255 18.4565 9.08192 18.4565 12.2913C18.4565 12.4403 18.4425 12.5982 18.405 12.7427C18.2128 13.501 17.5472 13.975 16.694 13.975C12.2784 13.975 7.86279 13.975 3.44248 13.975C3.00186 13.975 2.56592 13.9795 2.12529 13.975C1.40342 13.966 0.770605 13.5146 0.545605 12.86C0.512793 12.7743 0.484668 12.684 0.456543 12.5937ZM17.3315 3.24998C17.2519 3.31769 17.2097 3.3538 17.1628 3.38991C14.7487 5.4031 12.3394 7.4163 9.92529 9.42949C9.57842 9.71838 9.33936 9.71838 8.99717 9.43401C6.57373 7.41178 4.15498 5.39408 1.73154 3.37185C1.68936 3.33574 1.64717 3.30415 1.58154 3.25449C1.58154 3.34026 1.58154 3.39894 1.58154 3.4531C1.58154 6.38262 1.58154 9.30762 1.58154 12.2371C1.58154 12.693 1.78779 12.8916 2.27061 12.8916C7.06123 12.8916 11.8565 12.8916 16.6472 12.8916C17.1253 12.8916 17.3315 12.693 17.3315 12.2326C17.3315 9.3031 17.3315 6.3781 17.3315 3.44859C17.3315 3.39894 17.3315 3.34477 17.3315 3.24998ZM16.9659 2.12151C16.9612 2.10796 16.9565 2.09894 16.9519 2.08539C11.955 2.08539 6.95811 2.08539 1.96123 2.08539C1.95654 2.09894 1.95186 2.10796 1.94717 2.12151C4.45029 4.20692 6.94873 6.29234 9.45654 8.38678C11.969 6.29234 14.4675 4.20692 16.9659 2.12151Z"
        fill="#7E8699" />
</svg>
