<svg width="46" height="24" viewBox="0 0 46 24" fill="none" xmlns="http://www.w3.org/2000/svg">
<line x1="1" y1="-1" x2="22.1453" y2="-1" transform="matrix(-1.85336e-05 -1 1 2.95134e-05 2.01019 23.1562)" stroke="#7E8699" stroke-width="2" stroke-linecap="round"/>
<line x1="1" y1="-1" x2="20.908" y2="-1" transform="matrix(-7.2738e-06 -1 1 2.77659e-05 2.00323 23.1602)" stroke="#7E8699" stroke-width="2" stroke-linecap="round"/>
<line x1="1" y1="-1" x2="9.17155" y2="-1" transform="matrix(-7.2738e-06 -1 1 2.77659e-05 33.0576 16.4297)" stroke="#7E8699" stroke-width="2" stroke-linecap="round"/>
<line x1="1" y1="-1" x2="9.17155" y2="-1" transform="matrix(-7.2738e-06 -1 1 2.77659e-05 8.02258 16.4297)" stroke="#7E8699" stroke-width="2" stroke-linecap="round"/>
<line x1="1" y1="-1" x2="20.908" y2="-1" transform="matrix(-7.2738e-06 -1 1 2.77659e-05 14.2792 21.9102)" stroke="#7E8699" stroke-width="2" stroke-linecap="round"/>
<line x1="1" y1="-1" x2="9.17155" y2="-1" transform="matrix(-7.2738e-06 -1 1 2.77659e-05 20.5379 16.4297)" stroke="#7E8699" stroke-width="2" stroke-linecap="round"/>
<line x1="1" y1="-1" x2="20.908" y2="-1" transform="matrix(-7.2738e-06 -1 1 2.77659e-05 26.7988 21.9102)" stroke="#7E8699" stroke-width="2" stroke-linecap="round"/>
<line x1="1" y1="-1" x2="9.17155" y2="-1" transform="matrix(-7.2738e-06 -1 1 2.77659e-05 45.258 16.4297)" stroke="#7E8699" stroke-width="2" stroke-linecap="round"/>
<line x1="1" y1="-1" x2="20.908" y2="-1" transform="matrix(-7.2738e-06 -1 1 2.77659e-05 39.0002 21.9102)" stroke="#7E8699" stroke-width="2" stroke-linecap="round"/>
</svg>
