<svg width="22" height="21" viewBox="0 0 22 21" fill="none" xmlns="http://www.w3.org/2000/svg">
<path d="M10.9948 0.283203C10.387 0.283203 9.80411 0.524646 9.37434 0.954417C8.94457 1.38419 8.70312 1.96708 8.70312 2.57487C8.70335 3.02057 8.83355 3.45654 9.07777 3.82938C9.32199 4.20222 9.66963 4.49575 10.0781 4.67404V5.7832H6.41146C5.92523 5.7832 5.45891 5.97636 5.1151 6.32017C4.77128 6.66399 4.57812 7.13031 4.57812 7.61654V8.26737C4.16963 8.44565 3.82199 8.73919 3.57777 9.11203C3.33355 9.48487 3.20335 9.92083 3.20312 10.3665C3.20335 10.8122 3.33355 11.2482 3.57777 11.621C3.82199 11.9939 4.16963 12.2874 4.57812 12.4657V13.1165H3.66146C3.17523 13.1165 2.70891 13.3097 2.3651 13.6535C2.02128 13.9973 1.82812 14.4636 1.82812 14.9499V16.059C1.41963 16.2373 1.07199 16.5309 0.827769 16.9037C0.58355 17.2765 0.453355 17.7125 0.453125 18.1582C0.453125 18.766 0.694568 19.3489 1.12434 19.7787C1.33714 19.9915 1.58977 20.1603 1.86781 20.2754C2.14585 20.3906 2.44385 20.4499 2.74479 20.4499C3.35258 20.4499 3.93547 20.2084 4.36524 19.7787C4.79502 19.3489 5.03646 18.766 5.03646 18.1582C5.03623 17.7125 4.90603 17.2765 4.66181 16.9037C4.4176 16.5309 4.06995 16.2373 3.66146 16.059V14.9499H7.32812V16.059C6.91963 16.2373 6.57199 16.5309 6.32777 16.9037C6.08355 17.2765 5.95335 17.7125 5.95312 18.1582C5.95312 18.766 6.19457 19.3489 6.62434 19.7787C7.05411 20.2084 7.637 20.4499 8.24479 20.4499C8.54574 20.4499 8.84374 20.3906 9.12177 20.2754C9.39981 20.1603 9.65244 19.9915 9.86524 19.7787C10.078 19.5659 10.2468 19.3132 10.362 19.0352C10.4772 18.7571 10.5365 18.4591 10.5365 18.1582C10.5362 17.7125 10.406 17.2765 10.1618 16.9037C9.9176 16.5309 9.56995 16.2373 9.16146 16.059V14.9499C9.16146 14.4636 8.9683 13.9973 8.62449 13.6535C8.28067 13.3097 7.81436 13.1165 7.32812 13.1165H6.41146V12.4657C6.81995 12.2874 7.1676 11.9939 7.41181 11.621C7.65603 11.2482 7.78623 10.8122 7.78646 10.3665C7.78623 9.92083 7.65603 9.48487 7.41181 9.11203C7.1676 8.73919 6.81995 8.44565 6.41146 8.26737V7.61654H15.5781V8.26737C15.1696 8.44565 14.822 8.73919 14.5778 9.11203C14.3336 9.48487 14.2034 9.92083 14.2031 10.3665C14.2034 10.8122 14.3336 11.2482 14.5778 11.621C14.822 11.9939 15.1696 12.2874 15.5781 12.4657V13.1165H14.6615C14.1752 13.1165 13.7089 13.3097 13.3651 13.6535C13.0213 13.9973 12.8281 14.4636 12.8281 14.9499V16.059C12.4196 16.2373 12.072 16.5309 11.8278 16.9037C11.5836 17.2765 11.4534 17.7125 11.4531 18.1582C11.4531 18.766 11.6946 19.3489 12.1243 19.7787C12.5541 20.2084 13.137 20.4499 13.7448 20.4499C14.3526 20.4499 14.9355 20.2084 15.3652 19.7787C15.795 19.3489 16.0365 18.766 16.0365 18.1582C16.0362 17.7125 15.906 17.2765 15.6618 16.9037C15.4176 16.5309 15.07 16.2373 14.6615 16.059V14.9499H18.3281V16.059C17.9196 16.2373 17.572 16.5309 17.3278 16.9037C17.0836 17.2765 16.9534 17.7125 16.9531 18.1582C16.9531 18.766 17.1946 19.3489 17.6243 19.7787C18.0541 20.2084 18.637 20.4499 19.2448 20.4499C19.8526 20.4499 20.4355 20.2084 20.8652 19.7787C21.295 19.3489 21.5365 18.766 21.5365 18.1582C21.5362 17.7125 21.406 17.2765 21.1618 16.9037C20.9176 16.5309 20.57 16.2373 20.1615 16.059V14.9499C20.1615 14.4636 19.9683 13.9973 19.6245 13.6535C19.2807 13.3097 18.8144 13.1165 18.3281 13.1165H17.4115V12.4657C17.82 12.2874 18.1676 11.9939 18.4118 11.621C18.656 11.2482 18.7862 10.8122 18.7865 10.3665C18.7862 9.92083 18.656 9.48487 18.4118 9.11203C18.1676 8.73919 17.82 8.44565 17.4115 8.26737V7.61654C17.4115 7.13031 17.2183 6.66399 16.8745 6.32017C16.5307 5.97636 16.0644 5.7832 15.5781 5.7832H11.9115V4.67404C12.32 4.49575 12.6676 4.20222 12.9118 3.82938C13.156 3.45654 13.2862 3.02057 13.2865 2.57487C13.2865 1.96708 13.045 1.38419 12.6152 0.954417C12.1855 0.524646 11.6026 0.283203 10.9948 0.283203ZM10.9948 1.6582C11.2379 1.6582 11.4711 1.75478 11.643 1.92669C11.8149 2.0986 11.9115 2.33175 11.9115 2.57487C11.9115 2.81798 11.8149 3.05114 11.643 3.22305C11.4711 3.39496 11.2379 3.49154 10.9948 3.49154C10.7517 3.49154 10.5185 3.39496 10.3466 3.22305C10.1747 3.05114 10.0781 2.81798 10.0781 2.57487C10.0781 2.33175 10.1747 2.0986 10.3466 1.92669C10.5185 1.75478 10.7517 1.6582 10.9948 1.6582ZM5.49479 9.44987C5.73791 9.44987 5.97106 9.54645 6.14297 9.71836C6.31488 9.89026 6.41146 10.1234 6.41146 10.3665C6.41146 10.6097 6.31488 10.8428 6.14297 11.0147C5.97106 11.1866 5.73791 11.2832 5.49479 11.2832C5.25168 11.2832 5.01852 11.1866 4.84661 11.0147C4.6747 10.8428 4.57812 10.6097 4.57812 10.3665C4.57812 10.1234 4.6747 9.89026 4.84661 9.71836C5.01852 9.54645 5.25168 9.44987 5.49479 9.44987ZM16.4948 9.44987C16.7379 9.44987 16.9711 9.54645 17.143 9.71836C17.3149 9.89026 17.4115 10.1234 17.4115 10.3665C17.4115 10.6097 17.3149 10.8428 17.143 11.0147C16.9711 11.1866 16.7379 11.2832 16.4948 11.2832C16.2517 11.2832 16.0185 11.1866 15.8466 11.0147C15.6747 10.8428 15.5781 10.6097 15.5781 10.3665C15.5781 10.1234 15.6747 9.89026 15.8466 9.71836C16.0185 9.54645 16.2517 9.44987 16.4948 9.44987ZM2.74479 17.2415C2.98791 17.2415 3.22106 17.3381 3.39297 17.51C3.56488 17.6819 3.66146 17.9151 3.66146 18.1582C3.66146 18.4013 3.56488 18.6345 3.39297 18.8064C3.22106 18.9783 2.98791 19.0749 2.74479 19.0749C2.50168 19.0749 2.26852 18.9783 2.09661 18.8064C1.9247 18.6345 1.82812 18.4013 1.82812 18.1582C1.82812 17.9151 1.9247 17.6819 2.09661 17.51C2.26852 17.3381 2.50168 17.2415 2.74479 17.2415ZM8.24479 17.2415C8.48791 17.2415 8.72106 17.3381 8.89297 17.51C9.06488 17.6819 9.16146 17.9151 9.16146 18.1582C9.16146 18.4013 9.06488 18.6345 8.89297 18.8064C8.72106 18.9783 8.48791 19.0749 8.24479 19.0749C8.00168 19.0749 7.76852 18.9783 7.59661 18.8064C7.4247 18.6345 7.32812 18.4013 7.32812 18.1582C7.32812 17.9151 7.4247 17.6819 7.59661 17.51C7.76852 17.3381 8.00168 17.2415 8.24479 17.2415ZM13.7448 17.2415C13.9879 17.2415 14.2211 17.3381 14.393 17.51C14.5649 17.6819 14.6615 17.9151 14.6615 18.1582C14.6615 18.4013 14.5649 18.6345 14.393 18.8064C14.2211 18.9783 13.9879 19.0749 13.7448 19.0749C13.5017 19.0749 13.2685 18.9783 13.0966 18.8064C12.9247 18.6345 12.8281 18.4013 12.8281 18.1582C12.8281 17.9151 12.9247 17.6819 13.0966 17.51C13.2685 17.3381 13.5017 17.2415 13.7448 17.2415ZM19.2448 17.2415C19.4879 17.2415 19.7211 17.3381 19.893 17.51C20.0649 17.6819 20.1615 17.9151 20.1615 18.1582C20.1615 18.4013 20.0649 18.6345 19.893 18.8064C19.7211 18.9783 19.4879 19.0749 19.2448 19.0749C19.0017 19.0749 18.7685 18.9783 18.5966 18.8064C18.4247 18.6345 18.3281 18.4013 18.3281 18.1582C18.3281 17.9151 18.4247 17.6819 18.5966 17.51C18.7685 17.3381 19.0017 17.2415 19.2448 17.2415Z" fill="#2D3E52"/>
</svg>
