<svg width="24" height="24" viewBox="0 0 24 24" fill="none" xmlns="http://www.w3.org/2000/svg">
<mask id="mask0_6120_32150" style="mask-type:alpha" maskUnits="userSpaceOnUse" x="0" y="0" width="25" height="25">
<rect x="0.00146484" y="0.00976562" width="24" height="24" fill="#D9D9D9"/>
</mask>
<g mask="url(#mask0_6120_32150)">
<path d="M7.00146 14.0098C7.2848 14.0098 7.5223 13.9139 7.71396 13.7223C7.90563 13.5306 8.00146 13.2931 8.00146 13.0098C8.00146 12.7264 7.90563 12.4889 7.71396 12.2973C7.5223 12.1056 7.2848 12.0098 7.00146 12.0098C6.71813 12.0098 6.48063 12.1056 6.28896 12.2973C6.0973 12.4889 6.00146 12.7264 6.00146 13.0098C6.00146 13.2931 6.0973 13.5306 6.28896 13.7223C6.48063 13.9139 6.71813 14.0098 7.00146 14.0098ZM7.00146 10.0098C7.2848 10.0098 7.5223 9.91393 7.71396 9.72227C7.90563 9.5306 8.00146 9.2931 8.00146 9.00977C8.00146 8.72643 7.90563 8.48893 7.71396 8.29727C7.5223 8.1056 7.2848 8.00977 7.00146 8.00977C6.71813 8.00977 6.48063 8.1056 6.28896 8.29727C6.0973 8.48893 6.00146 8.72643 6.00146 9.00977C6.00146 9.2931 6.0973 9.5306 6.28896 9.72227C6.48063 9.91393 6.71813 10.0098 7.00146 10.0098ZM9.00146 14.0098H18.0015V12.0098H9.00146V14.0098ZM9.00146 10.0098H18.0015V8.00977H9.00146V10.0098ZM8.00146 21.0098V19.0098H4.00146C3.45146 19.0098 2.98063 18.8139 2.58896 18.4223C2.1973 18.0306 2.00146 17.5598 2.00146 17.0098V5.00977C2.00146 4.45977 2.1973 3.98893 2.58896 3.59727C2.98063 3.2056 3.45146 3.00977 4.00146 3.00977H20.0015C20.5515 3.00977 21.0223 3.2056 21.414 3.59727C21.8056 3.98893 22.0015 4.45977 22.0015 5.00977V17.0098C22.0015 17.5598 21.8056 18.0306 21.414 18.4223C21.0223 18.8139 20.5515 19.0098 20.0015 19.0098H16.0015V21.0098H8.00146ZM4.00146 17.0098H20.0015V5.00977H4.00146V17.0098Z" fill="#2D3E52"/>
</g>
</svg>
