<svg width="21" height="20" viewBox="0 0 21 20" fill="none" xmlns="http://www.w3.org/2000/svg">
<g clip-path="url(#clip0_4155_17117)">
<path d="M19.0065 -0.00390625H1.42841C1.10481 -0.00390625 0.842468 0.258437 0.842468 0.582031V2.92578C0.842468 3.08008 0.903328 3.22812 1.0118 3.33781L7.87372 10.276V19.4102C7.87372 19.6262 7.99266 19.8248 8.18317 19.9268C8.3736 20.0287 8.60477 20.0176 8.78466 19.8977L12.3003 17.5539C12.4633 17.4453 12.5612 17.2623 12.5612 17.0664V10.276L19.4231 3.33781C19.5316 3.22812 19.5925 3.08008 19.5925 2.92578V0.582031C19.5925 0.258437 19.3301 -0.00390625 19.0065 -0.00390625ZM11.3893 16.7528L9.04559 18.3153V10.6211H11.3893V16.7528ZM11.7307 9.44922H8.70426L2.832 3.51172H17.6029L11.7307 9.44922ZM18.4206 2.33984H2.01434V1.16797H18.4206V2.33984Z" fill="#7E8699"/>
</g>
<defs>
<clipPath id="clip0_4155_17117">
<rect width="20" height="20" fill="white" transform="translate(0.217468 -0.00390625)"/>
</clipPath>
</defs>
</svg>
