<svg width="20" height="31" viewBox="0 0 20 31" fill="none" xmlns="http://www.w3.org/2000/svg">
    <path
        d="M17.1089 0.978516H2.33154C1.20654 0.978516 0.286621 1.89258 0.286621 3.02344V26.625C0.286621 27.75 1.20654 28.6699 2.33154 28.6699H2.6831V30.3516C2.6831 30.6973 2.96436 30.9785 3.31006 30.9785H5.80029C6.146 30.9785 6.42725 30.6973 6.42725 30.3516V28.6699H13.019V30.3516C13.019 30.6973 13.3003 30.9785 13.646 30.9785H16.1362C16.4819 30.9785 16.7632 30.6973 16.7632 30.3516V28.6699H17.1147C18.2397 28.6699 19.1597 27.75 19.1597 26.625V3.02344C19.1538 1.89258 18.2339 0.978516 17.1089 0.978516ZM5.17334 29.7305H3.93115V28.6699H5.17334V29.7305ZM15.5034 29.7305H14.2612V28.6699H15.5034V29.7305ZM17.9058 26.625C17.9058 27.0645 17.5483 27.416 17.1147 27.416H2.33154C1.89209 27.416 1.53467 27.0586 1.53467 26.625V11.6719H17.8999L17.9058 26.625ZM17.9058 10.4238H1.53467V3.02344C1.53467 2.58398 1.89209 2.23242 2.33154 2.23242H17.1089C17.5483 2.23242 17.8999 2.58984 17.8999 3.02344L17.9058 10.4238Z"
        fill="#7D8598" />
    <path
        d="M3.43311 17.7305C3.77881 17.7305 4.06006 17.4492 4.06006 17.1035V13.5645C4.06006 13.2187 3.77881 12.9375 3.43311 12.9375C3.0874 12.9375 2.80615 13.2187 2.80615 13.5645V17.1035C2.80615 17.4551 3.0874 17.7305 3.43311 17.7305ZM3.43311 6.26953C3.0874 6.26953 2.80615 6.55078 2.80615 6.89648V8.53125C2.80615 8.87695 3.0874 9.1582 3.43311 9.1582C3.77881 9.1582 4.06006 8.87695 4.06006 8.53125V6.89648C4.0542 6.54492 3.77881 6.26953 3.43311 6.26953Z"
        fill="#7D8598" />
</svg>
