<svg width="18" height="17" viewBox="0 0 18 17" fill="none" xmlns="http://www.w3.org/2000/svg">
<path d="M0.989401 6.95454C0.784461 6.95454 0.587916 6.87313 0.443001 6.72821C0.298087 6.5833 0.216675 6.38675 0.216675 6.18181V1.54545C0.216675 1.13557 0.379499 0.742481 0.669327 0.452653C0.959156 0.162824 1.35225 0 1.76213 0H6.39849C6.60343 0 6.79997 0.0814122 6.94489 0.226326C7.0898 0.371241 7.17121 0.567787 7.17121 0.772726C7.17121 0.977666 7.0898 1.17421 6.94489 1.31913C6.79997 1.46404 6.60343 1.54545 6.39849 1.54545H1.76213V6.18181C1.76213 6.38675 1.68072 6.5833 1.5358 6.72821C1.39089 6.87313 1.19434 6.95454 0.989401 6.95454Z" fill="white"/>
<path d="M16.4439 6.95454C16.239 6.95454 16.0424 6.87313 15.8975 6.72821C15.7526 6.5833 15.6712 6.38675 15.6712 6.18181V1.54545H11.0348C10.8299 1.54545 10.6333 1.46404 10.4884 1.31913C10.3435 1.17421 10.2621 0.977666 10.2621 0.772726C10.2621 0.567787 10.3435 0.371241 10.4884 0.226326C10.6333 0.0814122 10.8299 0 11.0348 0H15.6712C16.081 0 16.4741 0.162824 16.764 0.452653C17.0538 0.742481 17.2166 1.13557 17.2166 1.54545V6.18181C17.2166 6.38675 17.1352 6.5833 16.9903 6.72821C16.8454 6.87313 16.6488 6.95454 16.4439 6.95454Z" fill="white"/>
<path d="M6.39849 17.0014H1.76213C1.35225 17.0014 0.959156 16.8386 0.669327 16.5488C0.379499 16.2589 0.216675 15.8658 0.216675 15.456V10.8196C0.216675 10.6147 0.298087 10.4181 0.443001 10.2732C0.587916 10.1283 0.784461 10.0469 0.989401 10.0469C1.19434 10.0469 1.39089 10.1283 1.5358 10.2732C1.68072 10.4181 1.76213 10.6147 1.76213 10.8196V15.456H6.39849C6.60343 15.456 6.79997 15.5374 6.94489 15.6823C7.0898 15.8272 7.17121 16.0237 7.17121 16.2287C7.17121 16.4336 7.0898 16.6302 6.94489 16.7751C6.79997 16.92 6.60343 17.0014 6.39849 17.0014Z" fill="white"/>
<path d="M15.6712 17.0014H11.0348C10.8299 17.0014 10.6333 16.92 10.4884 16.7751C10.3435 16.6302 10.2621 16.4336 10.2621 16.2287C10.2621 16.0237 10.3435 15.8272 10.4884 15.6823C10.6333 15.5374 10.8299 15.456 11.0348 15.456H15.6712V10.8196C15.6712 10.6147 15.7526 10.4181 15.8975 10.2732C16.0424 10.1283 16.239 10.0469 16.4439 10.0469C16.6488 10.0469 16.8454 10.1283 16.9903 10.2732C17.1352 10.4181 17.2166 10.6147 17.2166 10.8196V15.456C17.2166 15.8658 17.0538 16.2589 16.764 16.5488C16.4741 16.8386 16.081 17.0014 15.6712 17.0014Z" fill="white"/>
</svg>
