<svg width="31" height="31" viewBox="0 0 31 31" fill="none" xmlns="http://www.w3.org/2000/svg">
    <defs>
        <linearGradient id="paint0_linear_2928_584" x1="15.3032" y1="3.47789" x2="15.3045"
            y2="28.4779" gradientUnits="userSpaceOnUse">
            <stop stop-color="#FFFF" />
            <stop offset="1" stop-color="#FFFF" />
        </linearGradient>
    </defs>
    <path
        d="M8.85412 21.4032L9.05412 21.4032L21.5541 21.4026L21.7541 21.4026L21.7541 21.6026L21.7542 23.1026C21.7542 23.347 21.8308 23.5338 21.9769 23.6799C22.123 23.8259 22.3098 23.9025 22.5542 23.9025L23.0542 23.9025C23.2987 23.9025 23.4855 23.8259 23.6316 23.6798C23.7776 23.5337 23.8542 23.3469 23.8542 23.1025L23.8538 14.8859L21.8026 8.91984C21.8025 8.9195 21.8024 8.91916 21.8023 8.91883C21.7106 8.66259 21.5613 8.45492 21.3528 8.29145L8.85412 21.4032ZM8.85412 21.4032L8.85413 21.6032L8.8542 23.1032C8.85421 23.3477 8.77762 23.5345 8.63156 23.6806C8.4855 23.8266 8.29869 23.9032 8.05424 23.9033L7.55424 23.9033C7.30979 23.9033 7.12297 23.8267 6.9769 23.6806C6.83083 23.5346 6.75421 23.3478 6.7542 23.1033L6.75379 14.8867M8.85412 21.4032L6.75379 14.8867M6.75379 14.8867L8.80434 8.92048C8.80447 8.92012 8.8046 8.91975 8.80473 8.91939C8.89645 8.66313 9.04575 8.45544 9.25421 8.29196C9.46068 8.13067 9.68353 8.05317 9.92845 8.05316L20.6785 8.05262C20.9233 8.05261 21.1461 8.13005 21.3526 8.29124L6.75379 14.8867ZM5.10434 25.9784L5.10435 26.1784L5.30435 26.1784L25.3044 26.1774L25.5044 26.1774L25.5043 25.9774L25.5033 5.97738L25.5033 5.77738L25.3033 5.77739L5.30334 5.77839L5.10334 5.7784L5.10335 5.9784L5.10434 25.9784ZM10.8056 17.9769L10.8051 17.9764C10.6046 17.7767 10.5039 17.5318 10.5039 17.2281C10.5039 16.9244 10.6046 16.679 10.8053 16.4783C11.005 16.2785 11.2499 16.1781 11.5539 16.1781C11.8576 16.1781 12.1031 16.2784 12.3037 16.4782C12.5035 16.6788 12.6039 16.9242 12.6039 17.228C12.6039 17.5319 12.5035 17.7769 12.3038 17.9766C12.1031 18.1773 11.8577 18.2781 11.554 18.2781C11.2503 18.2781 11.0054 18.1774 10.8056 17.9769ZM18.3056 17.9766L18.3051 17.9761C18.1046 17.7763 18.0039 17.5314 18.0039 17.2278C18.0039 16.9241 18.1046 16.6786 18.3053 16.4779C18.505 16.2782 18.7499 16.1777 19.0539 16.1777C19.3576 16.1777 19.6031 16.278 19.8037 16.4778C20.0035 16.6784 20.1039 16.9239 20.1039 17.2277C20.1039 17.5316 20.0035 17.7765 19.8038 17.9762C19.6031 18.177 19.3577 18.2777 19.054 18.2777C18.7503 18.2777 18.5054 18.177 18.3056 17.9766ZM9.67741 12.7871L9.5843 13.0532L9.8662 13.0532L20.7412 13.0526L21.0231 13.0526L20.93 12.7865L20.0548 10.2866L20.008 10.1527L19.8661 10.1527L10.7411 10.1531L10.5992 10.1531L10.5523 10.2871L9.67741 12.7871ZM8.854 19.1032L8.85401 19.3032L9.05401 19.3032L21.554 19.3026L21.754 19.3026L21.754 19.1026L21.7538 15.3526L21.7538 15.1526L21.5538 15.1526L9.0538 15.1532L8.8538 15.1532L8.85381 15.3532L8.854 19.1032ZM5.30446 28.2784C4.67037 28.2784 4.13279 28.0552 3.68085 27.6033C3.228 27.1505 3.00438 26.6125 3.00434 25.9785L3.00335 5.97851C3.00332 5.34452 3.22688 4.80649 3.67969 4.35364C4.13159 3.9017 4.66915 3.67842 5.30323 3.67839L25.3032 3.67739C25.9372 3.67736 26.4752 3.90052 26.928 4.35236C27.38 4.80514 27.6033 5.34319 27.6033 5.97728L27.6043 25.9773C27.6044 26.6113 27.3812 27.1493 26.9293 27.6021C26.4765 28.0541 25.9385 28.2774 25.3045 28.2774L5.30446 28.2784Z"
        fill="white" stroke="url(#paint0_linear_2928_584)" stroke-width="0.4" />
</svg>
