<svg width="33" height="31" viewBox="0 0 33 31" fill="none" xmlns="http://www.w3.org/2000/svg">
    <path
        d="M2.43184 20.9675C4.07666 19.4836 5.88238 19.7876 7.61659 20.163C8.81444 20.4312 9.24352 21.5396 9.2614 22.809C9.61897 22.809 9.94078 22.809 10.2626 22.809C15.2149 22.809 20.1494 22.7911 25.1017 22.8269C27.1577 22.8448 28.9992 23.399 30.3222 25.5087C30.3222 24.3108 30.3222 23.3632 30.3222 22.3978C30.3222 21.4681 30.3043 20.5563 30.3222 19.6267C30.3401 18.9652 30.7155 18.5361 31.377 18.5361C32.0385 18.5361 32.4497 18.9473 32.4497 19.6088C32.4676 23.3811 32.4497 27.1714 32.4497 30.9795C31.7346 30.9795 31.091 30.9795 30.3401 30.9795C30.3401 30.0855 30.3401 29.1916 30.3401 28.2262C20.9897 28.2262 11.7465 28.2262 2.43184 28.2262C2.43184 29.138 2.43184 30.014 2.43184 30.9616C1.69883 30.9616 1.03733 30.9616 0.304312 30.9616C0.286433 30.7649 0.268555 30.5683 0.268555 30.3537C0.268555 25.2226 0.268555 20.1094 0.268555 14.9783C0.268555 14.8531 0.268555 14.7458 0.268555 14.6207C0.304312 13.9592 0.644002 13.5301 1.3055 13.5122C2.02064 13.4944 2.39609 13.9413 2.39609 14.6565C2.41397 16.2119 2.39609 17.7494 2.39609 19.3048C2.43184 19.8233 2.43184 20.3239 2.43184 20.9675ZM10.495 24.3287C10.352 24.2751 10.2984 24.2572 10.2268 24.2572C9.35079 24.2214 8.54627 24.436 7.67022 24.6863C5.93602 25.1868 4.05878 25.4014 2.48548 24.0069C2.48548 24.7041 2.48548 25.3299 2.48548 25.9735C5.18512 25.9735 7.81325 25.9735 10.495 25.9735C10.495 25.4014 10.495 24.8829 10.495 24.3287ZM5.6142 23.5063C6.00753 23.5063 6.38298 23.542 6.7763 23.5063C7.40205 23.4526 7.77749 23.0772 7.77749 22.4693C7.79537 21.8436 7.41992 21.4503 6.79418 21.3966C6.02541 21.343 5.23876 21.343 4.46998 21.3966C3.86212 21.4503 3.48667 21.8436 3.50455 22.4693C3.52243 23.0951 3.89788 23.4526 4.52362 23.5063C4.89907 23.542 5.25664 23.5063 5.6142 23.5063Z"
        fill="#7D8598" />
    <path
        d="M8.29606 5.94954C8.29606 4.6623 8.29606 3.41081 8.29606 2.10568C8.06364 2.0878 7.81334 2.14144 7.61668 2.05205C7.36638 1.9269 7.15184 1.71236 6.91942 1.53357C7.15184 1.35479 7.36638 1.0151 7.5988 1.0151C9.29725 0.979342 10.9957 0.979342 12.6941 1.0151C12.9087 1.0151 13.1232 1.31903 13.3378 1.47994C13.1232 1.6766 12.9266 1.90902 12.6763 2.03417C12.4975 2.12356 12.2651 2.05205 11.979 2.05205C11.979 3.33929 11.979 4.59078 11.979 5.93167C12.1757 5.94954 12.3902 5.96742 12.6048 6.00318C13.9099 6.14621 14.8932 7.09376 14.929 8.39889C14.9647 10.1331 15.0005 11.8494 14.9111 13.5836C14.8932 14.1379 14.5714 14.71 14.2496 15.1748C13.9099 15.6754 13.1054 15.8542 13.2663 16.7124C13.2841 16.8017 12.9802 17.0342 12.8193 17.0342C12.6584 17.0342 12.426 16.8911 12.3366 16.7302C12.2293 16.5336 12.2472 16.2833 12.1936 16.033C10.8169 16.033 9.44028 16.033 8.01 16.033C7.99212 16.1939 8.02788 16.4084 7.95637 16.5157C7.79546 16.7302 7.56304 16.8733 7.36638 17.052C7.20547 16.8554 7.04457 16.6766 6.90154 16.4799C6.687 16.176 6.57973 15.7648 6.31155 15.5324C5.66793 14.9603 5.29248 14.3166 5.29248 13.4406C5.29248 11.9746 5.29248 10.5264 5.29248 9.06039C5.29248 6.96862 6.09701 6.11045 8.29606 5.94954ZM13.5166 11.027C13.5166 10.2582 13.5344 9.47159 13.5166 8.70282C13.4987 7.82678 13.1232 7.45133 12.2651 7.43345C10.8348 7.41558 9.40452 7.41558 7.97424 7.43345C7.11608 7.45133 6.74063 7.82678 6.72275 8.70282C6.70488 10.2582 6.72275 11.7958 6.72275 13.3512C6.72275 14.1557 7.13396 14.5669 7.93849 14.5669C9.40452 14.5669 10.8527 14.5848 12.3187 14.5669C13.1232 14.5669 13.5166 14.1379 13.5166 13.3333C13.5166 12.5646 13.5166 11.7958 13.5166 11.027ZM9.45815 2.10568C9.45815 3.41081 9.45815 4.6623 9.45815 5.93167C9.94087 5.93167 10.3521 5.93167 10.7812 5.93167C10.7812 4.60866 10.7812 3.35717 10.7812 2.10568C10.2984 2.10568 9.90511 2.10568 9.45815 2.10568Z"
        fill="#7D8598" />
    <path
        d="M24.8155 16.0328C23.4031 16.0328 21.8298 16.0328 20.4889 16.0328C20.0777 16.4082 19.7916 16.6406 19.5235 16.8909C19.3626 16.587 19.2195 16.2652 19.0586 15.9613C18.9692 15.7825 18.8977 15.5858 18.7547 15.4607C18.0395 14.8528 17.8071 14.0661 17.8071 13.1543C17.825 10.6514 17.8071 8.14838 17.8071 5.6454C17.8071 4.03635 18.4329 3.23182 19.9525 2.78486C20.1671 2.73122 20.3995 2.53456 20.5246 2.35577C21.5974 0.550053 23.6891 0.532175 24.744 2.32002C24.8691 2.53456 25.1373 2.73122 25.3697 2.80273C26.7821 3.19606 27.4615 4.05422 27.4615 5.52026C27.4615 8.11263 27.4972 10.705 27.4436 13.2974C27.4257 13.8874 27.1933 14.5131 26.9072 15.0316C26.6391 15.4964 26.0848 15.7825 26.1742 16.4619C26.1921 16.587 25.763 16.9088 25.7273 16.8731C25.4412 16.6764 25.2088 16.4082 24.8155 16.0328ZM26.0312 9.36412C26.0312 8.05899 26.0312 6.73599 26.0312 5.43086C26.0312 4.62633 25.62 4.21513 24.8155 4.21513C23.3494 4.21513 21.9013 4.19725 20.4353 4.21513C19.6307 4.21513 19.2374 4.66209 19.2374 5.44874C19.2374 8.07687 19.2195 10.6871 19.2374 13.3152C19.2374 14.1913 19.6307 14.5667 20.4889 14.5667C21.8834 14.5846 23.2958 14.5846 24.6903 14.5667C25.6558 14.5489 26.0133 14.1913 26.0133 13.1901C26.0312 11.9207 26.0312 10.6335 26.0312 9.36412ZM21.6152 2.69546C22.3304 2.69546 22.974 2.69546 23.707 2.69546C22.831 1.8373 22.3661 1.85518 21.6152 2.69546Z"
        fill="#7D8598" />
    <path
        d="M8.90399 12.0641C8.88611 12.2965 8.92186 12.4753 8.85035 12.6183C8.76096 12.7971 8.60005 12.9401 8.4749 13.101C8.36763 12.9401 8.26036 12.7971 8.15309 12.6362C8.01006 12.4216 7.88492 12.2071 7.75977 11.9926C7.6525 11.7959 7.45583 11.5813 7.49159 11.4204C7.52735 11.2595 7.79552 11.0271 7.97431 11.0092C9.3867 10.9735 10.817 10.9735 12.2294 11.0092C12.4082 11.0092 12.5869 11.3668 12.7657 11.5635C12.5512 11.7244 12.3366 12.0104 12.1221 12.0283C11.0852 12.0998 10.0124 12.0641 8.90399 12.0641Z"
        fill="#7D8598" />
    <path
        d="M21.4187 9.91893C21.4008 10.205 21.4187 10.4195 21.365 10.6162C21.3114 10.7592 21.1505 10.938 21.0432 10.938C20.9359 10.938 20.7929 10.7592 20.7035 10.6341C20.5247 10.3659 20.346 10.0798 20.1851 9.79379C20.0957 9.63288 19.9884 9.40046 20.0241 9.25743C20.0778 9.09653 20.3102 8.89986 20.4532 8.89986C21.9014 8.86411 23.3495 8.86411 24.7977 8.89986C24.9765 8.89986 25.1374 9.22168 25.2983 9.40046C25.0659 9.57924 24.8513 9.90106 24.6189 9.90106C23.582 9.95469 22.545 9.91893 21.4187 9.91893Z"
        fill="#7D8598" />
</svg>
