<svg width="25" height="15" viewBox="0 0 25 15" fill="none" xmlns="http://www.w3.org/2000/svg">
<path d="M13.0243 6.9183C13.6177 6.91827 14.1977 6.74229 14.691 6.41262C15.1844 6.08296 15.5689 5.6144 15.7959 5.06621C16.0229 4.51802 16.0823 3.91482 15.9665 3.33288C15.8507 2.75094 15.565 2.21641 15.1454 1.79687C14.7258 1.37734 14.1913 1.09164 13.6093 0.975914C13.0274 0.860187 12.4242 0.919627 11.876 1.14672C11.3278 1.37381 10.8593 1.75835 10.5297 2.25171C10.2001 2.74508 10.0242 3.3251 10.0242 3.91845C10.0242 4.7141 10.3403 5.47714 10.903 6.03973C11.4656 6.60231 12.2287 6.91834 13.0243 6.9183ZM13.0241 2.9183C13.2219 2.91829 13.4153 2.97693 13.5797 3.0868C13.7442 3.19667 13.8724 3.35285 13.9481 3.53557C14.0238 3.71829 14.0436 3.91936 14.005 4.11334C13.9664 4.30732 13.8712 4.48551 13.7313 4.62537C13.5915 4.76523 13.4133 4.86048 13.2193 4.89907C13.0254 4.93767 12.8243 4.91788 12.6416 4.8422C12.4588 4.76652 12.3026 4.63835 12.1928 4.47391C12.0829 4.30947 12.0242 4.11613 12.0242 3.91835C12.0242 3.65313 12.1295 3.39877 12.3171 3.21123C12.5046 3.02368 12.7589 2.91831 13.0241 2.9183ZM17.1343 6.77809C17.7193 5.9391 18.033 4.94087 18.0329 3.91805C18.0329 2.89523 17.7191 1.89703 17.1341 1.05809C17.4217 0.965493 17.7219 0.918246 18.024 0.91805C18.8197 0.91801 19.5828 1.23404 20.1454 1.79662C20.708 2.3592 21.0242 3.12225 21.0242 3.9179C21.0242 4.71355 20.7082 5.47663 20.1456 6.03926C19.583 6.6019 18.82 6.91801 18.0243 6.91805C17.7222 6.91788 17.4219 6.87067 17.1343 6.77809ZM13.0244 8.9183C7.02445 8.9186 7.02465 12.9186 7.02465 12.9186L7.02475 14.9186L19.0247 14.918L19.0246 12.918C19.0246 12.918 19.0244 8.918 13.0244 8.9183ZM9.02465 12.9185C9.02463 12.6285 9.34455 10.9185 13.0245 10.9183C16.5245 10.9181 16.9646 12.4781 17.0246 12.9181L9.02465 12.9185ZM24.0246 12.9178L24.0247 14.9178L21.0247 14.9179L21.0246 12.9179C21.0012 12.1745 20.83 11.4433 20.5209 10.7668C20.2118 10.0904 19.7711 9.48227 19.2245 8.97799C24.0245 9.46775 24.0246 12.9178 24.0246 12.9178ZM8.0244 7.91855L5.0244 7.9187L5.02455 10.9187L3.02455 10.9188L3.0244 7.9188L0.0243966 7.91895L0.0242969 5.91895L3.0243 5.9188L3.02415 2.9188L5.02415 2.9187L5.0243 5.9187L8.0243 5.91855L8.0244 7.91855Z" fill="#2D3E52"/>
</svg>
