<svg width="30" height="30" viewBox="0 0 30 30" fill="none" xmlns="http://www.w3.org/2000/svg">
    <path
        d="M15.001 3.51758C14.5156 3.51758 14.1221 3.91111 14.1221 4.39652C14.1221 4.88194 14.5156 5.27547 15.001 5.27547C17.9094 5.27547 20.2756 7.64124 20.2756 10.5491C20.2756 11.0346 20.6691 11.4281 21.1545 11.4281C21.6399 11.4281 22.0335 11.0346 22.0335 10.5491C22.0335 6.67194 18.8787 3.51758 15.001 3.51758Z"
        fill="#0082B0" />
    <path
        d="M12.7365 0.239357C8.76543 1.06914 5.54556 4.25819 4.69831 8.25393C3.98291 11.628 4.86449 15.0155 7.117 17.5477C8.21808 18.7855 8.84951 20.4193 8.84951 22.0349V23.7927C8.84951 24.9623 9.61519 25.956 10.6715 26.3001C11.0188 28.3524 12.8001 30.0039 15.0021 30.0039C17.2035 30.0039 18.9853 28.353 19.3328 26.3001C20.3891 25.956 21.1548 24.9623 21.1548 23.7927V22.0348C21.1548 20.4161 21.7883 18.8019 22.9385 17.4895C24.6219 15.5697 25.5498 13.1033 25.5495 10.55C25.5495 3.89548 19.4584 -1.16496 12.7365 0.239357ZM15.0021 28.2461C13.8723 28.2461 12.8816 27.4686 12.5158 26.4237H17.4884C17.1226 27.4686 16.132 28.2461 15.0021 28.2461ZM19.3969 23.7927C19.3969 24.2774 19.0026 24.6717 18.5179 24.6717H11.4864C11.0017 24.6717 10.6074 24.2774 10.6074 23.7927V22.9138H19.3969V23.7927ZM21.6166 16.3309C20.3908 17.7294 19.6366 19.4158 19.4452 21.1559H10.5592C10.3681 19.4149 9.61584 17.7119 8.43055 16.3794C6.55324 14.269 5.81967 11.4402 6.418 8.61858C7.11641 5.32464 9.80012 2.64884 13.0961 1.96016C18.7228 0.784303 23.7916 5.0098 23.7916 10.55C23.7919 12.677 23.0189 14.7316 21.6166 16.3309ZM2.6383 10.55H0.88041C0.394998 10.55 0.00146484 10.9435 0.00146484 11.4289C0.00146484 11.9143 0.394998 12.3079 0.88041 12.3079H2.6383C3.12371 12.3079 3.51725 11.9143 3.51725 11.4289C3.51725 10.9435 3.12371 10.55 2.6383 10.55ZM3.00236 6.15525L1.75936 4.91224C1.41616 4.56898 0.859608 4.56898 0.516351 4.91224C0.173094 5.2555 0.173094 5.81199 0.516351 6.15525L1.75936 7.39825C2.10255 7.74151 2.6591 7.74157 3.00236 7.39825C3.34562 7.05499 3.34562 6.4985 3.00236 6.15525ZM3.00236 15.4596C2.6591 15.1163 2.10255 15.1163 1.75936 15.4596L0.516351 16.7026C0.173094 17.0458 0.173094 17.6023 0.516351 17.9456C0.85955 18.2889 1.4161 18.2889 1.75936 17.9456L3.00236 16.7026C3.34562 16.3593 3.34562 15.8028 3.00236 15.4596ZM29.1239 10.55H27.366C26.8806 10.55 26.487 10.9435 26.487 11.4289C26.487 11.9143 26.8806 12.3079 27.366 12.3079H29.1239C29.6093 12.3079 30.0028 11.9143 30.0028 11.4289C30.0028 10.9435 29.6093 10.55 29.1239 10.55ZM29.4879 4.91224C29.1447 4.56898 28.5882 4.56898 28.2449 4.91224L27.0019 6.15525C26.6586 6.4985 26.6586 7.05499 27.0019 7.39825C27.3451 7.74145 27.9017 7.74151 28.2449 7.39825L29.4879 6.15525C29.8312 5.81199 29.8312 5.2555 29.4879 4.91224ZM29.4879 16.7026L28.2449 15.4596C27.9017 15.1163 27.3452 15.1163 27.0019 15.4596C26.6586 15.8028 26.6586 16.3593 27.0019 16.7026L28.2449 17.9456C28.5881 18.2888 29.1447 18.2889 29.4879 17.9456C29.8312 17.6023 29.8312 17.0458 29.4879 16.7026Z"
        fill="#0082B0" />
</svg>
