<svg width="24" height="25" viewBox="0 0 24 25" fill="none" xmlns="http://www.w3.org/2000/svg">
<path d="M17.6636 11.2195C17.4336 10.9195 17.1536 10.6595 16.8936 10.3995C16.2236 9.79953 15.4636 9.36953 14.8236 8.73953C13.3336 7.27953 13.0036 4.86953 13.9536 3.01953C13.0036 3.24953 12.1736 3.76953 11.4636 4.33953C8.87359 6.41953 7.85359 10.0895 9.07359 13.2395C9.11359 13.3395 9.15359 13.4395 9.15359 13.5695C9.15359 13.7895 9.00359 13.9895 8.80359 14.0695C8.57359 14.1695 8.33359 14.1095 8.14359 13.9495C8.08359 13.8995 8.04359 13.8495 8.00359 13.7795C6.87359 12.3495 6.69359 10.2995 7.45359 8.65953C5.78359 10.0195 4.87359 12.3195 5.00359 14.4895C5.06359 14.9895 5.12359 15.4895 5.29359 15.9895C5.43359 16.5895 5.70359 17.1895 6.00359 17.7195C7.08359 19.4495 8.95359 20.6895 10.9636 20.9395C13.1036 21.2095 15.3936 20.8195 17.0336 19.3395C18.8636 17.6795 19.5036 15.0195 18.5636 12.7395L18.4336 12.4795C18.2236 12.0195 17.6636 11.2195 17.6636 11.2195ZM14.5036 17.5195C14.2236 17.7595 13.7636 18.0195 13.4036 18.1195C12.2836 18.5195 11.1636 17.9595 10.5036 17.2995C11.6936 17.0195 12.4036 16.1395 12.6136 15.2495C12.7836 14.4495 12.4636 13.7895 12.3336 13.0195C12.2136 12.2795 12.2336 11.6495 12.5036 10.9595C12.6936 11.3395 12.8936 11.7195 13.1336 12.0195C13.9036 13.0195 15.1136 13.4595 15.3736 14.8195C15.4136 14.9595 15.4336 15.0995 15.4336 15.2495C15.4636 16.0695 15.1036 16.9695 14.5036 17.5195Z" fill="#2D3E52"/>
</svg>
