<svg width="50" height="50" viewBox="0 0 50 50" fill="none" xmlns="http://www.w3.org/2000/svg">
    <circle cx="25" cy="25" r="23.75" stroke="#7E8699" stroke-width="2.5" />
    <path
        d="M39 21H38V17C38 15.35 36.65 14 35 14H15C13.35 14 12 15.35 12 17V21H11C10.45 21 10 21.45 10 22V31C10 32.45 11.04 33.67 12.41 33.94L12.1 34.55C12.0407 34.6674 12.0053 34.7953 11.9958 34.9265C11.9863 35.0577 12.003 35.1894 12.0449 35.3141C12.0868 35.4387 12.153 35.5538 12.2397 35.6527C12.3264 35.7516 12.4319 35.8322 12.55 35.89C12.7875 36.0099 13.0628 36.0309 13.3157 35.9484C13.5687 35.866 13.7787 35.6868 13.9 35.45L14.62 34H35.38L36.1 35.45C36.2213 35.6868 36.4313 35.866 36.6843 35.9484C36.9372 36.0309 37.2125 36.0099 37.45 35.89C37.94 35.64 38.14 35.04 37.9 34.55L37.59 33.94C38.2691 33.803 38.88 33.4355 39.3192 32.8997C39.7584 32.3639 39.9989 31.6928 40 31V22C40 21.45 39.55 21 39 21ZM36 17V21.18C34.84 21.59 34 22.69 34 24V26H26V16H35C35.55 16 36 16.45 36 17ZM15 16H24V26H16V24C16 22.7 15.16 21.6 14 21.18V17C14 16.45 14.45 16 15 16ZM38 31C38 31.55 37.55 32 37 32H13C12.45 32 12 31.55 12 31V23H13C13.55 23 14 23.45 14 24V27C14 27.55 14.45 28 15 28H35C35.55 28 36 27.55 36 27V24C36 23.45 36.45 23 37 23H38V31Z"
        fill="#7E8699" />
</svg>
