<svg width="21" height="21" viewBox="0 0 21 21" fill="none" xmlns="http://www.w3.org/2000/svg">
<path d="M10.0133 10.7683C10.4716 10.7683 10.8641 10.6049 11.1907 10.2782C11.5168 9.95212 11.6799 9.55989 11.6799 9.10155C11.6798 8.64322 11.5168 8.25073 11.1906 7.92408C10.8639 7.59798 10.4714 7.43495 10.0131 7.43497C9.55477 7.43499 9.16256 7.59807 8.83647 7.9242C8.50981 8.25088 8.3465 8.64339 8.34652 9.10172C8.34655 9.56005 8.5099 9.95227 8.83658 10.2784C9.16271 10.605 9.55494 10.7683 10.0133 10.7683ZM10.0137 19.1016C7.77748 17.199 6.10739 15.4316 5.00342 13.7994C3.8989 12.1678 3.3466 10.6575 3.34653 9.26864C3.34643 7.1853 4.01662 5.52555 5.35712 4.28937C6.69706 3.05319 8.24897 2.43506 10.0129 2.43497C10.1517 2.43496 10.2906 2.43829 10.4295 2.44495C10.5684 2.45217 10.7073 2.46271 10.8462 2.4766L10.8463 4.1641C10.7074 4.13632 10.5718 4.11883 10.4396 4.11162C10.3079 4.10496 10.1657 4.10163 10.0129 4.10164C8.61016 4.10171 7.42602 4.58427 6.46051 5.54931C5.49556 6.51492 5.01312 7.75466 5.0132 9.26855C5.01325 10.2547 5.42303 11.383 6.24253 12.6535C7.06204 13.9246 8.31906 15.3378 10.0136 16.8933C11.7079 15.3377 12.9648 13.9243 13.7842 12.6531C14.6036 11.3825 15.0132 10.2542 15.0132 9.26805L15.0132 9.10139L16.6799 9.10131L16.6799 9.26797C16.6799 10.6569 16.1281 12.1672 15.0243 13.7989C13.9199 15.4312 12.2497 17.1987 10.0137 19.1016Z" fill="#2D3E52"/>
<path d="M14.5754 7.28068L14.5754 5.8918M14.5753 3.80846L14.5752 2.41957M12.4705 6.06551L13.6733 5.37101M15.4774 4.32925L16.6801 3.63475M12.4704 3.63496L13.6732 4.32934M15.4774 5.37092L16.6802 6.0653" stroke="#2D3E52" stroke-width="1.5" stroke-linecap="round" stroke-linejoin="round"/>
</svg>
