<svg width="16" height="17" viewBox="0 0 16 17" fill="none" xmlns="http://www.w3.org/2000/svg">
    <path
        d="M13.7898 6.66667H14.6231C14.8441 6.66667 15.0561 6.75446 15.2123 6.91074C15.3686 7.06703 15.4564 7.27899 15.4564 7.5V15.8333C15.4564 16.0543 15.3686 16.2663 15.2123 16.4226C15.0561 16.5789 14.8441 16.6667 14.6231 16.6667H1.28975C1.06874 16.6667 0.856779 16.5789 0.700499 16.4226C0.544218 16.2663 0.456421 16.0543 0.456421 15.8333V7.5C0.456421 7.27899 0.544218 7.06703 0.700499 6.91074C0.856779 6.75446 1.06874 6.66667 1.28975 6.66667H2.12309V5.83333C2.12309 5.06729 2.27397 4.30875 2.56712 3.60101C2.86028 2.89328 3.28996 2.25022 3.83163 1.70854C4.37331 1.16687 5.01637 0.737189 5.7241 0.444036C6.43183 0.150884 7.19038 0 7.95642 0C8.72246 0 9.48101 0.150884 10.1887 0.444036C10.8965 0.737189 11.5395 1.16687 12.0812 1.70854C12.6229 2.25022 13.0526 2.89328 13.3457 3.60101C13.6389 4.30875 13.7898 5.06729 13.7898 5.83333V6.66667ZM2.12309 8.33333V15H13.7898V8.33333H2.12309ZM7.12309 10H8.78975V13.3333H7.12309V10ZM12.1231 6.66667V5.83333C12.1231 4.72826 11.6841 3.66846 10.9027 2.88706C10.1213 2.10565 9.06149 1.66667 7.95642 1.66667C6.85135 1.66667 5.79154 2.10565 5.01014 2.88706C4.22874 3.66846 3.78975 4.72826 3.78975 5.83333V6.66667H12.1231Z"
        fill="#7E8699" />
</svg>
