<svg
    style="shape-rendering:geometricPrecision;text-rendering:geometricPrecision;image-rendering:optimizeQuality;fill-rule:evenodd;clip-rule:evenodd"
    height="655.359" viewBox="0 0 6.827 6.827" width="655.359" xmlns="http://www.w3.org/2000/svg"
    xml:space="preserve"><defs><style>.fil0{fill:#212121;fill-rule:nonzero}</style>
</defs>
    <g id="Layer_x0020_1"><path class="fil0" d="M1.39 5.747V1.08c0-.063.023-.12.06-.163A.213.213 0 0 1 1.61.84h2.544c.064 0 .122.03.162.077.037.042.06.1.06.163v1.373h-.214V1.08c0-.01-.003-.02-.007-.025v-.002H1.61v.002a.038.038 0 0 0-.008.025v4.667c0 .01.003.02.008.025v.001h2.544v-.001a.038.038 0 0 0 .008-.025V4.373h.214v1.374c0 .062-.023.12-.06.163a.213.213 0 0 1-.162.077H1.611a.213.213 0 0 1-.162-.077.251.251 0 0 1-.059-.163z"/>
        <path class="fil0"
            d="M3.197 2.56H5.23a.206.206 0 0 1 .207.207V4.06a.206.206 0 0 1-.207.207H3.197a.206.206 0 0 1-.207-.207V2.767c0-.057.023-.108.06-.146h.001a.206.206 0 0 1 .146-.061zm2.026.213h-2.02v1.28h2.02v-1.28zM2.563 1.173h.64v.214h-.64z" />
        <circle style="fill:#212121" cx="2.883" cy="5.545" r=".16" />
        <path class="fil0"
            d="M1.55 5.12h2.667v.213H1.55zM5.395 2.759l-1.129.651-.053.03-.053-.03-1.128-.651.106-.184 1.075.62 1.076-.62z" /></g>
    <path style="fill:none" d="M0 0h6.827v6.827H0z" /></svg>