<svg width="27" height="27" viewBox="0 0 27 27" fill="none" xmlns="http://www.w3.org/2000/svg">
<path d="M13.014 2.17969C13.876 2.17969 14.7026 2.5221 15.3121 3.13159C15.9216 3.74108 16.264 4.56773 16.264 5.42969V11.9297C16.264 12.7916 15.9216 13.6183 15.3121 14.2278C14.7026 14.8373 13.876 15.1797 13.014 15.1797C12.152 15.1797 11.3254 14.8373 10.7159 14.2278C10.1064 13.6183 9.764 12.7916 9.764 11.9297V5.42969C9.764 4.56773 10.1064 3.74108 10.7159 3.13159C11.3254 2.5221 12.152 2.17969 13.014 2.17969ZM19.514 11.9297C20.1123 11.9297 20.6055 12.4173 20.5211 13.0096C20.121 15.8168 18.1841 18.1237 15.5921 19.0627C14.7592 19.3645 14.0973 20.0946 14.0973 20.9805V21.6797C14.0973 22.278 13.6123 22.763 13.014 22.763C12.4157 22.763 11.9307 22.278 11.9307 21.6797V20.9805C11.9307 20.0946 11.2688 19.3645 10.4359 19.0627C7.84392 18.1237 5.90698 15.8168 5.50692 13.0096C5.42251 12.4173 5.91569 11.9297 6.514 11.9297C7.11231 11.9297 7.58641 12.4195 7.70529 13.0058C7.91524 14.0415 8.4255 15.0015 9.18384 15.7598C10.1997 16.7757 11.5774 17.3464 13.014 17.3464C14.4506 17.3464 15.8283 16.7757 16.8442 15.7598C17.6025 15.0015 18.1127 14.0415 18.3227 13.0058C18.4416 12.4195 18.9157 11.9297 19.514 11.9297Z" fill="#0082B0"/>
</svg>
