<svg width="21" height="20" viewBox="0 0 21 20" fill="none" xmlns="http://www.w3.org/2000/svg">
<path d="M16.0067 9.16797C16.0067 10.1596 15.7233 11.0846 15.2567 11.9013L14.2317 10.8763C14.4567 10.3596 14.59 9.78464 14.59 9.16797H16.0067ZM12.6733 9.3013L7.67334 4.31797V4.16797C7.67334 3.50493 7.93673 2.86904 8.40557 2.4002C8.87441 1.93136 9.5103 1.66797 10.1733 1.66797C10.8364 1.66797 11.4723 1.93136 11.9411 2.4002C12.4099 2.86904 12.6733 3.50493 12.6733 4.16797V9.16797V9.3013ZM3.73167 2.5013L17.6733 16.443L16.615 17.5013L13.1233 14.0096C12.4817 14.393 11.765 14.6513 11.0067 14.768V17.5013H9.34001V14.768C6.60667 14.3596 4.34001 12.0096 4.34001 9.16797H5.75667C5.75667 11.668 7.87334 13.418 10.1733 13.418C10.8483 13.418 11.5067 13.2596 12.0983 12.9846L10.715 11.6013L10.1733 11.668C9.5103 11.668 8.87441 11.4046 8.40557 10.9357C7.93673 10.4669 7.67334 9.83101 7.67334 9.16797V8.56797L2.67334 3.55964L3.73167 2.5013Z" fill="white"/>
</svg>
