<svg width="18" height="18" viewBox="0 0 18 18" fill="none" xmlns="http://www.w3.org/2000/svg">
<path d="M5.50997 16.7265C5.2183 16.6293 4.93358 16.5218 4.6558 16.404C4.37802 16.2856 4.10719 16.1501 3.8433 15.9973V1.53898C4.10719 1.3862 4.37802 1.25065 4.6558 1.13231C4.93358 1.01454 5.2183 0.907037 5.50997 0.809814V16.7265ZM2.17664 14.7265C1.94052 14.4904 1.7183 14.2404 1.50997 13.9765C1.30164 13.7126 1.10719 13.4418 0.926636 13.164V4.37231C1.10719 4.09454 1.30164 3.8237 1.50997 3.55981C1.7183 3.29593 1.94052 3.04593 2.17664 2.80981V14.7265ZM7.17664 12.9348V0.476481C7.31552 0.462592 7.45441 0.452037 7.5933 0.444815C7.73219 0.438148 7.87108 0.434814 8.00997 0.434814C8.28775 0.434814 8.56552 0.448703 8.8433 0.476481C9.12108 0.504259 9.39886 0.545926 9.67664 0.601481V8.14315C8.91275 8.67093 8.30497 9.35148 7.8533 10.1848C7.40219 11.0181 7.17664 11.9348 7.17664 12.9348ZM16.3225 8.12231C15.8502 7.80287 15.3364 7.55287 14.7808 7.37231C14.2252 7.19176 13.635 7.10148 13.01 7.10148C12.7183 7.10148 12.4336 7.12231 12.1558 7.16398C11.878 7.20565 11.6072 7.26815 11.3433 7.35148V1.12231C12.7322 1.73343 13.878 2.65704 14.7808 3.89315C15.6836 5.12926 16.1975 6.53898 16.3225 8.12231ZM12.1766 17.1015L11.9266 15.8515C11.76 15.782 11.6039 15.7093 11.4583 15.6331C11.3122 15.5565 11.1627 15.4626 11.01 15.3515L9.80163 15.7265L8.9683 14.3098L9.92664 13.4765C9.89886 13.282 9.88497 13.1015 9.88497 12.9348C9.88497 12.7681 9.89886 12.5876 9.92664 12.3931L8.9683 11.5598L9.80163 10.1431L11.01 10.5181C11.1627 10.407 11.3122 10.3131 11.4583 10.2365C11.6039 10.1604 11.76 10.0876 11.9266 10.0181L12.1766 8.76815H13.8433L14.0933 10.0181C14.26 10.0876 14.4164 10.164 14.5625 10.2473C14.708 10.3306 14.8572 10.4348 15.01 10.5598L16.2183 10.1431L17.0516 11.6015L16.0933 12.4348C16.1211 12.6015 16.135 12.7751 16.135 12.9556C16.135 13.1362 16.1211 13.3098 16.0933 13.4765L17.0516 14.3098L16.2183 15.7265L15.01 15.3515C14.8572 15.4626 14.708 15.5565 14.5625 15.6331C14.4164 15.7093 14.26 15.782 14.0933 15.8515L13.8433 17.1015H12.1766ZM13.01 14.6015C13.4683 14.6015 13.8608 14.4384 14.1875 14.1123C14.5136 13.7856 14.6766 13.3931 14.6766 12.9348C14.6766 12.4765 14.5136 12.0843 14.1875 11.7581C13.8608 11.4315 13.4683 11.2681 13.01 11.2681C12.5516 11.2681 12.1591 11.4315 11.8325 11.7581C11.5064 12.0843 11.3433 12.4765 11.3433 12.9348C11.3433 13.3931 11.5064 13.7856 11.8325 14.1123C12.1591 14.4384 12.5516 14.6015 13.01 14.6015Z" fill="#2D3E52"/>
</svg>
