<svg width="19" height="21" viewBox="0 0 19 21" fill="none" xmlns="http://www.w3.org/2000/svg">
<path d="M8.2977 21.0004C7.73408 21.0004 7.25158 20.7997 6.85022 20.3984C6.44885 19.997 6.24817 19.5145 6.24817 18.9509L10.3472 18.9509C10.3472 19.5145 10.1465 19.997 9.74518 20.3984C9.34381 20.7997 8.86132 21.0004 8.2977 21.0004ZM0.0995879 17.9261L0.0995904 15.8766L2.14912 15.8766L2.14913 8.70324C2.14913 7.26857 2.58039 5.99615 3.4429 4.88599C4.30541 3.77583 5.42838 3.05849 6.81181 2.73398C6.64102 3.10973 6.50865 3.50255 6.41471 3.91246C6.32078 4.32237 6.25673 4.74081 6.22257 5.1678C5.62479 5.52647 5.13803 6.01323 4.76228 6.62809C4.38653 7.24295 4.19866 7.93466 4.19866 8.70324L4.19865 15.8766L12.3968 15.8766L12.3968 12.751C12.7384 12.8023 13.0799 12.8279 13.4215 12.8279C13.7631 12.8279 14.1047 12.8023 14.4463 12.751L14.4463 15.8766L16.4958 15.8766L16.4958 17.9261L0.0995879 17.9261ZM12.3968 10.7528L12.0893 9.21561C11.8844 9.13021 11.6922 9.04055 11.5129 8.94661C11.3336 8.85267 11.15 8.73739 10.9621 8.60075L9.47619 9.0619L8.45143 7.3198L9.62991 6.29503C9.59575 6.073 9.57867 5.85097 9.57867 5.62894C9.57867 5.4069 9.59575 5.18487 9.62991 4.96284L8.45143 3.93808L9.4762 2.19598L10.9621 2.65712C11.15 2.52048 11.3336 2.4052 11.5129 2.31126C11.6923 2.21732 11.8844 2.12766 12.0893 2.04226L12.3968 0.505112L14.4463 0.50511L14.7537 2.04226C14.9587 2.12765 15.1508 2.21732 15.3302 2.31126C15.5095 2.40519 15.6931 2.52048 15.881 2.65711L17.3669 2.19597L18.3916 3.93807L17.2132 4.96283C17.2473 5.18486 17.2644 5.4069 17.2644 5.62893C17.2644 5.85096 17.2473 6.07299 17.2132 6.29502L18.3916 7.31979L17.3669 9.06189L15.881 8.60075C15.6931 8.73738 15.5095 8.85267 15.3302 8.9466C15.1508 9.04054 14.9587 9.13021 14.7537 9.21561L14.4463 10.7528L12.3968 10.7528ZM13.4215 7.67846C13.9852 7.67846 14.4676 7.47778 14.869 7.07641C15.2704 6.67504 15.4711 6.19255 15.4711 5.62893C15.4711 5.06531 15.2704 4.58282 14.869 4.18145C14.4677 3.78009 13.9852 3.5794 13.4215 3.5794C12.8579 3.5794 12.3754 3.78009 11.9741 4.18145C11.5727 4.58282 11.372 5.06531 11.372 5.62893C11.372 6.19256 11.5727 6.67505 11.9741 7.07641C12.3754 7.47778 12.8579 7.67846 13.4215 7.67846Z" fill="#2D3E52"/>
</svg>
