<svg width="24" height="25" viewBox="0 0 24 25" fill="none" xmlns="http://www.w3.org/2000/svg">
<path d="M20.9965 8.44629V6.44629H6.99646V8.44629H20.9965ZM20.9965 16.4463V11.4463H6.99646V16.4463H20.9965ZM20.9965 4.44629C21.5269 4.44629 22.0356 4.657 22.4107 5.03208C22.7857 5.40715 22.9965 5.91586 22.9965 6.44629V16.4463C22.9965 16.9767 22.7857 17.4854 22.4107 17.8605C22.0356 18.2356 21.5269 18.4463 20.9965 18.4463H6.99646C5.88646 18.4463 4.99646 17.5463 4.99646 16.4463V6.44629C4.99646 5.33629 5.88646 4.44629 6.99646 4.44629H20.9965ZM2.99646 20.4463H17.9965V22.4463H2.99646C2.46603 22.4463 1.95732 22.2356 1.58225 21.8605C1.20717 21.4854 0.99646 20.9767 0.99646 20.4463V9.44629H2.99646V20.4463Z" fill="#2D3E52"/>
</svg>
