<svg width="24" height="24" viewBox="0 0 24 24" fill="none" xmlns="http://www.w3.org/2000/svg">
<path d="M12.9998 2.9994C10.6128 2.99952 8.32367 3.94785 6.63593 5.63576C4.94818 7.32367 4.00009 9.6129 4.0002 11.9999L1.0002 12L4.8904 15.8898L4.96041 16.0298L9.0002 11.9996L6.0002 11.9998C6.00001 8.12975 9.12986 4.99959 12.9999 4.9994C16.8699 4.99921 20 8.12905 20.0002 11.9991C20.0004 15.8691 16.8706 18.9992 13.0006 18.9994C11.0706 18.9995 9.32051 18.2096 8.06045 16.9396L6.64052 18.3597C7.47398 19.1977 8.46508 19.8624 9.55668 20.3154C10.6483 20.7685 11.8188 21.0009 13.0007 20.9994C15.3876 20.9993 17.6767 20.051 19.3645 18.363C21.0522 16.6751 22.0003 14.3859 22.0002 11.999C22.0001 9.61201 21.0518 7.32287 19.3638 5.63512C17.6759 3.94738 15.3867 2.99928 12.9998 2.9994ZM12 7.99945L12.0003 12.9995L16.2804 15.5392L17.0003 14.3292L13.5002 12.2494L13.5 7.99938L12 7.99945Z" fill="#2D3E52"/>
</svg>
