<svg width="18" height="18" viewBox="0 0 18 18" fill="none" xmlns="http://www.w3.org/2000/svg">
<path d="M3.61902 7.79C5.05902 10.62 7.37902 12.94 10.209 14.38L12.409 12.18C12.689 11.9 13.079 11.82 13.429 11.93C14.549 12.3 15.749 12.5 16.999 12.5C17.2642 12.5 17.5186 12.6054 17.7061 12.7929C17.8937 12.9804 17.999 13.2348 17.999 13.5V17C17.999 17.2652 17.8937 17.5196 17.7061 17.7071C17.5186 17.8946 17.2642 18 16.999 18C12.4903 18 8.16633 16.2089 4.97821 13.0208C1.79009 9.8327 -0.000976562 5.50868 -0.000976562 1C-0.000976563 0.734784 0.10438 0.48043 0.291917 0.292893C0.479453 0.105357 0.733807 0 0.999023 0H4.49902C4.76424 0 5.01859 0.105357 5.20613 0.292893C5.39367 0.48043 5.49902 0.734784 5.49902 1C5.49902 2.25 5.69902 3.45 6.06902 4.57C6.17902 4.92 6.09902 5.31 5.81902 5.59L3.61902 7.79Z" fill="#2D3E52"/>
</svg>
