<svg width="50" height="51" viewBox="0 0 50 51" fill="none" xmlns="http://www.w3.org/2000/svg">
<circle cx="25" cy="25.0234" r="24.25" stroke="#39BDEC" stroke-opacity="0.3" stroke-width="1.5"/>
<path d="M26.7252 34.2943V26.7448H34.2748C35.2217 26.7448 36 25.9665 36 25.0195C36 24.0726 35.2217 23.2943 34.2748 23.2943H26.7252V15.7448C26.7252 14.7978 25.9599 14.0195 25 14.0195C24.0531 14.0195 23.2748 14.7978 23.2748 15.7448V23.2943H15.7252C14.7783 23.2943 14 24.0726 14 25.0195C14 25.9665 14.7783 26.7448 15.7252 26.7448H23.2748V34.2943C23.2748 35.2412 24.0531 36.0195 25 36.0195C25.9599 36.0195 26.7252 35.2412 26.7252 34.2943Z" fill="#39BDEC"/>
</svg>
