<svg width="20" height="21" viewBox="0 0 20 21" fill="none" xmlns="http://www.w3.org/2000/svg">
<path d="M13.8053 4.55286L12.597 5.7612C14.0386 6.6362 15.0053 8.2112 15.0053 10.0195C15.0053 11.3456 14.4785 12.6174 13.5408 13.5551C12.6031 14.4927 11.3314 15.0195 10.0053 15.0195C8.67921 15.0195 7.40744 14.4927 6.46976 13.5551C5.53207 12.6174 5.00529 11.3456 5.00529 10.0195C5.00529 8.2112 5.97196 6.6362 7.40529 5.75286L6.20529 4.55286C4.47196 5.75286 3.33862 7.75286 3.33862 10.0195C3.33862 11.7876 4.041 13.4833 5.29124 14.7336C6.54149 15.9838 8.23718 16.6862 10.0053 16.6862C11.7734 16.6862 13.4691 15.9838 14.7193 14.7336C15.9696 13.4833 16.672 11.7876 16.672 10.0195C16.672 7.75286 15.5386 5.75286 13.8053 4.55286ZM10.8386 2.51953H9.17196V10.8529H10.8386" fill="#2D3E52"/>
</svg>
