<svg width="413" height="508" viewBox="0 0 413 508" fill="none" xmlns="http://www.w3.org/2000/svg">
    <circle opacity="0.2" cx="206.569" cy="254.479" r="196.5" stroke="url(#paint0_linear_1694_27)"
        stroke-width="2" />
    <circle opacity="0.2" cx="206.569" cy="254.479" r="252.5" stroke="url(#paint1_linear_1694_27)"
        stroke-width="2" />
    <circle opacity="0.3" cx="206.07" cy="253.979" r="113" stroke="url(#paint2_linear_1694_27)"
        stroke-width="2" />
    <circle opacity="0.3" cx="206.069" cy="253.979" r="151" stroke="url(#paint3_linear_1694_27)"
        stroke-width="2" />
    <circle opacity="0.5" cx="206.069" cy="253.979" r="83" stroke="url(#paint4_linear_1694_27)"
        stroke-width="2" />
    <circle opacity="0.9" cx="206.07" cy="253.979" r="49" stroke="url(#paint5_linear_1694_27)"
        stroke-width="2" />
    <path fill-rule="evenodd" clip-rule="evenodd"
        d="M184.558 257.979C184.558 252.273 186.824 246.802 190.859 242.767C194.893 238.733 200.364 236.467 206.07 236.467C211.775 236.467 217.246 238.733 221.281 242.767C225.315 246.802 227.581 252.273 227.581 257.979C227.585 260.804 227.03 263.602 225.948 266.212C224.867 268.822 223.28 271.193 221.279 273.188C221.117 273.35 220.988 273.542 220.901 273.754C220.813 273.966 220.768 274.192 220.768 274.422C220.768 274.651 220.813 274.878 220.901 275.089C220.988 275.301 221.117 275.493 221.279 275.655C221.441 275.817 221.633 275.946 221.845 276.033C222.057 276.121 222.283 276.166 222.513 276.166C222.742 276.166 222.969 276.121 223.18 276.033C223.392 275.946 223.584 275.817 223.746 275.655C226.071 273.336 227.915 270.581 229.171 267.547C230.428 264.514 231.073 261.262 231.07 257.979C231.07 244.172 219.877 232.979 206.07 232.979C192.263 232.979 181.07 244.172 181.07 257.979C181.07 264.881 183.87 271.134 188.393 275.655C188.553 275.827 188.745 275.964 188.959 276.059C189.173 276.155 189.404 276.206 189.638 276.21C189.872 276.214 190.105 276.171 190.322 276.083C190.539 275.996 190.737 275.865 190.902 275.7C191.068 275.534 191.198 275.337 191.286 275.119C191.374 274.902 191.417 274.67 191.413 274.435C191.409 274.201 191.357 273.97 191.262 273.756C191.167 273.542 191.029 273.35 190.858 273.19C188.857 271.195 187.271 268.824 186.19 266.213C185.108 263.603 184.554 260.804 184.558 257.979ZM193.86 257.979C193.86 255.971 194.355 253.994 195.301 252.223C196.248 250.452 197.616 248.942 199.286 247.826C200.955 246.71 202.874 246.024 204.872 245.827C206.871 245.63 208.887 245.929 210.742 246.697C212.597 247.465 214.234 248.679 215.508 250.232C216.781 251.784 217.653 253.626 218.044 255.596C218.436 257.565 218.336 259.6 217.753 261.522C217.17 263.443 216.122 265.191 214.702 266.611C214.375 266.938 214.191 267.382 214.191 267.845C214.191 268.308 214.375 268.751 214.702 269.079C215.029 269.406 215.473 269.59 215.936 269.59C216.399 269.59 216.842 269.406 217.17 269.079C219.365 266.883 220.86 264.086 221.466 261.041C222.071 257.996 221.76 254.84 220.572 251.971C219.384 249.103 217.372 246.651 214.791 244.926C212.209 243.202 209.174 242.281 206.07 242.281C202.965 242.281 199.93 243.202 197.348 244.926C194.767 246.651 192.755 249.103 191.567 251.971C190.379 254.84 190.068 257.996 190.674 261.041C191.279 264.086 192.774 266.883 194.97 269.079C195.129 269.25 195.322 269.387 195.536 269.483C195.75 269.578 195.981 269.629 196.215 269.633C196.449 269.637 196.682 269.594 196.899 269.507C197.116 269.419 197.313 269.288 197.479 269.123C197.645 268.957 197.775 268.76 197.863 268.543C197.951 268.325 197.994 268.093 197.99 267.859C197.985 267.624 197.934 267.394 197.839 267.18C197.744 266.966 197.606 266.773 197.435 266.613C196.299 265.481 195.399 264.135 194.785 262.653C194.172 261.171 193.857 259.582 193.86 257.979ZM206.07 262.63C207.303 262.63 208.486 262.14 209.358 261.267C210.231 260.395 210.721 259.212 210.721 257.979C210.721 256.745 210.231 255.562 209.358 254.69C208.486 253.817 207.303 253.327 206.07 253.327C204.836 253.327 203.653 253.817 202.781 254.69C201.908 255.562 201.418 256.745 201.418 257.979C201.418 259.212 201.908 260.395 202.781 261.267C203.653 262.14 204.836 262.63 206.07 262.63Z"
        fill="#35ACD7" />
    <defs>
        <linearGradient id="paint0_linear_1694_27" x1="206.569" y1="56.9785" x2="206.569"
            y2="451.979" gradientUnits="userSpaceOnUse">
            <stop stop-color="#44CEFF" />
            <stop offset="1" stop-color="#0082B0" />
        </linearGradient>
        <linearGradient id="paint1_linear_1694_27" x1="206.569" y1="0.978516" x2="206.569"
            y2="507.979" gradientUnits="userSpaceOnUse">
            <stop stop-color="#44CEFF" />
            <stop offset="1" stop-color="#0082B0" />
        </linearGradient>
        <linearGradient id="paint2_linear_1694_27" x1="206.07" y1="139.979" x2="206.07" y2="367.979"
            gradientUnits="userSpaceOnUse">
            <stop stop-color="#44CEFF" />
            <stop offset="1" stop-color="#0082B0" />
        </linearGradient>
        <linearGradient id="paint3_linear_1694_27" x1="206.069" y1="101.979" x2="206.069"
            y2="405.979" gradientUnits="userSpaceOnUse">
            <stop stop-color="#44CEFF" />
            <stop offset="1" stop-color="#0082B0" />
        </linearGradient>
        <linearGradient id="paint4_linear_1694_27" x1="206.069" y1="169.979" x2="206.069"
            y2="337.979" gradientUnits="userSpaceOnUse">
            <stop stop-color="#44CEFF" />
            <stop offset="1" stop-color="#0082B0" />
        </linearGradient>
        <linearGradient id="paint5_linear_1694_27" x1="206.07" y1="203.979" x2="206.07" y2="303.979"
            gradientUnits="userSpaceOnUse">
            <stop stop-color="#44CEFF" />
            <stop offset="1" stop-color="#0082B0" />
        </linearGradient>
    </defs>
</svg>
