<svg width="25" height="25" viewBox="0 0 25 25" fill="none" xmlns="http://www.w3.org/2000/svg">
<path d="M17.7815 23.1289H23.7812" stroke="#2D3E52" stroke-width="1.5" stroke-linecap="round"/>
<path d="M19.631 18.0293L18.2311 16.6294C18.6644 16.1961 18.9977 15.6918 19.2311 15.1165C19.4644 14.5412 19.581 13.9456 19.581 13.3296C19.581 12.7129 19.4644 12.117 19.2311 11.5417C18.9977 10.9664 18.6644 10.4624 18.2311 10.0297L19.631 8.62982C20.2643 9.26312 20.7477 9.97975 21.081 10.7797C21.4143 11.5797 21.5809 12.4296 21.5809 13.3296C21.5809 14.2295 21.4143 15.0795 21.081 15.8795C20.7477 16.6794 20.2643 17.396 19.631 18.0293ZM16.9562 16.0294L15.5312 14.6295C15.7146 14.4462 15.8522 14.2462 15.9442 14.0295C16.0362 13.8129 16.0819 13.5796 16.0812 13.3296C16.0812 13.0796 16.0352 12.8463 15.9432 12.6296C15.8512 12.413 15.7139 12.213 15.5312 12.0296L16.9562 10.6297C17.3228 10.9964 17.6021 11.409 17.7941 11.8677C17.9861 12.3263 18.0818 12.8136 18.0811 13.3296C18.0811 13.8462 17.9851 14.3339 17.7931 14.7925C17.6011 15.2512 17.3222 15.6635 16.9562 16.0294ZM9.58154 23.3291C8.19827 23.3291 7.019 22.8414 6.04372 21.8662C5.06843 20.8909 4.58112 19.7119 4.58179 18.3293V8.32983C4.58179 6.94657 5.06943 5.76729 6.04472 4.79201C7.02 3.81672 8.19894 3.32941 9.58154 3.33008C10.9648 3.33008 12.1441 3.81772 13.1194 4.79301C14.0946 5.76829 14.582 6.94723 14.5813 8.32983V18.3293C14.5813 19.7126 14.0936 20.8919 13.1184 21.8672C12.1431 22.8424 10.9641 23.3298 9.58154 23.3291ZM9.58154 21.3292C10.4148 21.3292 11.1231 21.0375 11.7064 20.4542C12.2897 19.8709 12.5814 19.1626 12.5814 18.3293V8.32983C12.5814 7.49654 12.2897 6.78824 11.7064 6.20494C11.1231 5.62163 10.4148 5.32998 9.58154 5.32998C8.74825 5.32998 8.03995 5.62163 7.45665 6.20494C6.87334 6.78824 6.58169 7.49654 6.58169 8.32983V18.3293C6.58169 19.1626 6.87334 19.8709 7.45665 20.4542C8.03995 21.0375 8.74825 21.3292 9.58154 21.3292ZM9.58154 19.3293C10.1315 19.3293 10.6025 19.1333 10.9945 18.7413C11.3864 18.3493 11.5821 17.8787 11.5814 17.3294C11.5814 16.7794 11.3854 16.3084 10.9935 15.9165C10.6015 15.5245 10.1308 15.3288 9.58154 15.3295C9.03157 15.3295 8.56059 15.5255 8.16861 15.9175C7.77663 16.3094 7.58097 16.7801 7.58164 17.3294C7.58164 17.8794 7.77763 18.3503 8.16961 18.7423C8.56159 19.1343 9.03223 19.3299 9.58154 19.3293ZM9.58154 18.3293C9.29822 18.3293 9.06056 18.2333 8.86857 18.0413C8.67658 17.8494 8.58092 17.612 8.58159 17.3294C8.58159 17.0461 8.67758 16.8084 8.86957 16.6164C9.06156 16.4244 9.29889 16.3288 9.58154 16.3294C9.86486 16.3294 10.1025 16.4254 10.2945 16.6174C10.4865 16.8094 10.5822 17.0467 10.5815 17.3294C10.5815 17.6127 10.4855 17.8504 10.2935 18.0423C10.1015 18.2343 9.86419 18.33 9.58154 18.3293ZM9.58154 11.3297C10.1315 11.3297 10.6025 11.1337 10.9945 10.7417C11.3864 10.3497 11.5821 9.87909 11.5814 9.32978C11.5814 8.77981 11.3854 8.30883 10.9935 7.91685C10.6015 7.52487 10.1308 7.32921 9.58154 7.32988C9.03157 7.32988 8.56059 7.52587 8.16861 7.91785C7.77663 8.30983 7.58097 8.78047 7.58164 9.32978C7.58164 9.87975 7.77763 10.3507 8.16961 10.7427C8.56159 11.1347 9.03223 11.3303 9.58154 11.3297Z" fill="#2D3E52"/>
</svg>
