<svg width="25" height="25" viewBox="0 0 25 25" fill="none" xmlns="http://www.w3.org/2000/svg">
<path d="M17.9893 18.3977C18.5197 18.3977 19.0284 18.6084 19.4035 18.9835C19.7785 19.3586 19.9893 19.8673 19.9893 20.3977C19.9893 20.9281 19.7785 21.4368 19.4035 21.8119C19.0284 22.187 18.5197 22.3977 17.9893 22.3977C16.8793 22.3977 15.9893 21.4977 15.9893 20.3977C15.9893 19.2877 16.8793 18.3977 17.9893 18.3977ZM1.98926 2.39771H5.25926L6.19926 4.39771H20.9893C21.2545 4.39771 21.5088 4.50306 21.6964 4.6906C21.8839 4.87813 21.9893 5.13249 21.9893 5.39771C21.9893 5.56771 21.9393 5.7377 21.8693 5.89771L18.2893 12.3677C17.9493 12.9777 17.2893 13.3977 16.5393 13.3977H9.08926L8.18926 15.0277L8.15926 15.1477C8.15926 15.214 8.1856 15.2776 8.23248 15.3245C8.27937 15.3714 8.34295 15.3977 8.40926 15.3977H19.9893V17.3977H7.98926C6.87926 17.3977 5.98926 16.4977 5.98926 15.3977C5.98926 15.0477 6.07926 14.7177 6.22926 14.4377L7.58926 11.9877L3.98926 4.39771H1.98926V2.39771ZM7.98926 18.3977C8.51969 18.3977 9.0284 18.6084 9.40347 18.9835C9.77854 19.3586 9.98926 19.8673 9.98926 20.3977C9.98926 20.9281 9.77854 21.4368 9.40347 21.8119C9.0284 22.187 8.51969 22.3977 7.98926 22.3977C6.87926 22.3977 5.98926 21.4977 5.98926 20.3977C5.98926 19.2877 6.87926 18.3977 7.98926 18.3977ZM16.9893 11.3977L19.7693 6.39771H7.12926L9.48926 11.3977H16.9893Z" fill="#2D3E52"/>
</svg>
