<svg width="20" height="20" viewBox="0 0 20 20" fill="none" xmlns="http://www.w3.org/2000/svg">
<path d="M17.3283 11.6341L15.3866 12.1508L13.72 11.2091V8.80911L15.3866 7.86745L17.3283 8.38411L17.7616 6.77578L16.2866 6.38411L16.67 4.90911L15.0616 4.47578L14.545 6.41745L12.8783 7.35911L10.8366 6.15911V4.27578L12.2616 2.85078L11.0783 1.67578L10.0033 2.75078L8.9283 1.67578L7.74496 2.85078L9.16996 4.27578V6.15911L7.08663 7.35911L5.41996 6.41745L4.93663 4.47578L3.33663 4.90911L3.7283 6.38411L2.2533 6.77578L2.68663 8.38411L4.6283 7.86745L6.29496 8.80911V11.2174L4.6283 12.1591L2.68663 11.6424L2.2533 13.2508L3.7283 13.6424L3.33663 15.1091L4.94496 15.5424L5.46163 13.6008L7.1283 12.6591L9.16996 13.8591V15.7424L7.74496 17.1674L8.9283 18.3424L10.0033 17.2674L11.0783 18.3424L12.2533 17.1674L10.8366 15.7424V13.8591L12.92 12.6508L14.5866 13.5924L15.1033 15.5341L16.67 15.1091L16.2783 13.6341L17.7533 13.2424L17.3283 11.6341ZM7.91996 8.80911L10.0033 7.60078L12.0866 8.80911V11.2091L10.0033 12.4174L7.91996 11.2091V8.80911Z" fill="#2D3E52"/>
</svg>
