<svg width="31" height="31" viewBox="0 0 31 31" fill="none" xmlns="http://www.w3.org/2000/svg">
    <g clip-path="url(#clip0_2928_661)">
        <path
            d="M4.68066 24.8262C4.68066 25.797 5.46764 26.584 6.43848 26.584C7.40932 26.584 8.19629 25.797 8.19629 24.8262C8.19629 25.797 8.98326 26.584 9.9541 26.584C10.9249 26.584 11.7119 25.797 11.7119 24.8262C11.7119 25.797 12.4989 26.584 13.4697 26.584C14.4406 26.584 15.2275 25.797 15.2275 24.8262V1.85742M4.68066 5.37305C4.68066 6.34389 5.46764 7.13086 6.43848 7.13086C7.40932 7.13086 8.19629 6.34389 8.19629 5.37305"
            stroke="#7D8598" stroke-width="1.5" stroke-miterlimit="10" stroke-linecap="round"
            stroke-linejoin="round" />
        <path
            d="M11.7119 5.37305C11.7119 6.34389 12.4989 7.13086 13.4697 7.13086C14.4406 7.13086 15.2275 6.34389 15.2275 5.37305M11.7119 5.37305V1.85742M11.7119 5.37305C11.7119 6.34389 10.9249 7.13086 9.9541 7.13086C8.98326 7.13086 8.19629 6.34389 8.19629 5.37305V1.85742M25.8916 3.61523H4.68066M15.2275 7.13086H22.376V23.0684H15.2275M8.19629 12.5215V21.3105M11.7119 12.5215V21.3105M1.16504 1.85742H4.68066V30.0996H1.16504V1.85742ZM25.8916 1.85742H29.4072V30.0996H25.8916V1.85742Z"
            stroke="#7D8598" stroke-width="1.5" stroke-miterlimit="10" stroke-linecap="round"
            stroke-linejoin="round" />
    </g>
    <defs>
        <clipPath id="clip0_2928_661">
            <rect width="30" height="30" fill="white" transform="translate(0.286133 0.978516)" />
        </clipPath>
    </defs>
</svg>
