<svg width="94" height="94" viewBox="0 0 94 94" fill="none" xmlns="http://www.w3.org/2000/svg">
<g filter="url(#filter0_d_6361_30108)">
<circle cx="47.0017" cy="42.9983" r="34.9983" fill="url(#paint0_linear_6361_30108)"/>
</g>
<path d="M47.0016 27.1709C39.8075 27.1709 34.0522 32.9262 34.0522 40.1203V50.192C34.0522 51.3368 34.507 52.4347 35.3165 53.2442C36.126 54.0537 37.2239 54.5084 38.3687 54.5084H42.6851V42.9979H36.9299V40.1203C36.9299 37.4491 37.991 34.8873 39.8798 32.9985C41.7686 31.1097 44.3304 30.0485 47.0016 30.0485C49.6728 30.0485 52.2346 31.1097 54.1234 32.9985C56.0122 34.8873 57.0733 37.4491 57.0733 40.1203V42.9979H51.3181V54.5084H57.0733V55.9472H47.0016V58.8249H55.6345C56.7793 58.8249 57.8772 58.3701 58.6867 57.5606C59.4962 56.7511 59.951 55.6532 59.951 54.5084V40.1203C59.951 32.9262 54.1525 27.1709 47.0016 27.1709Z" fill="white"/>
<defs>
<filter id="filter0_d_6361_30108" x="0.00341797" y="0" width="93.9966" height="93.9966" filterUnits="userSpaceOnUse" color-interpolation-filters="sRGB">
<feFlood flood-opacity="0" result="BackgroundImageFix"/>
<feColorMatrix in="SourceAlpha" type="matrix" values="0 0 0 0 0 0 0 0 0 0 0 0 0 0 0 0 0 0 127 0" result="hardAlpha"/>
<feOffset dy="4"/>
<feGaussianBlur stdDeviation="6"/>
<feComposite in2="hardAlpha" operator="out"/>
<feColorMatrix type="matrix" values="0 0 0 0 0.270588 0 0 0 0 0.623529 0 0 0 0 0.831373 0 0 0 0.5 0"/>
<feBlend mode="normal" in2="BackgroundImageFix" result="effect1_dropShadow_6361_30108"/>
<feBlend mode="normal" in="SourceGraphic" in2="effect1_dropShadow_6361_30108" result="shape"/>
</filter>
<linearGradient id="paint0_linear_6361_30108" x1="47.0017" y1="8" x2="47.0017" y2="77.9965" gradientUnits="userSpaceOnUse">
<stop stop-color="#44CEFF"/>
<stop offset="1" stop-color="#0082B0"/>
</linearGradient>
</defs>
</svg>
