<svg width="40" height="36" viewBox="0 0 40 36" fill="none" xmlns="http://www.w3.org/2000/svg">
<path d="M36.0226 32.3346C28.1866 32.3326 13.3155 32.3302 7.00948 32.3341C6.45754 32.3345 6.01727 32.7821 6.01727 33.334V33.9987C6.01727 34.551 6.46499 34.9987 7.01727 34.9987H36.0173C36.5696 34.9987 37.0173 34.551 37.0173 33.9987V33.3346C37.0173 32.7824 36.5747 32.3348 36.0226 32.3346Z" stroke="white" stroke-width="2"/>
<path d="M9.0174 32.3325V14.5547" stroke="white" stroke-width="2" stroke-linecap="round"/>
<path d="M34.0174 32.3325V14.5547" stroke="white" stroke-width="2" stroke-linecap="round"/>
<path d="M33.5001 9.5V2.61804C33.5001 2.23927 33.2861 1.893 32.9473 1.72361L32.8416 1.6708C31.9971 1.24852 31.0029 1.24854 30.1584 1.67084L30.0528 1.7236C29.7141 1.893 29.5001 2.23926 29.5001 2.61803V7" stroke="white" stroke-width="2" stroke-linecap="round"/>
<path d="M5.01627 12.2229L21.0185 3.27881C21.3276 3.10605 21.705 3.10963 22.0108 3.28823L37.9568 12.6027C38.5041 12.9224 38.6197 13.6641 38.1957 14.1352L37.5576 14.8442C37.2424 15.1944 36.7255 15.2771 36.3168 15.0427L22.0148 6.84085C21.7067 6.66415 21.328 6.66415 21.0199 6.84085L6.78384 15.0049C6.34604 15.2559 5.78979 15.1414 5.48673 14.7379L4.70453 13.6963C4.3409 13.2121 4.48767 12.5184 5.01627 12.2229Z" stroke="white" stroke-width="2" stroke-linecap="round"/>
<path d="M21.0173 18C21.813 18 22.576 18.3161 23.1387 18.8787C23.7013 19.4413 24.0173 20.2043 24.0173 21C24.0173 21.7956 23.7013 22.5587 23.1387 23.1213C22.576 23.6839 21.813 24 21.0173 24C20.2217 24 19.4586 23.6839 18.896 23.1213C18.3334 22.5587 18.0173 21.7956 18.0173 21C18.0173 20.2043 18.3334 19.4413 18.896 18.8787C19.4586 18.3161 20.2217 18 21.0173 18V18ZM21.0173 19.5C20.6195 19.5 20.238 19.658 19.9567 19.9393C19.6754 20.2206 19.5173 20.6022 19.5173 21C19.5173 21.3978 19.6754 21.7794 19.9567 22.0607C20.238 22.342 20.6195 22.5 21.0173 22.5C21.4152 22.5 21.7967 22.342 22.078 22.0607C22.3593 21.7794 22.5173 21.3978 22.5173 21C22.5173 20.6022 22.3593 20.2206 22.078 19.9393C21.7967 19.658 21.4152 19.5 21.0173 19.5ZM19.5173 28.5C19.3298 28.5 19.1723 28.365 19.1423 28.185L18.8648 26.1975C18.3923 26.01 17.9873 25.755 17.5973 25.455L15.7298 26.2125C15.5648 26.2725 15.3623 26.2125 15.2723 26.0475L13.7723 23.4525C13.6748 23.2875 13.7198 23.085 13.8623 22.9725L15.4448 21.7275L15.3923 21L15.4448 20.25L13.8623 19.0275C13.7198 18.915 13.6748 18.7125 13.7723 18.5475L15.2723 15.9525C15.3623 15.7875 15.5648 15.72 15.7298 15.7875L17.5973 16.5375C17.9873 16.245 18.3923 15.99 18.8648 15.8025L19.1423 13.815C19.1723 13.635 19.3298 13.5 19.5173 13.5H22.5173C22.7048 13.5 22.8623 13.635 22.8923 13.815L23.1698 15.8025C23.6423 15.99 24.0473 16.245 24.4373 16.5375L26.3048 15.7875C26.4698 15.72 26.6723 15.7875 26.7623 15.9525L28.2623 18.5475C28.3598 18.7125 28.3148 18.915 28.1723 19.0275L26.5898 20.25L26.6423 21L26.5898 21.75L28.1723 22.9725C28.3148 23.085 28.3598 23.2875 28.2623 23.4525L26.7623 26.0475C26.6723 26.2125 26.4698 26.28 26.3048 26.2125L24.4373 25.4625C24.0473 25.755 23.6423 26.01 23.1698 26.1975L22.8923 28.185C22.8623 28.365 22.7048 28.5 22.5173 28.5H19.5173ZM20.4548 15L20.1773 16.9575C19.2773 17.145 18.4823 17.625 17.9048 18.2925L16.0973 17.5125L15.5348 18.4875L17.1173 19.65C16.8173 20.5275 16.8173 21.48 17.1173 22.35L15.5273 23.52L16.0898 24.495L17.9123 23.715C18.4898 24.375 19.2773 24.855 20.1698 25.035L20.4473 27H21.5873L21.8648 25.0425C22.7573 24.855 23.5448 24.375 24.1223 23.715L25.9448 24.495L26.5073 23.52L24.9173 22.3575C25.2173 21.48 25.2173 20.5275 24.9173 19.65L26.4998 18.4875L25.9373 17.5125L24.1298 18.2925C23.5523 17.625 22.7573 17.145 21.8573 16.965L21.5798 15H20.4548Z" fill="white"/>
<path d="M7.8016 7.89576C6.99523 7.71349 6.19638 8.20788 6.01733 9" stroke="white" stroke-width="2"/>
<path d="M8.4092 5.17948C6.26517 4.69485 4.11491 6.12553 3.60645 8.375" stroke="white" stroke-width="2"/>
<path d="M9.02205 2.46319C5.44867 1.65548 1.86489 4.03995 1.01746 7.78906" stroke="white" stroke-width="2"/>
</svg>
