<svg width="14" height="20" viewBox="0 0 14 20" fill="none" xmlns="http://www.w3.org/2000/svg">
    <path
        d="M11.4406 -0.000829865H2.2713C1.03053 -0.000829865 0 1.0086 0 2.27047V13.4587C0 14.6995 1.00943 15.73 2.2713 15.73L2.86015 15.7299C2.86015 15.8139 2.83918 15.8981 2.83918 15.9822C2.83918 18.1904 4.6478 19.999 6.85601 19.999C9.06425 19.999 10.8728 18.1904 10.8728 15.9822C10.8728 15.8981 10.8728 15.8139 10.8519 15.7299H11.4197C12.6605 15.7299 13.691 14.7204 13.691 13.4586L13.6907 2.27032C13.6907 1.00841 12.6813 -0.000976562 11.4404 -0.000976562L11.4406 -0.000829865ZM6.85596 18.7794C5.29966 18.7794 4.0379 17.5175 4.0379 15.9614C4.0379 14.4052 5.29966 13.1433 6.85596 13.1433C8.41225 13.1433 9.67401 14.4052 9.67401 15.9614C9.67401 17.5177 8.41225 18.7794 6.85596 18.7794ZM12.4921 13.4377C12.4921 14.0265 12.0085 14.4892 11.4406 14.4892H10.5995C10.0106 13.0171 8.55951 11.9444 6.85603 11.9444C5.15256 11.9444 3.70145 13.017 3.1126 14.5102H2.27145C1.68259 14.5102 1.19893 14.0265 1.19893 13.4586L1.19878 2.27039C1.19878 1.68154 1.68245 1.21887 2.2713 1.21887H11.4196C12.0084 1.21887 12.4711 1.70253 12.4711 2.27039V13.4376L12.4921 13.4377Z"
        fill="#0082B0" />
    <path
        d="M10.0527 3.17468H3.65937C3.32285 3.17468 3.04956 3.44812 3.04956 3.78449C3.04956 4.12102 3.323 4.3943 3.65937 4.3943H10.0527C10.3892 4.3943 10.6625 4.12086 10.6625 3.78449C10.6626 3.44812 10.3892 3.17468 10.0528 3.17468H10.0527Z"
        fill="#0082B0" />
    <path
        d="M10.0527 6.2666H3.65937C3.32285 6.2666 3.04956 6.54004 3.04956 6.87641C3.04956 7.21293 3.323 7.48622 3.65937 7.48622H10.0527C10.3892 7.48622 10.6625 7.21278 10.6625 6.87641C10.6416 6.54004 10.3892 6.2666 10.0528 6.2666H10.0527Z"
        fill="#0082B0" />
    <path
        d="M10.0527 9.3584H3.65937C3.32285 9.3584 3.04956 9.63184 3.04956 9.96821C3.04956 10.3047 3.323 10.578 3.65937 10.578H10.0527C10.3892 10.578 10.6625 10.3046 10.6625 9.96821C10.6416 9.63183 10.3892 9.3584 10.0528 9.3584H10.0527Z"
        fill="#0082B0" />
    <path
        d="M7.50791 14.8677L6.41429 15.9613L6.07776 15.6248C5.84642 15.3935 5.46795 15.3935 5.23662 15.6248C5.00527 15.8562 5.00527 16.2346 5.23662 16.466L5.99372 17.2231C6.0989 17.3282 6.26716 17.3913 6.41429 17.3913C6.58255 17.3913 6.72969 17.3282 6.83486 17.2231L8.34906 15.7089C8.58041 15.4775 8.58041 15.0991 8.34906 14.8677C8.13884 14.6364 7.7602 14.6364 7.50791 14.8677Z"
        fill="#0082B0" />
</svg>
