<svg width="321" height="240" viewBox="0 0 321 240" fill="none" xmlns="http://www.w3.org/2000/svg">
<path d="M151.742 141.104C156.21 141.104 158.96 144.229 158.96 149.225C158.96 154.209 156.232 157.356 151.742 157.356C147.241 157.356 144.501 154.22 144.501 149.225C144.501 144.219 147.294 141.104 151.742 141.104ZM151.742 143.349C148.82 143.349 146.961 145.626 146.961 149.225C146.961 152.802 148.766 155.111 151.742 155.111C154.685 155.111 156.5 152.802 156.5 149.225C156.5 145.626 154.685 143.349 151.742 143.349ZM164.557 156.98H162.215V141.479H164.385L172.345 152.49H172.517V141.479H174.859V156.98H172.689L164.729 145.97H164.557V156.98Z" fill="#A1A1A1"/>
<circle cx="296.002" cy="92.0039" r="24.25" stroke="#EEEEEE" stroke-width="1.5"/>
<path d="M297.728 101.275V93.7252H305.277C306.224 93.7252 307.002 92.9469 307.002 92C307.002 91.0531 306.224 90.2748 305.277 90.2748H297.728V82.7252C297.728 81.7783 296.962 81 296.002 81C295.056 81 294.277 81.7783 294.277 82.7252V90.2748H286.728C285.781 90.2748 285.002 91.0531 285.002 92C285.002 92.9469 285.781 93.7252 286.728 93.7252H294.277V101.275C294.277 102.222 295.056 103 296.002 103C296.962 103 297.728 102.222 297.728 101.275Z" fill="#A1A1A1"/>
<circle cx="25.0024" cy="92" r="24.25" stroke="#EEEEEE" stroke-width="1.5"/>
<path d="M15.7047 93.4566H34.3001C35.2098 93.4566 36.0024 92.6769 36.0024 91.7283C36.0024 90.7927 35.2098 90 34.3001 90H15.7047C14.8211 90 14.0024 90.7927 14.0024 91.7283C14.0024 92.6769 14.8211 93.4566 15.7047 93.4566Z" fill="#A1A1A1"/>
<path opacity="0.84" d="M78.0367 111.247C77.102 111.149 76.4222 110.311 76.5391 109.378C77.895 98.5633 81.317 88.1039 86.6245 78.5715C92.208 68.5432 99.7627 59.7482 108.834 52.7158C117.905 45.6834 128.306 40.5591 139.409 37.6511C150.512 34.7431 162.089 34.1117 173.443 35.7947C184.797 37.4778 195.693 41.4406 205.475 47.4446C215.258 53.4486 223.724 61.3697 230.365 70.7312C237.007 80.0928 241.685 90.7012 244.119 101.918C246.433 112.58 246.674 123.583 244.834 134.326C244.675 135.252 243.782 135.857 242.858 135.68V135.68C241.935 135.503 241.333 134.611 241.491 133.684C243.244 123.392 243.01 112.853 240.793 102.64C238.456 91.8716 233.965 81.6876 227.589 72.7005C221.214 63.7135 213.086 56.1092 203.695 50.3453C194.304 44.5815 183.844 40.7772 172.944 39.1615C162.045 37.5457 150.931 38.1519 140.271 40.9436C129.612 43.7353 119.628 48.6546 110.919 55.4057C102.211 62.1568 94.9583 70.6 89.5981 80.2271C84.5141 89.3584 81.2321 99.3758 79.9247 109.734C79.807 110.667 78.9715 111.345 78.0367 111.247V111.247Z" fill="#EEEEEE"/>
<path d="M79.0662 135.631C78.1431 135.807 77.2499 135.202 77.0918 134.276C74.5598 119.435 76.0094 104.177 81.3073 90.0631C86.8048 75.4178 96.2331 62.5715 108.556 52.9358C120.879 43.3001 135.62 37.2481 151.159 35.4447C166.134 33.7068 181.291 35.9797 195.083 42.0159C195.944 42.3927 196.316 43.4056 195.922 44.2589V44.2589C195.528 45.1122 194.518 45.4827 193.656 45.1066C180.433 39.3323 165.905 37.1598 151.552 38.8256C136.634 40.5568 122.483 46.3667 110.653 55.617C98.8225 64.8672 89.7713 77.1997 84.4938 91.2592C79.4157 104.787 78.0205 119.41 80.4354 133.636C80.5927 134.563 79.9894 135.454 79.0662 135.631V135.631Z" fill="#A1A1A1"/>
<circle cx="200.4" cy="48.3984" r="9" fill="#A1A1A1"/>
<path d="M128.081 99.4688C128.081 93.1406 132.932 88.7344 139.87 88.7344C146.549 88.7344 151.377 92.8125 151.377 98.4609C151.377 102.094 149.526 105.094 143.784 110.766L136.706 117.867V118.266H151.893V123.398H128.409V119.203L139.682 107.672C144.299 102.984 145.448 101.227 145.448 98.8359C145.448 95.8594 143.01 93.7031 139.682 93.7031C136.143 93.7031 133.752 96.0234 133.752 99.4688V99.5625H128.081V99.4688ZM173.854 123.398V117.094H157.331V111.703C160.377 106.102 165.135 98.5781 171.112 89.5781H179.643V111.984H184.213V117.094H179.643V123.398H173.854ZM162.932 111.773V112.125H173.948V94.5H173.62C170.385 99.2812 166.87 104.836 162.932 111.773Z" fill="#A1A1A1"/>
<circle cx="192.401" cy="91.3984" r="4.5" stroke="#A1A1A1" stroke-width="3"/>
</svg>
