<svg width="34" height="32" viewBox="0 0 34 32" fill="none" xmlns="http://www.w3.org/2000/svg">
<rect x="1.00146" y="1" width="31.7185" height="29.021" rx="5" stroke="white" stroke-width="2"/>
<path d="M13.3638 11.8545C13.3638 11.0371 13.9907 10.4805 14.9048 10.4805C15.7866 10.4805 16.4019 10.9873 16.4019 11.7139C16.4019 12.1738 16.1528 12.5693 15.4204 13.2578L14.6118 14.0283L14.6118 14.0811L16.4634 14.0811L16.4634 14.8164L13.4136 14.8164L13.4136 14.1982L14.7935 12.8477C15.3882 12.2676 15.5376 12.0479 15.5376 11.7725C15.5376 11.4326 15.2622 11.1924 14.8755 11.1924C14.4653 11.1924 14.1841 11.4619 14.1841 11.8516L14.1841 11.8691L13.3638 11.8691L13.3638 11.8545ZM18.6809 14.9248C17.635 14.9248 17.0022 14.0986 17.0022 12.6953C17.0022 11.2949 17.6409 10.4805 18.6809 10.4805C19.718 10.4805 20.3596 11.2949 20.3596 12.6982C20.3596 14.0957 19.7268 14.9248 18.6809 14.9248ZM18.6809 14.2041C19.1672 14.2041 19.4631 13.6855 19.4631 12.6953C19.4631 11.7109 19.1643 11.2041 18.6809 11.2041C18.2004 11.2041 17.8987 11.7139 17.8987 12.6953C17.8987 13.6826 18.1975 14.2041 18.6809 14.2041Z" fill="white"/>
<ellipse cx="22.2559" cy="10.1236" rx="0.674369" ry="0.674369" fill="white"/>
<path d="M6.39697 8.39062C6.39697 7.28605 7.2924 6.39062 8.39697 6.39062L25.3255 6.39062C26.4301 6.39062 27.3255 7.28606 27.3255 8.39062L27.3255 19.2267L6.39697 19.2267L6.39697 8.39062Z" stroke="white" stroke-width="2"/>
<path d="M10.7905 25.6247L12.8136 23.6016L14.8367 25.6247" stroke="white" stroke-linecap="round"/>
<path d="M22.2568 22.9222L20.2337 24.9453L18.2106 22.9222" stroke="white" stroke-linecap="round"/>
</svg>
