<svg width="50" height="50" viewBox="0 0 50 50" fill="none" xmlns="http://www.w3.org/2000/svg">
    <path
        d="M14.3453 37.4987C11.7887 37.4987 9.33668 36.511 7.52883 34.7529C5.72098 32.9948 4.70534 30.6104 4.70534 28.1241C4.70533 25.6378 5.72097 23.2534 7.52882 21.4953C9.33667 19.7373 11.7886 18.7496 14.3453 18.7496C14.9492 16.0147 16.7156 13.6113 19.2561 12.0681C20.5141 11.304 21.9241 10.774 23.4059 10.5086C24.8876 10.2431 26.412 10.2473 27.892 10.5208C29.372 10.7944 30.7786 11.332 32.0315 12.103C33.2845 12.874 34.3591 13.8632 35.1942 15.0142C36.0293 16.1652 36.6085 17.4555 36.8986 18.8113C37.1888 20.1671 37.1842 21.5619 36.8852 22.9161L38.9343 22.9161C40.8364 22.9161 42.6606 23.6843 44.0055 25.0516C45.3505 26.419 46.1061 28.2736 46.1061 30.2074C46.1061 32.1412 45.3505 33.9957 44.0055 35.3631C42.6606 36.7305 40.8364 37.4987 38.9343 37.4987L36.8852 37.4987"
        stroke="#0082B0" stroke-width="3.5" stroke-linecap="round" stroke-linejoin="round" />
    <path d="M18.4441 31.2477L24.5913 24.9981L30.7386 31.2477" stroke="#0082B0" stroke-width="3.5"
        stroke-linecap="round" stroke-linejoin="round" />
    <path d="M24.5913 24.998L24.5913 43.7471" stroke="#0082B0" stroke-width="3.5"
        stroke-linecap="round" stroke-linejoin="round" />
</svg>
