<svg width="17" height="17" viewBox="0 0 17 17" fill="none" xmlns="http://www.w3.org/2000/svg">
    <path fill-rule="evenodd" clip-rule="evenodd"
        d="M8.10983 0.987173C8.05833 0.994553 7.90585 1.01557 7.77095 1.03386C7.00191 1.13818 6.08221 1.57178 5.45669 2.12492C4.66665 2.82361 4.10924 3.82968 3.93941 4.86352C3.8782 5.23614 3.88616 6.08226 3.95411 6.42452C4.17822 7.55304 4.81363 8.59764 5.672 9.24863L5.88563 9.41065L5.79601 9.44476C5.42045 9.58767 5.25549 9.65965 4.93652 9.81973C3.54974 10.5157 2.42137 11.5684 1.62003 12.914C0.963613 14.0161 0.597885 15.2444 0.521163 16.6042L0.5 16.9795H1.12895H1.7579V16.8265C1.7579 15.7669 2.19826 14.3019 2.78732 13.4019C3.69719 12.0117 4.9137 11.058 6.39737 10.5719C7.80681 10.1101 9.19319 10.1101 10.6026 10.5719C12.0863 11.058 13.3028 12.0117 14.2127 13.4019C14.8017 14.3019 15.2421 15.7669 15.2421 16.8265V16.9795H15.871H16.5L16.4788 16.6042C16.4021 15.2444 16.0364 14.0161 15.38 12.914C14.5786 11.5684 13.4503 10.5157 12.0635 9.81973C11.7445 9.65965 11.5795 9.58767 11.204 9.44476L11.1144 9.41065L11.328 9.24863C12.1864 8.59764 12.8218 7.55304 13.0459 6.42452C13.1138 6.08226 13.1218 5.23614 13.0606 4.86352C12.925 4.03835 12.512 3.16711 11.9601 2.54258C11.2782 1.77085 10.3156 1.22571 9.31392 1.04399C9.07295 1.00028 8.27957 0.962844 8.10983 0.987173ZM9.02801 2.26774C10.8642 2.56609 12.119 4.29811 11.8231 6.12594C11.5253 7.96553 9.79648 9.22262 7.97199 8.9262C6.13577 8.62785 4.88099 6.89583 5.17686 5.06799C5.47461 3.22869 7.2038 1.97135 9.02801 2.26774Z"
        fill="#7E8699" />
</svg>
