<svg width="23" height="17" viewBox="0 0 23 17" fill="none" xmlns="http://www.w3.org/2000/svg">
<path d="M11.4107 0.140625C14.017 0.140625 15.8367 1.93665 15.8367 4.51052V11.912C15.8367 14.4859 14.017 16.2819 11.4107 16.2819H5.17794C2.57163 16.2819 0.751953 14.4859 0.751953 11.912V4.51052C0.751953 1.93665 2.57163 0.140625 5.17794 0.140625H11.4107ZM20.0763 2.70062C20.5487 2.46027 21.1029 2.4854 21.5538 2.76944C22.0047 3.0524 22.2737 3.54401 22.2737 4.08151V12.3417C22.2737 12.8803 22.0047 13.3708 21.5538 13.6538C21.3074 13.8078 21.0319 13.8865 20.7542 13.8865C20.5229 13.8865 20.2915 13.8318 20.0752 13.7215L18.4815 12.9174C17.8918 12.6181 17.5259 12.0172 17.5259 11.3497V5.07238C17.5259 4.40379 17.8918 3.80293 18.4815 3.50577L20.0763 2.70062Z" fill="#0082B0"/>
</svg>
