<svg width="19" height="18" viewBox="0 0 19 18" fill="none" xmlns="http://www.w3.org/2000/svg">
<path d="M12.2123 0.604905C11.6125 0.376409 11.0137 0.85343 11.0137 1.49524V1.55643C11.0137 1.99886 11.3077 2.38197 11.7158 2.55293C14.2391 3.61005 16.0137 6.10507 16.0137 9.01219C16.0137 11.9193 14.2391 14.4059 11.7159 15.4616C11.3077 15.6324 11.0137 16.0155 11.0137 16.4579V16.5291C11.0137 17.1709 11.6125 17.648 12.2123 17.4195C15.5982 16.1295 18.0137 12.8526 18.0137 9.01219C18.0137 5.17174 15.5982 1.8949 12.2123 0.604905ZM13.5137 9.01219C13.5137 7.81748 13.0581 6.73667 12.3007 5.93274C11.7925 5.39338 11.0137 5.84954 11.0137 6.59059V11.4325C11.0137 12.1665 11.7802 12.6234 12.2881 12.0935C13.053 11.2953 13.5137 10.2067 13.5137 9.01219ZM1.01367 6.01219C0.461387 6.01219 0.0136719 6.4599 0.0136719 7.01219V11.0122C0.0136719 11.5645 0.461387 12.0122 1.01367 12.0122H3.59946C3.86467 12.0122 4.11903 12.1175 4.30657 12.3051L7.30657 15.3051C7.93653 15.935 9.01367 15.4889 9.01367 14.598V3.4264C9.01367 2.5355 7.93653 2.08933 7.30657 2.71929L4.30656 5.71929C4.11903 5.90683 3.86467 6.01219 3.59946 6.01219H1.01367Z" fill="black"/>
</svg>
